<svg xmlns="http://www.w3.org/2000/svg" xmlns:xlink="http://www.w3.org/1999/xlink" viewBox="0 0 41.99 36.5"><defs><style>.cls-1{fill:url(#Unbenannter_Verlauf_113);}</style><linearGradient id="Unbenannter_Verlauf_113" x1="20.99" x2="20.99" y2="36.5" gradientUnits="userSpaceOnUse"><stop offset="0.05" stop-color="#d6cd9b"/><stop offset="0.32" stop-color="#d8c88b"/><stop offset="0.67" stop-color="#b8a877"/><stop offset="0.91" stop-color="#7c705b"/></linearGradient></defs><title>Icon_MedCamp</title><g id="Ebene_2" data-name="Ebene 2"><g id="Bar_oben" data-name="Bar oben"><g id="Beige"><path class="cls-1" d="M21.32,5.17c-.11.1-.21.2-.31.31l-.31-.31C6.84-8.24-8.38,7.1,5.46,21l7.1-.14S15.63,8.35,16.36,6c0,0,.07-.28.48-.28a1.1,1.1,0,0,1,.71.29c.62,3.62,3.18,22.74,3.18,22.74l2.79-7.9H27.3A1.79,1.79,0,1,1,29,23.09a1.51,1.51,0,0,1-1.63-1l-2.9,0L21,31.85a1,1,0,0,1-.72.36,1,1,0,0,1-.72-.42L16.72,9.33,13.64,22.08l-7,.09L21,36.5,36.52,21C50.36,7.14,35.18-8.24,21.32,5.17Z"/></g></g></g></svg>