<svg xmlns="http://www.w3.org/2000/svg" xmlns:xlink="http://www.w3.org/1999/xlink" viewBox="0 0 44.89 36.07"><defs><style>.cls-1{fill:url(#Unbenannter_Verlauf_124);}</style><linearGradient id="Unbenannter_Verlauf_124" x1="22.44" x2="22.44" y2="36.07" gradientUnits="userSpaceOnUse"><stop offset="0.05" stop-color="#d8cf9c"/><stop offset="0.32" stop-color="#d8c98c"/><stop offset="0.67" stop-color="#bbaa78"/><stop offset="0.91" stop-color="#7c705b"/></linearGradient></defs><title>Icon_Supplies</title><g id="Ebene_2" data-name="Ebene 2"><g id="Bar_oben" data-name="Bar oben"><g id="Ressourcen"><path class="cls-1" d="M14.63,24.6h0L12.78,24ZM32.66,9v2s-.08.56.4.56h7.46c.48,0,.4-.56.4-.56V9s.08-.56-.4-.56H33.06C32.58,8.4,32.66,9,32.66,9Zm-.25,18.2L44.89,12.6H10l4.83,9.19Zm6.91,4.32c.28-.68-.62-1.06-.62-1.06L14,22.83l-5.29-10L1.12,11.26S0,11.26,0,11.9s.82.86.82.86l6.9,1.47L12.78,24l1.85.56h0l9.17,2.79-6.69,7.06-2,.06-.44-9.91L12.78,24l.66,12h4.27l7.71-8.18L38.1,31.75S39,32.16,39.32,31.48Zm-1.4-5.32A4.44,4.44,0,0,0,34.18,28L38.3,29.2a5.15,5.15,0,0,1,1.64.92,1.44,1.44,0,0,1,.35,1.57A1.81,1.81,0,0,1,39,32.77a2.45,2.45,0,0,1-1.3-.18l-4.51-1.38a4.62,4.62,0,0,0,4.73,4.42,4.74,4.74,0,1,0,0-9.47ZM18.2,6.77s-.08.56.4.56h7.46c.48,0,.4-.56.4-.56v-2s.08-.56-.4-.56H18.6c-.48,0-.4.56-.4.56Zm4.56-4.2s-.08.57.4.57h7.46c.48,0,.4-.57.4-.57v-2S31.1,0,30.62,0H23.16c-.48,0-.4.56-.4.56ZM13.61,11s-.08.56.4.56h7.46c.48,0,.4-.56.4-.56V9s.08-.56-.4-.56H14c-.48,0-.4.56-.4.56ZM31.37,9s.08-.56-.4-.56H23.51c-.48,0-.4.56-.4.56v2s-.08.56.4.56H31c.48,0,.4-.56.4-.56Zm-3.55-4.2v2s-.08.56.4.56h7.46c.49,0,.41-.56.41-.56v-2s.08-.56-.41-.56H28.22C27.74,4.2,27.82,4.76,27.82,4.76ZM12.78,24l1.85.56h0Z"/></g></g></g></svg>