<svg xmlns="http://www.w3.org/2000/svg" xmlns:xlink="http://www.w3.org/1999/xlink" viewBox="0 0 34.67 34.53"><defs><style>.cls-1{fill:url(#Unbenannter_Verlauf_136);}</style><linearGradient id="Unbenannter_Verlauf_136" x1="17.33" x2="17.33" y2="34.53" gradientUnits="userSpaceOnUse"><stop offset="0.05" stop-color="#d6cd9b"/><stop offset="0.32" stop-color="#d6c689"/><stop offset="0.67" stop-color="#c0ae7b"/><stop offset="0.91" stop-color="#7c705b"/></linearGradient></defs><title>Icon_Depot</title><g id="Ebene_2" data-name="Ebene 2"><g id="Bar_oben" data-name="Bar oben"><path class="cls-1" d="M7.22,5.21h-2V7.33l9.31,9.37,2-2Zm-2.36,4V12.8l4.52,0L5.45,9.19Zm0-.46h.4l-.4-.41Zm12.85,4.62h-1l.51.51Zm-12.85,0V16.9h8.52L9.8,13.37ZM18,12.8l4-3.61H12.76l3.67,3.6Zm4.27-4.2,4.07-3.79H8.45l4,3.79Zm6.94.59-3.92,3.58,4.52,0V9.19Zm.6-.87-.4.41h.4Zm-5,5L21.32,16.9h8.53V13.37ZM.05,4.81v25H3.66V4.77Zm31,0v25h3.62V4.74ZM34.66,0H0V3.61H34.66ZM29.45,5.21V7.33L15.53,21.08h0L7.22,29.32h-2V27.2L16.84,15.78,27.48,5.21Zm-24,20.13,3.93-3.58-4.52,0v3.61Zm-.59.87.4-.41h-.4Zm12.47-5.54-.5.51h1Zm-7.53.49,3.74-3.56-8.68,0v3.53Zm6.63.58-3.67,3.6H22l-3.81-3.61Zm-4,4.19-4,3.79H26.38l-4-3.79Zm15,3.39h2V27.2l-9.32-9.37-2,2Zm2.37-4V21.73l-4.52,0,3.77,3.61Zm0,.46h-.4l.4.41Zm0-4.64V17.63H21.32l3.58,3.53Zm4.81,9.75H0v3.62H34.66Z"/></g></g></svg>