<svg xmlns="http://www.w3.org/2000/svg" xmlns:xlink="http://www.w3.org/1999/xlink" viewBox="0 0 16.55 25.51"><defs><style>.cls-1{fill:url(#Unbenannter_Verlauf_128);}</style><linearGradient id="Unbenannter_Verlauf_128" x1="8.28" x2="8.28" y2="25.51" gradientUnits="userSpaceOnUse"><stop offset="0.05" stop-color="#d6cd9b"/><stop offset="0.32" stop-color="#d8c98c"/><stop offset="0.67" stop-color="#bcad7b"/><stop offset="0.91" stop-color="#7c705b"/></linearGradient></defs><title>Icon_Ammunition</title><g id="Ebene_2" data-name="Ebene 2"><g id="Bar_oben" data-name="Bar oben"><path id="Beige" class="cls-1" d="M2.22,7.87H3.86v2.25l.61.78V23.52L4,23.74v1l.48.33v.47H2.22M3.16,2.85,2.93,1.6,2.68.73,2.59.48C2.54.2,2.41,0,2.27,0h0C2.12,0,2,.1,2,.26H2L1.78.73l-.24.87L1.31,2.85.83,7.31h.41A42.59,42.59,0,0,1,1.63,2.7,5.76,5.76,0,0,1,2.25.6a12.72,12.72,0,0,1-.11,2.25C2,4.79,1.88,7.24,1.83,7.31h1.8ZM.71,24.71l0-1.17-.39-.23V11L1,10.23V7.87H.61v2.25L0,10.9V23.52l.48.22v1L0,25v.47H.29v-.39Zm1-16.84v2.44l-.69.78,0,12,.31.26v1.36l-.43.5v.3H2.25V7.87ZM8.26,25.51h2.25V25L10,24.71v-1l.47-.22V10.9l-.6-.78V7.87H8.26m.94-5L9,1.6,8.73.73,8.64.48C8.58.2,8.46,0,8.32,0H8.26c-.1,0-.19.1-.25.26H8L7.83.73l-.25.87L7.35,2.85,6.88,7.31h.41A40,40,0,0,1,7.68,2.7,5.55,5.55,0,0,1,8.3.6a13.33,13.33,0,0,1-.12,2.25C8,4.79,7.92,7.24,7.88,7.31h1.8ZM6.76,24.71l0-1.17-.39-.23V11L7,10.23V7.87H6.65v2.25L6,10.9V23.52l.48.22v1L6,25v.47h.3v-.39Zm1-16.84v2.44l-.69.78,0,12,.31.26,0,1.36-.44.5v.3H8.29V7.87ZM14.3,25.51h2.25V25l-.48-.33v-1l.48-.22V10.9l-.61-.78V7.87H14.3m.94-5L15,1.6,14.77.73,14.68.48C14.62.2,14.5,0,14.35,0h0c-.1,0-.19.1-.25.26h0l-.17.47-.25.87-.23,1.25-.47,4.46h.41a37.66,37.66,0,0,1,.39-4.61A5.55,5.55,0,0,1,14.34.6a13.33,13.33,0,0,1-.12,2.25C14,4.79,14,7.24,13.92,7.31h1.8ZM12.8,24.71l0-1.17-.39-.23V11l.67-.75V7.87h-.36v2.25l-.61.78V23.52l.48.22v1l-.48.33v.47h.3v-.39Zm1-16.84v2.44l-.69.78,0,12,.31.26v1.36l-.43.5v.3h1.29V7.87Z"/></g></g></svg>