<svg xmlns="http://www.w3.org/2000/svg" xmlns:xlink="http://www.w3.org/1999/xlink" viewBox="0 0 43.78 34.21"><defs><style>.cls-1{fill:url(#Unbenannter_Verlauf_325);}.cls-2{fill:url(#Unbenannter_Verlauf_325-2);}</style><linearGradient id="Unbenannter_Verlauf_325" x1="21.67" y1="0.29" x2="21.67" y2="34.09" gradientUnits="userSpaceOnUse"><stop offset="0.09" stop-color="#f8f1ca"/><stop offset="0.57" stop-color="#e6dcb1"/><stop offset="0.89" stop-color="#cac1a1"/></linearGradient><linearGradient id="Unbenannter_Verlauf_325-2" x1="21.89" y1="0" x2="21.89" y2="34.21" xlink:href="#Unbenannter_Verlauf_325"/></defs><title>Icon_Territory</title><g id="Ebene_2" data-name="Ebene 2"><g id="Heatmap_Territory" data-name="Heatmap Territory"><path class="cls-1" d="M42.92,18.18v.09a.45.45,0,0,0-.1.14q-1.37,2.19-2.94,4.24c-.66.85-1.35,1.68-2.09,2.46a16.14,16.14,0,0,1-1.4,1.34.21.21,0,0,1-.12.08l-.17-.06a15.43,15.43,0,0,1-1.72-.75A14.8,14.8,0,0,1,31.73,24a9.76,9.76,0,0,1-2-2.13,6.78,6.78,0,0,1-1.2-3.68,7.33,7.33,0,0,1,.09-1.32,1,1,0,0,0,0-.24c0-.16-.05-.33-.08-.49a9.51,9.51,0,0,0-.58-2,6.32,6.32,0,0,0-.95-1.6,4.34,4.34,0,0,0-1.24-1.06l-.1,0L22.46,16l.08.12,3.93,5.6,8,11.34a.83.83,0,0,1,.08.12.46.46,0,0,1-.1.58l-.08.05-.36.24h-.32v0a.66.66,0,0,1-.29-.26l-1.57-2.25q-4.27-6.06-8.53-12.14l-1.5-2.13a.38.38,0,0,0-.1-.12,1.3,1.3,0,0,0-.1.15L11,32.36l-1,1.47a.67.67,0,0,1-.26.24l0,0H9.36a0,0,0,0,0,0,0L9,33.82a.47.47,0,0,1-.12-.63l.08-.11L17.06,21.5q1.85-2.66,3.71-5.29a1.63,1.63,0,0,0,.11-.17l0-.06-3.19-4.53h0l-.09.05a4.64,4.64,0,0,0-1.23,1.06,6.45,6.45,0,0,0-1,1.57,9.48,9.48,0,0,0-.6,2,2.53,2.53,0,0,0,0,.91,7.84,7.84,0,0,1,.06,1.19A6.76,6.76,0,0,1,13.53,22a9.53,9.53,0,0,1-1.8,1.95,14.15,14.15,0,0,1-2.19,1.5A16.94,16.94,0,0,1,7.17,26.5l-.12,0-.12-.09c-.38-.33-.75-.68-1.11-1-.67-.69-1.29-1.41-1.89-2.15C3,22.14,2.21,21,1.42,19.8l-1-1.51s0-.05,0-.09l.09,0a12.89,12.89,0,0,0,2.36-1.08,9.58,9.58,0,0,0,1.94-1.46,6.44,6.44,0,0,0,.94-1.21,4.35,4.35,0,0,0,.51-3.15,5.85,5.85,0,0,0-.33-1.08A6.09,6.09,0,0,1,5.5,8.39,4.72,4.72,0,0,1,5.58,7,5,5,0,0,1,6.12,5.4,5.87,5.87,0,0,1,7.22,4,9.31,9.31,0,0,1,9.46,2.26a7.12,7.12,0,0,1,1.09-.49c.11,0,.29-.19.27-.21a1.94,1.94,0,0,0-.15-.24.57.57,0,0,1,0-.75l.23-.15a.65.65,0,0,1,.22-.11l0,0h.14a1.72,1.72,0,0,1,.07.21.46.46,0,0,1,.3.22l.05.07,7.63,10.86,2.22,3.16a.76.76,0,0,0,.08.11l.1-.14,7.72-11L31.63.74A.54.54,0,0,1,32,.5h.23s.06,0,.08,0,.28.17.41.27a.35.35,0,0,1,.12.17.44.44,0,0,1-.06.43l-.28.41s0,0,0,.08l.07,0c.14,0,.27.07.4.12a11,11,0,0,1,2.81,1.75A7.13,7.13,0,0,1,37.1,5.39a4.91,4.91,0,0,1,.65,3.68,6.91,6.91,0,0,1-.37,1.17A5.83,5.83,0,0,0,37,11.66a4.41,4.41,0,0,0,.11,1.62A4.66,4.66,0,0,0,38,15a7.23,7.23,0,0,0,1.33,1.32,12.42,12.42,0,0,0,3.56,1.89ZM26.4,10.44s0,0,0,.1l.08-.07h0l.12-.08c.46-.33.9-.67,1.34-1a19.11,19.11,0,0,0,2-2,10.56,10.56,0,0,0,1.25-1.73,5.58,5.58,0,0,0,.72-2,3.22,3.22,0,0,0,0-.76.3.3,0,0,0-.06-.18l-.1.12L26.48,10.3l-.07.12S26.4,10.43,26.4,10.44Zm-8.62.72.1.13,4.06,5.78,5.82,8.25,5.79,8.21a.6.6,0,0,0,.09.13.29.29,0,0,0,.36.08l.13-.09a.27.27,0,0,0,.09-.38.83.83,0,0,1-.08-.12l-5.56-7.9L16.46,8,11.5.93l-.08-.1a.23.23,0,0,0-.3,0l-.28.2c-.11.09.09.29.11.32s.06.1.12.2a.48.48,0,0,1,.06.22.65.65,0,0,1-.05.18.43.43,0,0,1-.26.19,10.61,10.61,0,0,0-3,1.9A6.67,6.67,0,0,0,6.61,5.35,5.05,5.05,0,0,0,5.8,7.62a5.26,5.26,0,0,0,.1,1.53,6.88,6.88,0,0,0,.36,1.17,6.06,6.06,0,0,1,.44,1.82,5.05,5.05,0,0,1-.12,1.45,5.19,5.19,0,0,1-.85,1.85A7.92,7.92,0,0,1,4.22,17a11.21,11.21,0,0,1-2.5,1.48l-.11.05.07.13.47.73a38.45,38.45,0,0,0,3.16,4.23,23,23,0,0,0,1.81,1.88l.1.09.11,0c.36-.15.72-.32,1.08-.49A17.44,17.44,0,0,0,11.2,23.3,11,11,0,0,0,13,21.6a7.14,7.14,0,0,0,1.12-1.8,6,6,0,0,0,.45-1.8,5.65,5.65,0,0,0,0-.92,3.84,3.84,0,0,1,.06-1.17,8.72,8.72,0,0,1,.64-2,7,7,0,0,1,1-1.61,4.3,4.3,0,0,1,1.3-1.06Z"/><path class="cls-2" d="M43.78,18.35v.09a.78.78,0,0,0-.1.15q-1.41,2.25-3,4.36c-.68.88-1.39,1.73-2.15,2.54a18.77,18.77,0,0,1-1.44,1.38.29.29,0,0,1-.13.08l-.17-.06A14,14,0,0,1,35,26.11a14.79,14.79,0,0,1-2.73-1.76,10.08,10.08,0,0,1-2-2.19A7,7,0,0,1,29,18.37,6.86,6.86,0,0,1,29.07,17a1,1,0,0,0,0-.25c0-.17-.05-.33-.07-.5a9.92,9.92,0,0,0-.6-2.08,6.72,6.72,0,0,0-1-1.65,4.61,4.61,0,0,0-1.28-1.09l-.1,0-3.33,4.75.08.13L26.84,22c2.74,3.89,4.91,7.06,7.65,11a.83.83,0,0,0,.08.12c.11.2-.17.64-.19.66L34,34h-.33a1.78,1.78,0,0,1-.3-.29c-.54-.77-.52-.82-1.06-1.59L23.53,19.62,22,17.43a.38.38,0,0,0-.1-.12l-.11.15c-3.62,5.16-7.92,11.22-11.54,16.38a4,4,0,0,1-.31.32.76.76,0,0,1-.28.05.81.81,0,0,1-.29-.12c-.6-.32.2-.75-.08-.34-.07.1,5.07-8,7.86-12L21,16.32l.12-.17L21,16.08l-3.28-4.67h0l-.1,0a4.7,4.7,0,0,0-1.27,1.08,6.76,6.76,0,0,0-1,1.63,9.48,9.48,0,0,0-.62,2.09,3,3,0,0,0,0,.94,7.08,7.08,0,0,1,.07,1.22,7.44,7.44,0,0,1-.21,1.48,7.3,7.3,0,0,1-1.09,2.35,10.09,10.09,0,0,1-1.85,2A14.59,14.59,0,0,1,9.4,25.8,17.4,17.4,0,0,1,7,26.92l-.12,0-.12-.09c-.4-.34-.78-.71-1.15-1.08a28.93,28.93,0,0,1-1.94-2.21Q2.25,21.85,1,20c-.34-.51-.67-1-1-1.56,0,0,0-.05,0-.09l.09,0a13.79,13.79,0,0,0,2.44-1.12,9.71,9.71,0,0,0,2-1.5,6.54,6.54,0,0,0,1-1.25A4.53,4.53,0,0,0,6,11.22a7.12,7.12,0,0,0-.34-1.11,6.2,6.2,0,0,1-.45-1.84,5,5,0,0,1,.08-1.39A5.24,5.24,0,0,1,6,5.19,7,7,0,0,1,7.23,3.71,10.75,10.75,0,0,1,9.73,2a4.19,4.19,0,0,1,.9-.38.15.15,0,0,0,.09-.23.18.18,0,0,0-.05-.07l-.16-.24A.47.47,0,0,1,10.63.4l.23-.16a.65.65,0,0,1,.22-.11s0,0,0,0h.15l0,0a.5.5,0,0,1,.31.24l.05.07,7.86,11.18,2.29,3.26.08.11.1-.14L30,3.53c.61-.87,1.6-2.69,2-3.31.08-.13.16-.19.19-.19a.42.42,0,0,1,.22,0,4.73,4.73,0,0,1,.85.45.43.43,0,0,1,.13.17.46.46,0,0,1-.06.45,1.93,1.93,0,0,0-.23.52,3.84,3.84,0,0,1,.41.13,11.16,11.16,0,0,1,2.88,1.8,7.14,7.14,0,0,1,1.44,1.66A5.08,5.08,0,0,1,38.46,9a7.09,7.09,0,0,1-.38,1.21,5.71,5.71,0,0,0-.38,1.46,4.47,4.47,0,0,0,.11,1.67A5,5,0,0,0,38.67,15,7.67,7.67,0,0,0,40,16.39a12.83,12.83,0,0,0,3.67,1.95ZM17.89,11.12l.1.14,4.19,5.94,6,8.51c2,2.82,3.38,5,5.37,7.81l.09.13a.28.28,0,0,0,.37.08l.14-.08a.29.29,0,0,0,.09-.4l-.09-.12c-1.9-2.72-3.22-4.79-5.12-7.5L16.53,7.86,11.42.58l-.08-.1a.22.22,0,0,0-.31,0l-.28.2a.22.22,0,0,0-.06.29l.05.08.21.3a.24.24,0,0,1,0,.26.49.49,0,0,1-.25.22,10.86,10.86,0,0,0-3.12,2A7.1,7.1,0,0,0,6.39,5.14a5.17,5.17,0,0,0-.84,2.33,5.59,5.59,0,0,0,.1,1.58A8.86,8.86,0,0,0,6,10.26a6,6,0,0,1,.46,1.87,5.33,5.33,0,0,1-.12,1.49,5.25,5.25,0,0,1-.89,1.9,7.79,7.79,0,0,1-1.54,1.6,11.78,11.78,0,0,1-2.58,1.53l-.11.05c0,.05.05.09.07.13l.48.76a40.41,40.41,0,0,0,3.26,4.35,22.69,22.69,0,0,0,1.86,1.94L7,26l.1,0c.38-.15.75-.33,1.12-.51a17.56,17.56,0,0,0,2.88-1.8,11.58,11.58,0,0,0,1.82-1.75A7.54,7.54,0,0,0,14.09,20a6,6,0,0,0,.46-1.86,5.9,5.9,0,0,0,0-.94A4.09,4.09,0,0,1,14.6,16a9,9,0,0,1,.67-2,6.87,6.87,0,0,1,1-1.67,4.56,4.56,0,0,1,1.34-1.09Z"/></g></g></svg>