<svg xmlns="http://www.w3.org/2000/svg" xmlns:xlink="http://www.w3.org/1999/xlink" viewBox="0 0 40.59 38.36"><defs><style>.cls-1{fill:url(#Unbenannter_Verlauf_141);}.cls-2{fill:url(#Unbenannter_Verlauf_141-2);}</style><linearGradient id="Unbenannter_Verlauf_141" x1="-258.08" y1="302.8" x2="-243.94" y2="339.7" gradientTransform="translate(366.18 -194.4) rotate(21.23)" gradientUnits="userSpaceOnUse"><stop offset="0.05" stop-color="#d6cd9b"/><stop offset="0.32" stop-color="#d8c88b"/><stop offset="0.67" stop-color="#b8a877"/><stop offset="0.91" stop-color="#7c705b"/></linearGradient><linearGradient id="Unbenannter_Verlauf_141-2" x1="-242.22" y1="303.62" x2="-228.06" y2="340.5" xlink:href="#Unbenannter_Verlauf_141"/></defs><title>Icon_Raffinerie</title><g id="Ebene_2" data-name="Ebene 2"><g id="Bar_oben" data-name="Bar oben"><g id="Ebene_60_Kopie" data-name="Ebene 60 Kopie"><path class="cls-1" d="M19.35,28l2.06-1.11.07-.38-1.8-2.05a.85.85,0,0,1-.07-.94l1.6-2.83a1.05,1.05,0,0,1,1-.55L25,20.8l.42-.43.41-2.51a.8.8,0,0,1,.66-.76l2.79-.63a.79.79,0,0,1,.86.41l.6,1,.45-.05a.81.81,0,0,0,.54-.75v-1.6l-.07-1.6A.78.78,0,0,0,31,13.2L27.2,12.05l-.85-1.9,1.77-3.74A.79.79,0,0,0,28,5.5L26.81,4.38h0l-.12-.11-.12-.12L25.4,3.06a.79.79,0,0,0-.91-.12L20.83,4.89,19,4.19,17.78.54A.8.8,0,0,0,17,0h-1.6L13.83.08a.79.79,0,0,0-.73.56l-1.16,4h0L10,5.46,6.28,3.69a.8.8,0,0,0-.91.17L4.26,5,3.19,6.19a.78.78,0,0,0-.1.92l2,3.61-.68,1.89L.54,14A.8.8,0,0,0,0,14.7V16H0v.3l.07,1.59a.78.78,0,0,0,.57.73l3.7,1.09.79,1.76L3.36,25.21a.81.81,0,0,0,.17.91l1.15,1.12.12.11.12.12h0l1,.84a.77.77,0,0,0,.91.1l3.62-2,.07,0h0l1.93.77,1.35,3.91a.8.8,0,0,0,.76.54h1.76l1.6-.07a.8.8,0,0,0,.73-.57l.25-2.23A1.23,1.23,0,0,1,19.35,28Zm1.44-8.19a6.62,6.62,0,1,1-10.2-8.44,6.55,6.55,0,0,1,2.86-2,6.9,6.9,0,0,1,2.92-.33,6.63,6.63,0,0,1,4.42,10.73Z"/><path class="cls-2" d="M37.86,30l.22-1.23,2.25-1.31a.53.53,0,0,0,.25-.55l-.2-1-.25-1a.51.51,0,0,0-.45-.4l-2.6-.24-.78-1.11L37,20.56a.53.53,0,0,0-.22-.56l-.87-.57h0l-.1-.05-.09-.06-.88-.56a.53.53,0,0,0-.6,0l-2.08,1.7-1.24-.22-1.26-2.17a.53.53,0,0,0-.55-.25l-1,.21-1,.24a.52.52,0,0,0-.4.46l-.24,2.67h0l-1.11.78-2.61-.67a.52.52,0,0,0-.55.22l-.57.87-.53.9a.48.48,0,0,0,.05.59l1.74,2.05-.2,1.29-2.31,1.34a.54.54,0,0,0-.25.55l.16.83h0l0,.1,0,.09.25,1a.51.51,0,0,0,.45.39l2.5.23.72,1-.66,2.61a.5.5,0,0,0,.22.55l.87.57.09.06.09.06h0l.7.42a.5.5,0,0,0,.6-.05l2.05-1.74h0l1.33.25,1.36,2.32a.5.5,0,0,0,.54.25l1-.2.06,0h0l1-.25a.52.52,0,0,0,.39-.46l.25-2.68,1.1-.78h0l.05,0,2.59.72a.51.51,0,0,0,.56-.21l.59-.86.55-.88a.51.51,0,0,0,0-.6Zm-10,1.63a4.31,4.31,0,0,1,2-7.92,4.21,4.21,0,0,1,2.66.66,4.31,4.31,0,1,1-4.63,7.26Z"/></g></g></g></svg>