<svg xmlns="http://www.w3.org/2000/svg" xmlns:xlink="http://www.w3.org/1999/xlink" viewBox="0 0 43.93 24.34"><defs><style>.cls-1{fill:url(#Unbenannter_Verlauf_349);}.cls-2{fill:url(#Unbenannter_Verlauf_349-2);}</style><linearGradient id="Unbenannter_Verlauf_349" x1="15.34" x2="15.34" y2="24.34" gradientUnits="userSpaceOnUse"><stop offset="0.07" stop-color="#f8f2d6"/><stop offset="0.28" stop-color="#f8f1ca"/><stop offset="0.6" stop-color="#e9e0b6"/><stop offset="1" stop-color="#e6dcb1"/></linearGradient><linearGradient id="Unbenannter_Verlauf_349-2" x1="33.93" y1="3.04" x2="33.93" y2="22.89" xlink:href="#Unbenannter_Verlauf_349"/></defs><title>Icon_Terrain</title><g id="Ebene_2" data-name="Ebene 2"><g id="Heatmap_Terrain_Kopie" data-name="Heatmap Terrain Kopie"><g id="_1" data-name="1"><path class="cls-1" d="M30.69,24.34H0l.08-.16Q1.45,21.9,2.79,19.6,8.28,10.29,13.75,1a1.84,1.84,0,0,1,1.11-.9A1.8,1.8,0,0,1,16.62.5a1.33,1.33,0,0,1,.23.3l13.53,23C30.48,24,30.57,24.15,30.69,24.34ZM3,22.71l0,0H27.74a0,0,0,0,0,0,0l0,0L19.38,8.43l-.63,1.72L17.53,7.32h0l-1,4h0l-1.85-6.1c-.22.48-.42.94-.61,1.39s-.4.91-.61,1.36-.38.9-.6,1.37c-.3-.62-.56-1.22-.86-1.83Z"/><path class="cls-2" d="M43.93,22.89H31.49l-.86-1.47H40.75l0,0h0L33.54,10.61c-.31.52-.6,1-.92,1.55L30.47,8.44l-2.13,6.12h0L26.5,9.24a7.11,7.11,0,0,0-.41.6l-.4.59-.4.59-.41.61L23.93,10,24,9.89l4.08-6.07a1.8,1.8,0,0,1,3,0l4.68,7,7.12,10.58c.31.46.65.91,1,1.36Z"/></g></g></g></svg>