<svg xmlns="http://www.w3.org/2000/svg" xmlns:xlink="http://www.w3.org/1999/xlink" viewBox="0 0 23.19 26.67"><defs><style>.cls-1{fill:url(#Unbenannter_Verlauf_113);}.cls-2{fill:none;}.cls-3{fill:url(#Unbenannter_Verlauf_113-2);}.cls-4{fill:url(#Unbenannter_Verlauf_113-3);}</style><linearGradient id="Unbenannter_Verlauf_113" x1="17.41" x2="17.41" y2="26.67" gradientUnits="userSpaceOnUse"><stop offset="0.05" stop-color="#d6cd9b"/><stop offset="0.32" stop-color="#d8c88b"/><stop offset="0.67" stop-color="#b8a877"/><stop offset="0.91" stop-color="#7c705b"/></linearGradient><linearGradient id="Unbenannter_Verlauf_113-2" x1="6.25" y1="1.1" x2="6.25" y2="25.69" xlink:href="#Unbenannter_Verlauf_113"/><linearGradient id="Unbenannter_Verlauf_113-3" x1="5.82" x2="5.82" y2="26.67" xlink:href="#Unbenannter_Verlauf_113"/></defs><title>Icon_Cover_1</title><g id="Ebene_2" data-name="Ebene 2"><g id="G_Mauer" data-name="G Mauer"><path class="cls-1" d="M11.63,0A15.77,15.77,0,0,0,23.07,4.2s2.06,15.09-11.44,22.47v-1S23,20.33,22.35,5c0,0-6.44,0-10.72-3.9Z"/><path class="cls-2" d="M11.63,0A15.74,15.74,0,0,1,.19,4.2S-1.87,19.29,11.63,26.67v-1S.24,20.33.92,5c0,0,6.43,0,10.71-3.9Z"/><path class="cls-3" d="M11.63,25.69V1.1S7.94,4.69.92,5C.92,5-.58,19.12,11.63,25.69Z"/><path class="cls-4" d="M11.63,0C7.27,4.32.19,4.2.19,4.2S-2.42,19.44,11.63,26.67v-.38C-2,19.29.47,4.46.47,4.46S7.4,4.58,11.63.39Z"/></g></g></svg>