<svg xmlns="http://www.w3.org/2000/svg" xmlns:xlink="http://www.w3.org/1999/xlink" viewBox="0 0 41.86 41.86"><defs><style>.cls-1{fill:url(#Unbenannter_Verlauf_325);}.cls-2{fill:url(#Unbenannter_Verlauf_325-2);}</style><linearGradient id="Unbenannter_Verlauf_325" x1="20.93" x2="20.93" y2="41.86" gradientUnits="userSpaceOnUse"><stop offset="0.09" stop-color="#f8f1ca"/><stop offset="0.57" stop-color="#e6dcb1"/><stop offset="0.89" stop-color="#cac1a1"/></linearGradient><linearGradient id="Unbenannter_Verlauf_325-2" x1="20.89" y1="4.04" x2="20.89" y2="37.65" xlink:href="#Unbenannter_Verlauf_325"/></defs><title>Icon_Sanit채ter</title><g id="Ebene_2" data-name="Ebene 2"><g id="Regler_2" data-name="Regler 2"><g id="Sanit채ter"><g id="Sanit채ter-2" data-name="Sanit채ter"><path class="cls-1" d="M41.86,12.5H29.36V0H12.5V12.5H0V29.36H12.5v12.5H29.36V29.36h12.5ZM39.72,27.19H27.21V39.72H14.65V27.57h0v-.38H2.15V14.62h12.5V2.15H27.21V14.62H39.72Z"/><polygon class="cls-2" points="37.7 16.49 25.24 16.49 25.24 4.04 16.54 4.04 16.54 16.49 4.09 16.49 4.09 25.19 16.54 25.19 16.54 37.65 25.24 37.65 25.24 25.19 37.7 25.19 37.7 16.49"/></g></g></g></g></svg>