<svg xmlns="http://www.w3.org/2000/svg" xmlns:xlink="http://www.w3.org/1999/xlink" viewBox="0 0 41.94 42.03"><defs><style>.cls-1{fill:url(#Unbenannter_Verlauf_325);}</style><linearGradient id="Unbenannter_Verlauf_325" x1="20.97" x2="20.97" y2="42.03" gradientUnits="userSpaceOnUse"><stop offset="0.09" stop-color="#f8f1ca"/><stop offset="0.57" stop-color="#e6dcb1"/><stop offset="0.89" stop-color="#cac1a1"/></linearGradient></defs><title>Icon_Sch端tze</title><g id="Ebene_2" data-name="Ebene 2"><g id="Regler_2" data-name="Regler 2"><g id="Sch端tze"><g id="Sch端tze_Kopie_Kopie_Kopie" data-name="Sch端tze Kopie Kopie Kopie"><path class="cls-1" d="M41.34,20.42h-3A17.32,17.32,0,0,0,21.59,3.68V.6a.6.6,0,1,0-1.2,0V3.68A17.31,17.31,0,0,0,3.68,20.42H.6a.6.6,0,0,0,0,1.2H3.68A17.32,17.32,0,0,0,20.39,38.29v3.14a.6.6,0,1,0,1.19,0V38.29A17.32,17.32,0,0,0,38.3,21.62h3a.6.6,0,0,0,.6-.6A.6.6,0,0,0,41.34,20.42Zm-4.33,0H28.7a7.73,7.73,0,0,0-7.11-7.19V4.87A16.09,16.09,0,0,1,37,20.42Zm-11.27,1.2h1.68a6.52,6.52,0,0,1-5.84,5.84V25.82a.6.6,0,0,0-.6-.6.59.59,0,0,0-.59.6v1.64a6.51,6.51,0,0,1-5.93-5.84h1.75a.6.6,0,0,0,0-1.2H14.46a6.51,6.51,0,0,1,5.93-5.93v1.72a.59.59,0,0,0,.61.59h0a.6.6,0,0,0,.59-.59V14.5a6.52,6.52,0,0,1,5.84,5.92H25.74a.6.6,0,0,0,0,1.2ZM20.39,4.87v8.36a7.73,7.73,0,0,0-7.12,7.19H4.84A16.09,16.09,0,0,1,20.39,4.87ZM4.85,21.62h8.43a7.74,7.74,0,0,0,7.11,7V37A16.09,16.09,0,0,1,4.85,21.62ZM21.58,37V28.66a7.74,7.74,0,0,0,7.11-7H37A16.1,16.1,0,0,1,21.58,37Z"/></g></g></g></g></svg>