<svg xmlns="http://www.w3.org/2000/svg" xmlns:xlink="http://www.w3.org/1999/xlink" viewBox="0 0 40.13 37"><defs><style>.cls-1{fill:url(#Unbenannter_Verlauf_8);}.cls-2{fill:url(#Unbenannter_Verlauf_11);}.cls-3{fill:url(#Unbenannter_Verlauf_13);}.cls-4{fill:url(#Unbenannter_Verlauf_2);}.cls-5{fill:#f8f1ca;}.cls-6{fill:#e6dcb1;}</style><radialGradient id="Unbenannter_Verlauf_8" cx="20.06" cy="18.5" r="19.3" gradientUnits="userSpaceOnUse"><stop offset="0.04" stop-color="#90734e"/><stop offset="0.24" stop-color="#856a4a"/><stop offset="0.5" stop-color="#7a6243"/><stop offset="0.86" stop-color="#5c4a30"/><stop offset="1" stop-color="#53452c"/></radialGradient><linearGradient id="Unbenannter_Verlauf_11" x1="19.95" x2="19.95" y2="25.25" gradientUnits="userSpaceOnUse"><stop offset="0.45" stop-color="#f8f1ca"/><stop offset="1" stop-color="#e6dcb1"/></linearGradient><linearGradient id="Unbenannter_Verlauf_13" x1="9.59" y1="13.37" x2="9.59" y2="31.96" gradientUnits="userSpaceOnUse"><stop offset="0" stop-color="#f8f1ca"/><stop offset="0.27" stop-color="#e6dcb1"/><stop offset="0.57" stop-color="#dad1aa"/><stop offset="0.87" stop-color="#cac1a1"/></linearGradient><linearGradient id="Unbenannter_Verlauf_2" x1="27.4" y1="7.73" x2="27.4" y2="37.4" gradientUnits="userSpaceOnUse"><stop offset="0.32" stop-color="#f8f1ca"/><stop offset="0.63" stop-color="#e6dcb1"/><stop offset="0.77" stop-color="#dad1aa"/><stop offset="0.9" stop-color="#cac1a1"/></linearGradient></defs><title>Icon_Resources</title><g id="Ebene_2" data-name="Ebene 2"><g id="Heatmap_Resources" data-name="Heatmap Resources"><path class="cls-1" d="M19.23,13.77c-1.08-1.48-1.76-1.65-1.76-1.65l1.46-1.48S18,9,10.63,1.65A4,4,0,0,1,9.6,0l.82.17A76.93,76.93,0,0,1,20.88,9.26l.51-.46a.13.13,0,0,1,.18,0c.4.39,1.32,1.56,1.32,1.56s.86,1.06,1.22,1.63a.14.14,0,0,1,0,.19l-.55.52c5.35,7.61,6.78,12.37,6.78,12.37l-.29.09-.31.09s-.42-.16-1.09-1.22S26,19.5,26,19.5s-2.64-4.54-4-4.95l-1.57,1.34a4.55,4.55,0,0,0-1.25-2.12"/><path class="cls-1" d="M16.73,13.37a5.93,5.93,0,0,1,2.46,3.08L2,31.8a.6.6,0,0,1-.75.06A3.17,3.17,0,0,1,0,30.25a.58.58,0,0,1,.15-.61Z"/><polygon class="cls-1" points="40.13 37 14.68 36.97 26.44 25.55 27.69 25.81 28.93 35.88 31.37 27.94 35.78 27.41 32.15 25.01 33.15 23.23 32.22 22.83 32.96 20.35 32.58 18.86 40.13 10.66 40.13 37"/><polygon class="cls-1" points="29.33 16.24 28.85 14.04 32.5 12.68 29.33 16.24"/><polygon class="cls-1" points="27.98 8.08 28.02 5.22 29.68 7.24 27.98 8.08"/><polygon class="cls-1" points="24.59 22.01 22.59 23.93 24.81 23.56 24.59 22.01"/><polygon class="cls-1" points="17.08 20.7 19.29 21.12 17.73 22.53 17.08 20.7"/><path class="cls-2" d="M19.23,13.77c-1.08-1.48-1.76-1.65-1.76-1.65l1.46-1.48S18,9,10.63,1.65A4,4,0,0,1,9.6,0l.82.17A76.93,76.93,0,0,1,20.88,9.26l.51-.46a.13.13,0,0,1,.18,0c.4.39,1.32,1.56,1.32,1.56s.86,1.06,1.22,1.63a.14.14,0,0,1,0,.19l-.55.52c5.35,7.61,6.78,12.37,6.78,12.37l-.29.09-.31.09s-.42-.16-1.09-1.22S26,19.5,26,19.5s-2.64-4.54-4-4.95l-1.57,1.34a4.55,4.55,0,0,0-1.25-2.12"/><path class="cls-3" d="M16.73,13.37a5.93,5.93,0,0,1,2.46,3.08L2,31.8a.6.6,0,0,1-.75.06A3.17,3.17,0,0,1,0,30.25a.58.58,0,0,1,.15-.61Z"/><polygon class="cls-4" points="40.13 37 14.68 36.97 26.44 25.55 27.69 25.81 28.93 35.88 31.37 27.94 35.78 27.41 32.15 25.01 33.15 23.23 32.22 22.83 32.96 20.35 32.58 18.86 40.13 10.66 40.13 37"/><polygon class="cls-5" points="29.33 16.24 28.85 14.04 32.5 12.68 29.33 16.24"/><polygon class="cls-5" points="27.98 8.08 28.02 5.22 29.68 7.24 27.98 8.08"/><polygon class="cls-6" points="24.59 22.01 22.59 23.93 24.81 23.56 24.59 22.01"/><polygon class="cls-6" points="17.08 20.7 19.29 21.12 17.73 22.53 17.08 20.7"/></g></g></svg>