<svg xmlns="http://www.w3.org/2000/svg" xmlns:xlink="http://www.w3.org/1999/xlink" viewBox="0 0 33.11 40.16"><defs><style>.cls-1{fill:url(#Unbenannter_Verlauf_76);}.cls-2{fill:url(#Unbenannter_Verlauf_77);}.cls-3{fill:url(#Unbenannter_Verlauf_80);}.cls-4{fill:url(#Unbenannter_Verlauf_83);}</style><linearGradient id="Unbenannter_Verlauf_76" x1="4.08" y1="32.01" x2="4.08" y2="40.16" gradientUnits="userSpaceOnUse"><stop offset="0" stop-color="#e6dcb1"/><stop offset="0.73" stop-color="#cac1a1"/></linearGradient><linearGradient id="Unbenannter_Verlauf_77" x1="15.36" y1="7.15" x2="15.36" y2="35.15" gradientUnits="userSpaceOnUse"><stop offset="0" stop-color="#f8f1ca"/><stop offset="0.82" stop-color="#e6dcb1"/><stop offset="1" stop-color="#cac1a1"/></linearGradient><linearGradient id="Unbenannter_Verlauf_80" x1="15.64" y1="12.72" x2="15.64" y2="29.21" gradientTransform="translate(-9.52 13.83) rotate(-37.44)" gradientUnits="userSpaceOnUse"><stop offset="0" stop-color="#f8f1ca"/><stop offset="1" stop-color="#e6dcb1"/></linearGradient><linearGradient id="Unbenannter_Verlauf_83" x1="27.73" x2="27.73" y2="10.74" gradientUnits="userSpaceOnUse"><stop offset="0.4" stop-color="#f8f1ca"/><stop offset="1" stop-color="#e6dcb1"/></linearGradient></defs><title>Icon_Pionier</title><g id="Ebene_2" data-name="Ebene 2"><g id="Regler_2" data-name="Regler 2"><g id="Pionier"><g id="_1" data-name="1"><path class="cls-1" d="M6.56,32.85a4.08,4.08,0,1,0,.75,5.71A4.08,4.08,0,0,0,6.56,32.85ZM2.43,38.24a2.71,2.71,0,1,1,3.8-.51A2.72,2.72,0,0,1,2.43,38.24Z"/><path class="cls-2" d="M23.3,15C25.61,11.9,27,11.46,27,11.46A6.69,6.69,0,0,1,23.61,9.6,9.59,9.59,0,0,1,22,7.15,12.53,12.53,0,0,1,19.4,12c-.45.57-5.86,7.66-9.76,12.75a35.69,35.69,0,0,1-5.9,6.62h0a5,5,0,0,1,2.86.72,5.11,5.11,0,0,1,2.24,3.1,31.09,31.09,0,0,1,2.07-3.86C11.69,30.06,21.91,16.92,23.3,15ZM10.8,29.45a1.32,1.32,0,0,1-2.09-1.6L20.48,12.48a1.32,1.32,0,1,1,2.09,1.6Z"/><rect class="cls-3" x="15.02" y="10.74" width="1.23" height="20.44" rx="0.6" transform="translate(15.97 -5.19) rotate(37.44)"/><path class="cls-4" d="M33,4.81c-.28-.44-3,2.34-3.47,2.5-1,.37-2.17-.59-2.65-1.07S25.51,4.33,26,3.34C26.2,2.89,29.8.44,29.34.2,27.72-.65,23,1.3,22.43,4.39a4.82,4.82,0,0,0,.5,3,6.8,6.8,0,0,0,.91,1.35l.42.42a5.13,5.13,0,0,0,3.85,1.54C31.23,10.52,33.63,5.75,33,4.81Z"/></g></g></g></g></svg>