<svg xmlns="http://www.w3.org/2000/svg" xmlns:xlink="http://www.w3.org/1999/xlink" viewBox="0 0 426.44 85"><defs><style>.cls-1{opacity:0.4;}.cls-2{stroke-miterlimit:10;stroke-width:1px;fill:url(#Unbenannter_Verlauf_291);stroke:url(#Unbenannter_Verlauf_94);}.cls-3{fill:url(#Unbenannter_Verlauf_237);}.cls-4{fill:url(#Unbenannter_Verlauf_237-2);}.cls-5{fill:url(#Unbenannter_Verlauf_28);}</style><linearGradient id="Unbenannter_Verlauf_291" x1="3.34" y1="41.95" x2="423.1" y2="41.95" gradientUnits="userSpaceOnUse"><stop offset="0" stop-color="#57462f"/><stop offset="0.05" stop-color="#4d3e28"/><stop offset="0.09" stop-color="#443721"/><stop offset="0.24" stop-color="#3d311e"/><stop offset="0.48" stop-color="#342b18"/><stop offset="0.76" stop-color="#3d311d"/><stop offset="0.91" stop-color="#443721"/><stop offset="0.95" stop-color="#4d3e28"/><stop offset="0.99" stop-color="#56452f"/></linearGradient><linearGradient id="Unbenannter_Verlauf_94" x1="2.84" y1="41.95" x2="423.6" y2="41.95" gradientUnits="userSpaceOnUse"><stop offset="0.04" stop-color="#e5dbae"/><stop offset="0.24" stop-color="#d3caa3"/><stop offset="0.5" stop-color="#cfc59f"/><stop offset="0.66" stop-color="#d9cfa6"/><stop offset="0.86" stop-color="#e5dbae"/><stop offset="1" stop-color="#e5dbae"/></linearGradient><linearGradient id="Unbenannter_Verlauf_237" x1="1965.21" y1="665.85" x2="1949.56" y2="665.85" gradientTransform="translate(-244.42 1998.45) rotate(-90)" gradientUnits="userSpaceOnUse"><stop offset="0" stop-color="#f8f2d6"/><stop offset="0.44" stop-color="#f8f1ca"/><stop offset="1" stop-color="#e6dcb1"/><stop offset="1" stop-color="#e9e0b6"/></linearGradient><linearGradient id="Unbenannter_Verlauf_237-2" x1="1949.56" y1="671.6" x2="1965.21" y2="671.6" gradientTransform="translate(676.61 -1915.58) rotate(90)" xlink:href="#Unbenannter_Verlauf_237"/><linearGradient id="Unbenannter_Verlauf_28" x1="213.22" x2="213.22" y2="85" gradientUnits="userSpaceOnUse"><stop offset="0" stop-color="#f8f2d6"/><stop offset="0.29" stop-color="#f8f1ca"/><stop offset="0.65" stop-color="#e9e0b6"/><stop offset="0.91" stop-color="#e6dcb1"/></linearGradient></defs><title>Main_Menu_Button_Ausgewählt</title><g id="Ebene_2" data-name="Ebene 2"><g id="L_Start" data-name="L Start"><polygon class="cls-1" points="3.34 1.95 423.1 1.95 423.1 29.78 408.37 41.07 423.1 53.91 423.1 81.95 3.34 81.95 3.34 53.91 18.04 41.95 3.34 29.78 3.34 1.95"/><polygon class="cls-2" points="3.34 1.95 423.1 1.95 423.1 29.78 408.37 41.07 423.1 53.91 423.1 81.95 3.34 81.95 3.34 53.91 18.04 41.95 3.34 29.78 3.34 1.95"/><g id="Start_left" data-name="Start left"><polygon class="cls-3" points="416.42 41.07 426.44 48.89 426.44 33.25 416.42 41.07"/><polygon class="cls-4" points="10.02 41.81 0 33.98 0 49.63 10.02 41.81"/><path class="cls-5" d="M421.09,0H0V30.63H0L14.68,41.82,0,53.47H0V85H426.44V52.24h0L411.76,41.05l14.66-11.64h0V0ZM404.47,41.44l16.62,13V79.65H221.17l-22.83,0v0H5.36V54.41L22,41.44l-16.61-13V5.36h193v0l22.83,0H421.09V28.47Z"/></g></g></g></svg>