<svg xmlns="http://www.w3.org/2000/svg" xmlns:xlink="http://www.w3.org/1999/xlink" viewBox="0 0 426.44 85"><defs><style>.cls-1{opacity:0.4;}.cls-2,.cls-3{stroke-miterlimit:10;stroke-width:1px;stroke:url(#Unbenannter_Verlauf_94);}.cls-2{fill:url(#Unbenannter_Verlauf_291);}.cls-3{fill:url(#Unbenannter_Verlauf_132);}.cls-4{fill:url(#Unbenannter_Verlauf_160);}.cls-5{fill:url(#Unbenannter_Verlauf_160-2);}.cls-6{fill:url(#Unbenannter_Verlauf_162);}.cls-7{fill:url(#Unbenannter_Verlauf_162-2);}.cls-8{fill:url(#Unbenannter_Verlauf_28);}</style><linearGradient id="Unbenannter_Verlauf_291" x1="3.34" y1="41.95" x2="423.1" y2="41.95" gradientUnits="userSpaceOnUse"><stop offset="0" stop-color="#57462f"/><stop offset="0.05" stop-color="#4d3e28"/><stop offset="0.09" stop-color="#443721"/><stop offset="0.24" stop-color="#3d311e"/><stop offset="0.48" stop-color="#342b18"/><stop offset="0.76" stop-color="#3d311d"/><stop offset="0.91" stop-color="#443721"/><stop offset="0.95" stop-color="#4d3e28"/><stop offset="0.99" stop-color="#56452f"/></linearGradient><linearGradient id="Unbenannter_Verlauf_94" x1="2.84" y1="41.95" x2="423.6" y2="41.95" gradientUnits="userSpaceOnUse"><stop offset="0.04" stop-color="#e5dbae"/><stop offset="0.24" stop-color="#d3caa3"/><stop offset="0.5" stop-color="#cfc59f"/><stop offset="0.66" stop-color="#d9cfa6"/><stop offset="0.86" stop-color="#e5dbae"/><stop offset="1" stop-color="#e5dbae"/></linearGradient><linearGradient id="Unbenannter_Verlauf_132" x1="3.34" y1="41.95" x2="423.1" y2="41.95" gradientUnits="userSpaceOnUse"><stop offset="0" stop-color="#e5d17d"/><stop offset="0.02" stop-color="#eed85f"/><stop offset="0.05" stop-color="#efc83b"/><stop offset="0.16" stop-color="#ecbe3a"/><stop offset="0.27" stop-color="#dfa938"/><stop offset="0.5" stop-color="#d39436"/><stop offset="0.63" stop-color="#d29934"/><stop offset="0.86" stop-color="#d19f31"/><stop offset="0.95" stop-color="#edcb3e"/><stop offset="0.97" stop-color="#f5e454"/><stop offset="0.99" stop-color="#ffea89"/></linearGradient><linearGradient id="Unbenannter_Verlauf_160" x1="213.22" y1="24.36" x2="213.22" y2="1.95" gradientUnits="userSpaceOnUse"><stop offset="0.07" stop-color="#483320" stop-opacity="0"/><stop offset="0.21" stop-color="#483320" stop-opacity="0.05"/><stop offset="0.42" stop-color="#483320" stop-opacity="0.2"/><stop offset="0.86" stop-color="#483320" stop-opacity="0.6"/></linearGradient><linearGradient id="Unbenannter_Verlauf_160-2" x1="213.22" y1="-33.64" x2="213.22" y2="-56.05" gradientTransform="matrix(1, 0, 0, -1, 0, 26.31)" xlink:href="#Unbenannter_Verlauf_160"/><linearGradient id="Unbenannter_Verlauf_162" x1="211.71" y1="-204.63" x2="211.71" y2="-227.04" gradientTransform="matrix(0, 1, 1, 0, 230.38, -169.75)" gradientUnits="userSpaceOnUse"><stop offset="0" stop-color="#7c5327" stop-opacity="0"/><stop offset="0.17" stop-color="#7c5327" stop-opacity="0.05"/><stop offset="0.38" stop-color="#7c5226" stop-opacity="0.2"/><stop offset="0.9" stop-color="#7c5327" stop-opacity="0.6"/></linearGradient><linearGradient id="Unbenannter_Verlauf_162-2" x1="211.71" y1="-601.99" x2="211.71" y2="-624.4" gradientTransform="translate(-201.29 -169.75) rotate(90)" xlink:href="#Unbenannter_Verlauf_162"/><linearGradient id="Unbenannter_Verlauf_28" x1="213.22" x2="213.22" y2="85" gradientUnits="userSpaceOnUse"><stop offset="0" stop-color="#f8f2d6"/><stop offset="0.29" stop-color="#f8f1ca"/><stop offset="0.65" stop-color="#e9e0b6"/><stop offset="0.91" stop-color="#e6dcb1"/></linearGradient></defs><title>Main_Menu_Button_Hover</title><g id="Ebene_2" data-name="Ebene 2"><g id="L_Start" data-name="L Start"><polygon class="cls-1" points="3.34 1.95 423.1 1.95 423.1 29.78 408.37 41.07 423.1 53.91 423.1 81.95 3.34 81.95 3.34 53.91 18.04 41.95 3.34 29.78 3.34 1.95"/><polygon class="cls-2" points="3.34 1.95 423.1 1.95 423.1 29.78 408.37 41.07 423.1 53.91 423.1 81.95 3.34 81.95 3.34 53.91 18.04 41.95 3.34 29.78 3.34 1.95"/><polygon class="cls-3" points="3.34 1.95 423.1 1.95 423.1 29.78 408.37 41.07 423.1 53.91 423.1 81.95 3.34 81.95 3.34 53.91 18.04 41.95 3.34 29.78 3.34 1.95"/><polygon class="cls-4" points="423.1 24.36 234.77 24.36 3.34 24.36 3.34 1.95 423.1 1.95 423.1 24.36"/><polygon class="cls-5" points="423.1 59.95 234.77 59.95 3.34 59.95 3.34 82.36 423.1 82.36 423.1 59.95"/><polygon class="cls-6" points="25.75 81.95 25.75 65.02 25.75 1.95 3.34 1.95 3.34 29.78 18.04 41.95 3.34 53.91 3.34 81.95 25.75 81.95"/><polygon class="cls-7" points="400.7 81.95 400.7 65.02 400.7 1.95 423.1 1.95 423.1 29.78 407.7 41.38 423.1 53.91 423.1 81.95 400.7 81.95"/><g id="Start_left" data-name="Start left"><path class="cls-8" d="M421.09,0H0V30.63H0L14.68,41.82,0,53.47H0V85H426.44V52.24h0L411.76,41.05l14.66-11.64h0V0ZM404.47,41.44l16.62,13V79.65H221.17l-22.83,0v0H5.36V54.41L22,41.44l-16.61-13V5.36h193v0l22.83,0H421.09V28.47Z"/></g></g></g></svg>