<svg xmlns="http://www.w3.org/2000/svg" xmlns:xlink="http://www.w3.org/1999/xlink" viewBox="0 0 31.21 22.19"><defs><style>.cls-1{stroke-miterlimit:10;stroke-width:1.3px;fill:url(#Unbenannter_Verlauf_291);stroke:url(#Unbenannter_Verlauf_94);}.cls-2{fill:url(#Unbenannter_Verlauf_237);}.cls-3{fill:url(#Unbenannter_Verlauf_28);}.cls-4{fill:#e9e0b6;}.cls-5{fill:url(#Unbenannter_Verlauf_237-2);}.cls-6{fill:url(#Unbenannter_Verlauf_28-2);}</style><linearGradient id="Unbenannter_Verlauf_291" x1="1.18" y1="11.25" x2="30.31" y2="11.25" gradientUnits="userSpaceOnUse"><stop offset="0" stop-color="#57462f"/><stop offset="0.05" stop-color="#4d3e28"/><stop offset="0.09" stop-color="#443721"/><stop offset="0.24" stop-color="#3d311e"/><stop offset="0.48" stop-color="#342b18"/><stop offset="0.76" stop-color="#3d311d"/><stop offset="0.91" stop-color="#443721"/><stop offset="0.95" stop-color="#4d3e28"/><stop offset="0.99" stop-color="#56452f"/></linearGradient><linearGradient id="Unbenannter_Verlauf_94" x1="0.53" y1="11.25" x2="30.96" y2="11.25" gradientUnits="userSpaceOnUse"><stop offset="0.04" stop-color="#e5dbae"/><stop offset="0.24" stop-color="#d3caa3"/><stop offset="0.5" stop-color="#cfc59f"/><stop offset="0.66" stop-color="#d9cfa6"/><stop offset="0.86" stop-color="#e5dbae"/><stop offset="1" stop-color="#e5dbae"/></linearGradient><linearGradient id="Unbenannter_Verlauf_237" x1="481.19" y1="-895.87" x2="487.88" y2="-895.87" gradientTransform="matrix(0, 1, 1, 0, 907.66, -473.41)" gradientUnits="userSpaceOnUse"><stop offset="0" stop-color="#f8f2d6"/><stop offset="0.44" stop-color="#f8f1ca"/><stop offset="1" stop-color="#e6dcb1"/><stop offset="1" stop-color="#e9e0b6"/></linearGradient><linearGradient id="Unbenannter_Verlauf_28" x1="69.34" y1="3.83" x2="69.34" y2="18.37" gradientTransform="matrix(-1, 0, 0, 1, 78.36, 0)" gradientUnits="userSpaceOnUse"><stop offset="0" stop-color="#f8f2d6"/><stop offset="0.29" stop-color="#f8f1ca"/><stop offset="0.65" stop-color="#e9e0b6"/><stop offset="0.91" stop-color="#e6dcb1"/></linearGradient><linearGradient id="Unbenannter_Verlauf_237-2" x1="481.19" y1="-848.73" x2="487.88" y2="-848.73" gradientTransform="translate(-829.31 -473.41) rotate(90)" xlink:href="#Unbenannter_Verlauf_237"/><linearGradient id="Unbenannter_Verlauf_28-2" x1="22.19" y1="3.83" x2="22.19" y2="18.37" gradientTransform="matrix(1, 0, 0, 1, 0, 0)" xlink:href="#Unbenannter_Verlauf_28"/></defs><title>Main_Menu_Regler_Knauf</title><g id="Ebene_2" data-name="Ebene 2"><g id="Options"><g id="DISPLAY"><g id="bright_Regler" data-name="bright Regler"><rect x="1.18" y="1.27" width="29.12" height="19.95"/><rect class="cls-1" x="1.18" y="1.27" width="29.12" height="19.95"/><g id="Field"><polygon class="cls-2" points="9.46 11.13 14.12 7.78 14.12 14.47 9.46 11.13"/><polygon class="cls-3" points="11.63 16.52 11.63 16.52 3.91 10.97 14.12 3.83 14.12 6.35 14.12 6.35 7.3 11.13 14.11 16.11 14.12 16.11 14.12 18.37 11.63 16.52"/></g><path class="cls-4" d="M0,0V22.19H31.21V0ZM2.14,1.94H29V20.29H2.14Z"/><polygon class="cls-5" points="21.75 11.13 17.09 7.78 17.09 14.47 21.75 11.13"/><polygon class="cls-6" points="19.58 16.52 19.58 16.52 27.3 10.97 17.09 3.83 17.09 6.35 17.09 6.35 23.91 11.13 17.1 16.11 17.09 16.11 17.09 18.37 19.58 16.52"/></g></g></g></g></svg>