<svg xmlns="http://www.w3.org/2000/svg" xmlns:xlink="http://www.w3.org/1999/xlink" viewBox="0 0 15.96 12.28"><defs><style>.cls-1{opacity:0.98;}.cls-2{fill:url(#Unbenannter_Verlauf_349);}.cls-3{fill:url(#Unbenannter_Verlauf_79);}</style><linearGradient id="Unbenannter_Verlauf_349" x1="1282.49" y1="-438.48" x2="1282.49" y2="-434.38" gradientTransform="translate(1290.35 -434.38) rotate(180)" gradientUnits="userSpaceOnUse"><stop offset="0.07" stop-color="#f8f2d6"/><stop offset="0.28" stop-color="#f8f1ca"/><stop offset="0.6" stop-color="#e9e0b6"/><stop offset="1" stop-color="#e6dcb1"/></linearGradient><linearGradient id="Unbenannter_Verlauf_79" x1="7.98" y1="8.95" x2="7.98" y2="0.03" gradientUnits="userSpaceOnUse"><stop offset="0.07" stop-color="#f8f2d6"/><stop offset="0.28" stop-color="#f8f1ca"/><stop offset="1" stop-color="#e9e0b6"/></linearGradient></defs><title>Background_Tooltip_Pfeil_2</title><g id="Ebene_2" data-name="Ebene 2"><g id="ToolTip_Kopie_2" data-name="ToolTip Kopie 2" class="cls-1"><polygon points="2.7 2.19 0 2.19 8.04 12.28 15.96 2.19 2.7 2.19"/><polygon points="3.07 0 12.43 0 13.32 2.19 8.01 9 2.7 2.19 3.07 0"/><polygon class="cls-2" points="7.86 4.11 11.06 0 4.65 0 7.86 4.11"/><polygon class="cls-3" points="12.43 0 15.96 0 15.96 2.19 13.32 2.19 8.01 9 2.7 2.19 0 2.19 0 0 3.07 0 7.85 6.01 12.43 0"/></g></g></svg>