<svg xmlns="http://www.w3.org/2000/svg" xmlns:xlink="http://www.w3.org/1999/xlink" viewBox="0 0 249.41 102.65"><defs><style>.cls-1{opacity:0.98;}.cls-2{opacity:0.95;fill:url(#Unbenannter_Verlauf_87);}.cls-3{fill:url(#Unbenannter_Verlauf_349);}.cls-4{fill:url(#Unbenannter_Verlauf_272);}.cls-5{fill:url(#Unbenannter_Verlauf_272-2);}</style><linearGradient id="Unbenannter_Verlauf_87" x1="1.38" y1="51.32" x2="248.58" y2="51.32" gradientUnits="userSpaceOnUse"><stop offset="0" stop-color="#231f1d" stop-opacity="0.05"/><stop offset="0.03" stop-color="#231f1d" stop-opacity="0.4"/><stop offset="0.04" stop-color="#231f1d" stop-opacity="0.45"/><stop offset="0.14" stop-color="#231f1d" stop-opacity="0.8"/><stop offset="0.23" stop-color="#231f1f" stop-opacity="0.9"/><stop offset="0.36" stop-color="#201d1e"/><stop offset="0.53" stop-color="#191516"/><stop offset="0.72" stop-color="#0f0e0e" stop-opacity="0.9"/><stop offset="0.82" stop-color="#0f0e0e" stop-opacity="0.82"/><stop offset="0.89" stop-color="#0f0e0e" stop-opacity="0.8"/><stop offset="0.97" stop-color="#0f0e0e" stop-opacity="0.4"/><stop offset="1" stop-color="#0f0e0e" stop-opacity="0.05"/></linearGradient><linearGradient id="Unbenannter_Verlauf_349" x1="1399.19" y1="-348.04" x2="1399.19" y2="-343.93" gradientTransform="translate(1523.76 -253.49) rotate(180)" gradientUnits="userSpaceOnUse"><stop offset="0.07" stop-color="#f8f2d6"/><stop offset="0.28" stop-color="#f8f1ca"/><stop offset="0.6" stop-color="#e9e0b6"/><stop offset="1" stop-color="#e6dcb1"/></linearGradient><linearGradient id="Unbenannter_Verlauf_272" x1="3.62" y1="94.94" x2="245.8" y2="94.94" gradientUnits="userSpaceOnUse"><stop offset="0.07" stop-color="#f8f2d6" stop-opacity="0.1"/><stop offset="0.28" stop-color="#f8f1ca"/><stop offset="0.6" stop-color="#e9e0b6"/><stop offset="1" stop-color="#e6dcb1" stop-opacity="0.1"/></linearGradient><linearGradient id="Unbenannter_Verlauf_272-2" x1="3.62" y1="3.1" x2="245.8" y2="3.1" xlink:href="#Unbenannter_Verlauf_272"/></defs><title>Background_Tooltip</title><g id="Ebene_2" data-name="Ebene 2"><g id="ToolTip_Kopie_2" data-name="ToolTip Kopie 2" class="cls-1"><polygon class="cls-2" points="249.41 95.08 130.58 95.08 124.74 102.65 118.89 95.08 0 95.08 0 0 249.41 0 249.41 95.08"/><polygon class="cls-3" points="124.56 94.55 127.76 90.44 121.36 90.44 124.56 94.55"/><polygon class="cls-4" points="245.8 90.44 129.14 90.44 129.14 90.44 124.55 96.46 119.78 90.45 119.78 90.44 119.78 90.44 117.69 90.44 3.62 90.44 3.62 92.64 119.4 92.64 124.71 99.44 130.02 92.64 245.8 92.64 245.8 90.44"/><polygon class="cls-5" points="245.8 2 129.14 2 129.14 2 119.78 2.01 119.78 2 119.78 2 117.69 2 3.62 2 3.62 4.19 119.4 4.19 130.02 4.19 245.8 4.19 245.8 2"/></g></g></svg>