<svg xmlns="http://www.w3.org/2000/svg" xmlns:xlink="http://www.w3.org/1999/xlink" viewBox="0 0 173.28 129.54"><defs><style>.cls-1{stroke:#231c18;stroke-miterlimit:10;stroke-width:1px;fill:url(#Unbenannter_Verlauf_8);}</style><radialGradient id="Unbenannter_Verlauf_8" cx="85.66" cy="63.75" r="75.78" gradientTransform="translate(0.74 0.85)" gradientUnits="userSpaceOnUse"><stop offset="0.04" stop-color="#90734e"/><stop offset="0.24" stop-color="#856a4a"/><stop offset="0.5" stop-color="#7a6243"/><stop offset="0.86" stop-color="#5c4a30"/><stop offset="1" stop-color="#53452c"/></radialGradient></defs><title>Background_Buildings_normal</title><g id="Ebene_2" data-name="Ebene 2"><g id="G_Mauer" data-name="G Mauer"><g id="Rahmen_0_Kopie_2_Kopie" data-name="Rahmen 0 Kopie 2 Kopie"><path class="cls-1" d="M128.9,129H89.45c-.16-.07-.31-.22-.46-.22-.86,0-1.65-.39-2.53-.34a1.5,1.5,0,0,0-1.28.56H.5v-7.78c.22-1.08.45-2.15.65-3.22A1.28,1.28,0,0,0,.5,116.6V88.33c.89-.8,2-1.35,2.61-2.5L.5,84.94V62.7A2.94,2.94,0,0,0,.77,62C.87,61,.91,60,1,58.91A1.06,1.06,0,0,0,.5,57.8V32.16c.24-.11,1.36-1.09,1.77-1.27-.41-.28-1.52-.45-1.77-.61v-4c.34-.32,1.54-.64,1.9-1C2,24.86.83,24,.5,23.61V15a5.07,5.07,0,0,0,.27-1.12c0-2.07-.1-3.61-.12-5.68a6.63,6.63,0,0,1,.75-1.6,4.25,4.25,0,0,0,.24-2.74C1.58,3.56,1,3.17.75,3,.75,2.07.5,1.39.5.51l.75,0H25.19A1.73,1.73,0,0,1,26.65,1a1.26,1.26,0,0,0,1.86.21A5.44,5.44,0,0,1,31.73.51c7,0,14.05,0,21.07,0,1.8,0,3.6,0,5.4,0,.2,0,.48,0,.6.09.47.43.92.25,1.4.06.2-.08.48-.21.65-.14,1,.46,2,0,3,0C74.69.5,85.54.52,96.39.53a3,3,0,0,1,.83.19c.8.22,1.6.47,2.4.69.37.1.76.16,1.08.23a10.81,10.81,0,0,1,1.16-.28,11.8,11.8,0,0,0,3.82-.62,2.28,2.28,0,0,1,1-.21h22.55c.43,0,.71.06.79.55,0,.3.17,3,.32,3.43.13-.33.83-3,.85-3.21.1-.73.06-.78.76-.78,13.36,0,26.6,0,40,0h.86c0,.42,0,.77-.06,1.11-.16,2.15-.43,4.29-.47,6.44a35.23,35.23,0,0,0,.42,4.68,3.18,3.18,0,0,1-.41,2.68,7.56,7.56,0,0,0-.7.8.59.59,0,0,0,.29.92,1.93,1.93,0,0,1,.94,1.52c0,7.56,0,14.77,0,22.33,0,1-.21,2-.12,3a9.26,9.26,0,0,1-1,4.17.87.87,0,0,0,0,.5,15,15,0,0,1,.86,1.82c.13,1.28.21,2.23.23,3.51,0,2.42,0,4.85,0,7.27a45.81,45.81,0,0,0-.05,5.11,11.41,11.41,0,0,1-.41,4.41,5.25,5.25,0,0,0,.06,1.89,13.89,13.89,0,0,1,.36,1.62c0,1.29-.15,2.58-.15,3.87s.16,2.46.16,3.69q0,22.27,0,44.54c0,.88,0,1.76,0,2.63h-19l-.62-1-.76,1h-7.66c-.27-.15-.54-.42-.81-.44a22.92,22.92,0,0,0-2.75,0A5.31,5.31,0,0,0,140,129h-3.89c-.1-.08-.19-.23-.3-.25-.94-.17-1.88-.31-2.82-.45-.51-.08-1-.1-1.54-.18A2.73,2.73,0,0,0,128.9,129Z"/></g></g></g></svg>