<svg xmlns="http://www.w3.org/2000/svg" xmlns:xlink="http://www.w3.org/1999/xlink" viewBox="0 0 35.79 47.33"><defs><style>.cls-1{fill:url(#Unbenannter_Verlauf_207);}.cls-2{fill:url(#Unbenannter_Verlauf_206);}.cls-3{fill:url(#Unbenannter_Verlauf_218);}.cls-4{fill:url(#Unbenannter_Verlauf_223);}.cls-5{fill:url(#Unbenannter_Verlauf_207-2);}.cls-6{fill:url(#Unbenannter_Verlauf_206-2);}.cls-7{fill:url(#Unbenannter_Verlauf_221);}</style><linearGradient id="Unbenannter_Verlauf_207" x1="8.24" y1="32.03" x2="8.24" y2="41.38" gradientUnits="userSpaceOnUse"><stop offset="0.48" stop-color="#e9e0b6"/><stop offset="1" stop-color="#e6dcb1"/></linearGradient><linearGradient id="Unbenannter_Verlauf_206" x1="4.39" y1="36.8" x2="4.39" y2="47.33" gradientUnits="userSpaceOnUse"><stop offset="0" stop-color="#e9e0b6"/><stop offset="0.44" stop-color="#e6dcb1"/></linearGradient><linearGradient id="Unbenannter_Verlauf_218" x1="12.93" y1="23.62" x2="12.93" y2="35.76" gradientUnits="userSpaceOnUse"><stop offset="0" stop-color="#e9e0b6"/><stop offset="0.53" stop-color="#e6dcb1"/><stop offset="1" stop-color="#e6dcb1"/></linearGradient><linearGradient id="Unbenannter_Verlauf_223" x1="25.58" x2="25.58" y2="25.6" gradientUnits="userSpaceOnUse"><stop offset="0.14" stop-color="#f8f2d6"/><stop offset="0.8" stop-color="#f8f1ca"/><stop offset="0.98" stop-color="#e9e0b6"/></linearGradient><linearGradient id="Unbenannter_Verlauf_207-2" x1="27.32" y1="32.08" x2="27.32" y2="41.62" xlink:href="#Unbenannter_Verlauf_207"/><linearGradient id="Unbenannter_Verlauf_206-2" x1="31.29" y1="36.92" x2="31.29" y2="47.3" xlink:href="#Unbenannter_Verlauf_206"/><linearGradient id="Unbenannter_Verlauf_221" x1="13.81" y1="0.49" x2="13.81" y2="35.94" gradientUnits="userSpaceOnUse"><stop offset="0.14" stop-color="#f8f2d6"/><stop offset="0.52" stop-color="#f8f1ca"/><stop offset="0.78" stop-color="#e9e0b6"/></linearGradient></defs><title>Main_Menu_Icon_Start_Game</title><g id="Ebene_2" data-name="Ebene 2"><g id="L_Start" data-name="L Start"><path class="cls-1" d="M13.45,41.38l.82-1.08c.26-.4-2.14-3.28-2.59-3.83L9.64,35,8.3,34l-.81-.6c-.33-.13-4.22-1.7-4.53-1.31l-.78,1.12,4.37,3,2.72,2Z"/><path class="cls-2" d="M4.28,44.5a2.46,2.46,0,0,0-.2-.47l4.7-5.33L6.19,36.8,2.55,43a2.13,2.13,0,0,0-1,.07A2.19,2.19,0,1,0,4.28,44.5Z"/><path class="cls-3" d="M16.33,26.56l-.22-.27,0-.17-4.22,5.81-3,.4,5.71-8.12.16-.09-.41-.46-.06,0L8,32.7l3.67-.48.57,3.54,5.67-7.43S16.86,27.2,16.33,26.56Z"/><path class="cls-4" d="M26.54,6,16.11,21l0,0,.41.46.83-1.16L27.05,6.51s5.73-4.12,6.69-4.72c0,.15-.12.41-.22.76l.22-.76L18.8,22.36,18,23.54l.24.3a24.08,24.08,0,0,0,1.74,1.76l.88-1.1L31.93,9.93S34.68,1.39,35,0C33.83.77,26.54,6,26.54,6Z"/><path class="cls-5" d="M33.31,33.24l-.8-1.1c-.3-.36-3.77,1.08-4.42,1.36l-2,1.51-1.33,1-.81.6c-.22.28-2.86,3.53-2.58,4l.84,1.06,4.13-3.3,2.67-2Z"/><path class="cls-6" d="M33.6,42.92a2.07,2.07,0,0,0-.5.06l-3.72-6.06L26.8,38.85l4.84,5.29a2.23,2.23,0,0,0-.22,1,2.19,2.19,0,1,0,2.18-2.19Z"/><path class="cls-7" d="M8.63,6.37S1.27,1.24.05.49C.43,1.87,3.3,10.37,3.3,10.37L23.4,35.94,24,32.28l3.55.5ZM23.31,35,3.94,10S1.67,3.35,1.38,2.26L2,2.69l-.66-.43L23.8,32Z"/></g></g></svg>