<svg xmlns="http://www.w3.org/2000/svg" xmlns:xlink="http://www.w3.org/1999/xlink" viewBox="0 0 50.98 50.95"><defs><style>.cls-1{fill:url(#Unbenannter_Verlauf_28);}.cls-17,.cls-2,.cls-3,.cls-4,.cls-5,.cls-6,.cls-7,.cls-8{fill:none;stroke-miterlimit:10;}.cls-2,.cls-3,.cls-4,.cls-5,.cls-6,.cls-7,.cls-8{stroke-width:0.55px;}.cls-2{stroke:url(#Unbenannter_Verlauf_86);}.cls-3{stroke:url(#Unbenannter_Verlauf_86-2);}.cls-4{stroke:url(#Unbenannter_Verlauf_82);}.cls-5{stroke:url(#Unbenannter_Verlauf_67);}.cls-6{stroke:#e6dcb1;}.cls-7{stroke:url(#Unbenannter_Verlauf_70);}.cls-8{stroke:url(#Unbenannter_Verlauf_74);}.cls-9{fill:url(#Unbenannter_Verlauf_148);}.cls-10{fill:url(#Unbenannter_Verlauf_140);}.cls-11{fill:url(#Unbenannter_Verlauf_131);}.cls-12{fill:url(#Unbenannter_Verlauf_122);}.cls-13{fill:url(#Unbenannter_Verlauf_115);}.cls-14{fill:url(#Unbenannter_Verlauf_107);}.cls-15{fill:url(#Unbenannter_Verlauf_95);}.cls-16{fill:url(#Unbenannter_Verlauf_154);}.cls-17{stroke-width:1.09px;stroke:url(#Unbenannter_Verlauf_44);}</style><linearGradient id="Unbenannter_Verlauf_28" x1="25.58" y1="2.38" x2="25.58" y2="46.62" gradientUnits="userSpaceOnUse"><stop offset="0" stop-color="#f8f2d6"/><stop offset="0.29" stop-color="#f8f1ca"/><stop offset="0.65" stop-color="#e9e0b6"/><stop offset="0.91" stop-color="#e6dcb1"/></linearGradient><linearGradient id="Unbenannter_Verlauf_86" x1="35.78" y1="2.04" x2="35.78" y2="14.72" gradientUnits="userSpaceOnUse"><stop offset="0.6" stop-color="#f8f2d6"/><stop offset="1" stop-color="#f8f1ca"/></linearGradient><linearGradient id="Unbenannter_Verlauf_86-2" x1="21.57" y1="0" x2="21.57" y2="9.67" xlink:href="#Unbenannter_Verlauf_86"/><linearGradient id="Unbenannter_Verlauf_82" x1="8.03" y1="7.88" x2="8.03" y2="22.23" gradientUnits="userSpaceOnUse"><stop offset="0.6" stop-color="#f8f1ca"/><stop offset="1" stop-color="#e9e0b6"/></linearGradient><linearGradient id="Unbenannter_Verlauf_67" x1="4.97" y1="22.28" x2="4.97" y2="36.83" gradientUnits="userSpaceOnUse"><stop offset="0.3" stop-color="#e9e0b6"/><stop offset="1" stop-color="#e6dcb1"/></linearGradient><linearGradient id="Unbenannter_Verlauf_70" x1="42.61" y1="28.62" x2="42.61" y2="43.01" gradientUnits="userSpaceOnUse"><stop offset="0.45" stop-color="#e9e0b6"/><stop offset="1" stop-color="#e6dcb1"/></linearGradient><linearGradient id="Unbenannter_Verlauf_74" x1="45.93" y1="14.66" x2="45.93" y2="29.26" gradientUnits="userSpaceOnUse"><stop offset="0.45" stop-color="#f8f1ca"/><stop offset="1" stop-color="#e9e0b6"/></linearGradient><linearGradient id="Unbenannter_Verlauf_148" x1="28.55" y1="6.19" x2="28.55" y2="6.96" gradientUnits="userSpaceOnUse"><stop offset="0.29" stop-color="#f7f2d5"/><stop offset="0.91" stop-color="#f7f2d5"/></linearGradient><linearGradient id="Unbenannter_Verlauf_140" x1="40.86" y1="14.56" x2="40.86" y2="15.21" gradientUnits="userSpaceOnUse"><stop offset="0.29" stop-color="#f7f0ca"/><stop offset="0.91" stop-color="#f7f0ca"/></linearGradient><linearGradient id="Unbenannter_Verlauf_131" x1="43.75" y1="28.78" x2="43.75" y2="29" gradientUnits="userSpaceOnUse"><stop offset="0.29" stop-color="#e9e1b8"/><stop offset="0.91" stop-color="#e9e1b7"/></linearGradient><linearGradient id="Unbenannter_Verlauf_122" x1="36.02" y1="40.53" x2="36.02" y2="40.69" gradientUnits="userSpaceOnUse"><stop offset="0.29" stop-color="#e6ddb3"/><stop offset="0.91" stop-color="#e6ddb3"/></linearGradient><linearGradient id="Unbenannter_Verlauf_115" x1="22.08" y1="43.6" x2="22.08" y2="43.88" gradientUnits="userSpaceOnUse"><stop offset="0.29" stop-color="#e6dcb2"/><stop offset="0.91" stop-color="#e6dcb2"/></linearGradient><linearGradient id="Unbenannter_Verlauf_107" x1="9.94" y1="36.28" x2="9.94" y2="36.51" xlink:href="#Unbenannter_Verlauf_115"/><linearGradient id="Unbenannter_Verlauf_95" x1="6.57" y1="21.58" x2="6.57" y2="22.76" gradientUnits="userSpaceOnUse"><stop offset="0.32" stop-color="#eae2b8"/><stop offset="1" stop-color="#e9e0b6"/></linearGradient><linearGradient id="Unbenannter_Verlauf_154" x1="14.38" y1="9.38" x2="14.38" y2="10.07" gradientUnits="userSpaceOnUse"><stop offset="0.29" stop-color="#f7f0cb"/><stop offset="0.91" stop-color="#f7f0ca"/></linearGradient><linearGradient id="Unbenannter_Verlauf_44" x1="25.22" y1="18.45" x2="25.22" y2="32.57" gradientUnits="userSpaceOnUse"><stop offset="0.01" stop-color="#f8f2d6"/><stop offset="0.27" stop-color="#f8f1ca"/><stop offset="0.78" stop-color="#e9e0b6"/><stop offset="1" stop-color="#e6dcb1"/></linearGradient></defs><title>Main_Menu_Icon_Options</title><g id="Ebene_2" data-name="Ebene 2"><g id="L_Options" data-name="L Options"><path class="cls-1" d="M41.82,29.83l.47-2.65,4.85-2.82a1.1,1.1,0,0,0,.53-1.18L47.24,21l-.53-2.18a1.12,1.12,0,0,0-1-.84l-5.59-.54-1.68-2.38,1.43-5.62a1.14,1.14,0,0,0-.47-1.21L37.54,7h0l-.2-.12-.2-.13L35.25,5.56a1.15,1.15,0,0,0-1.3.08L29.46,9.3,26.8,8.83,24.08,4.15a1.11,1.11,0,0,0-1.18-.53l-2.19.44-2.18.53a1.1,1.1,0,0,0-.84,1l-.53,5.77h0L14.76,13,9.14,11.59a1.11,1.11,0,0,0-1.2.48L6.71,13.94,5.57,15.86a1.12,1.12,0,0,0,.11,1.29l3.75,4.42L9,24.34l-5,2.9a1.11,1.11,0,0,0-.54,1.17l.36,1.79h0l0,.2,0,.21.53,2.17a1.1,1.1,0,0,0,1,.85l5.38.49,1.56,2.21L10.94,42a1.13,1.13,0,0,0,.47,1.21l1.88,1.22.2.12.19.13h0l1.52.9a1.1,1.1,0,0,0,1.29-.1l4.42-3.76.11,0H21l2.86.54,2.91,5a1.13,1.13,0,0,0,1.19.53l2.19-.44.12,0,.11,0,2.18-.52a1.12,1.12,0,0,0,.84-1L33.9,40l2.38-1.69-.06,0,.09-.06L41.9,39.8a1.12,1.12,0,0,0,1.22-.44l1.26-1.85,1.18-1.9a1.1,1.1,0,0,0-.08-1.29Zm-21.59,3.5a9.26,9.26,0,0,1,.31-15.81,9.39,9.39,0,0,1,3.92-1.24,9.27,9.27,0,1,1-4.23,17Z"/><path class="cls-2" d="M28.81,6.75l4.39-3.9a2.11,2.11,0,0,1,2.55-.19l6,3.91a2.09,2.09,0,0,1,.87,2.35l-1.69,5.72"/><path class="cls-3" d="M14.54,9.66l.29-5.87a2.09,2.09,0,0,1,1.65-1.95l7-1.52a2.1,2.1,0,0,1,2.29,1l2.9,5.22"/><path class="cls-4" d="M6.58,22.05l-4-4.28a2.11,2.11,0,0,1-.26-2.55L6,9.16a2.1,2.1,0,0,1,2.33-.93l5.91,1.56"/><path class="cls-5" d="M6.54,22.52,1.36,25.38a2.12,2.12,0,0,0-1,2.34L2,34.64A2.12,2.12,0,0,0,4,36.24l6,.32"/><path class="cls-6" d="M22.16,43.8l-5.05,4.85a2.12,2.12,0,0,1-2.54.29L9,45.6a2.11,2.11,0,0,1-1-2.33l1.75-6.9"/><path class="cls-6" d="M22.1,43.79l3,5.76a2.11,2.11,0,0,0,2.31,1.08l6.61-1.46a2.1,2.1,0,0,0,1.64-1.91l.48-6.62"/><path class="cls-7" d="M43.9,28.81l4.59,5a2.11,2.11,0,0,1,.2,2.59L45.08,41.8a2.1,2.1,0,0,1-2.31.86L36,40.79"/><path class="cls-8" d="M40.91,14.94l6.33.44A2.1,2.1,0,0,1,49.15,17l1.5,6.64A2.1,2.1,0,0,1,49.59,26L43.84,29"/><polygon class="cls-9" points="29 6.96 28.88 6.65 28.11 6.19 28.5 6.88 29 6.96"/><polygon class="cls-10" points="40.89 15.21 40.57 14.75 40.63 14.56 40.81 14.56 41.02 14.66 41.14 15.03 40.89 15.21"/><polygon class="cls-11" points="43.68 28.97 43.71 28.78 43.81 28.8 43.78 28.99 43.7 29 43.68 28.97"/><polygon class="cls-12" points="35.96 40.69 36.14 40.55 36.05 40.53 35.91 40.62 35.96 40.69"/><polygon class="cls-13" points="22.31 43.88 21.81 43.75 21.97 43.6 22.34 43.66 22.31 43.88"/><polygon class="cls-14" points="9.95 36.51 9.82 36.28 9.95 36.28 10.05 36.44 9.95 36.51"/><polygon class="cls-15" points="6.29 22.69 6.51 21.58 6.86 21.94 6.68 22.76 6.29 22.69"/><polygon class="cls-16" points="14.81 9.67 14.27 10.07 13.95 9.99 14.6 9.38 14.81 9.67"/><circle class="cls-17" cx="25.22" cy="25.51" r="6.51"/></g></g></svg>