<svg xmlns="http://www.w3.org/2000/svg" xmlns:xlink="http://www.w3.org/1999/xlink" viewBox="0 0 38.85 50.46"><defs><style>.cls-1{fill:url(#Unbenannter_Verlauf_170);}.cls-2{fill:url(#Unbenannter_Verlauf_174);}.cls-3{fill:url(#Unbenannter_Verlauf_163);}</style><linearGradient id="Unbenannter_Verlauf_170" x1="21.99" y1="32.74" x2="21.99" y2="37.31" gradientUnits="userSpaceOnUse"><stop offset="0" stop-color="#f8f1ca"/><stop offset="0.52" stop-color="#e9e0b6"/></linearGradient><linearGradient id="Unbenannter_Verlauf_174" x1="19.42" y1="36.04" x2="19.42" y2="50.46" gradientUnits="userSpaceOnUse"><stop offset="0" stop-color="#e9e0b6"/><stop offset="0.45" stop-color="#e6dcb1"/></linearGradient><linearGradient id="Unbenannter_Verlauf_163" x1="18.84" x2="18.84" y2="30.96" gradientUnits="userSpaceOnUse"><stop offset="0" stop-color="#f8f2d6"/><stop offset="0.3" stop-color="#f8f1ca"/><stop offset="0.91" stop-color="#e9e0b6"/></linearGradient></defs><title>Main_Menu_Icon_Controls</title><g id="Ebene_2" data-name="Ebene 2"><g id="L_Controls" data-name="L Controls"><rect class="cls-1" x="10.2" y="32.74" width="23.57" height="4.57" rx="2.29"/><path class="cls-2" d="M36.24,39.69H6.86V37A.92.92,0,0,0,5.94,36H4.27a.92.92,0,0,0-.92.91v2.74H2.61A2.61,2.61,0,0,0,0,42.3v8.16H38.85V42.3A2.61,2.61,0,0,0,36.24,39.69Z"/><path class="cls-3" d="M28.58,26.8H24.34L18.28,12.62a7.15,7.15,0,1,0-4.62,1.69h.13l5.34,12.5H15.39a2.59,2.59,0,0,0-2.59,2.59V31H31.17V29.39A2.59,2.59,0,0,0,28.58,26.8ZM11.87,2.58a.67.67,0,0,1-.4.6A3.68,3.68,0,0,0,9.35,6.35a.65.65,0,0,1-.64.59A.71.71,0,0,1,8,6.17,4.85,4.85,0,0,1,11,2a.65.65,0,0,1,.91.6Z"/></g></g></svg>