<svg xmlns="http://www.w3.org/2000/svg" xmlns:xlink="http://www.w3.org/1999/xlink" viewBox="0 0 49.82 56.33"><defs><style>.cls-1{fill:url(#Unbenannter_Verlauf_193);}.cls-2{fill:url(#Unbenannter_Verlauf_193-2);}.cls-3{fill:url(#Unbenannter_Verlauf_193-3);}.cls-4{fill:url(#Unbenannter_Verlauf_193-4);}.cls-5{fill:url(#Unbenannter_Verlauf_193-5);}</style><linearGradient id="Unbenannter_Verlauf_193" x1="89.48" y1="3.27" x2="89.48" y2="19.82" gradientTransform="matrix(-1, 0, 0, 1, 113.39, 0)" gradientUnits="userSpaceOnUse"><stop offset="0.01" stop-color="#f8f2d6"/><stop offset="0.32" stop-color="#f8f1ca"/><stop offset="0.62" stop-color="#e9e0b6"/><stop offset="0.91" stop-color="#e6dcb1"/></linearGradient><linearGradient id="Unbenannter_Verlauf_193-2" x1="89.48" y1="36.52" x2="89.48" y2="53.15" xlink:href="#Unbenannter_Verlauf_193"/><linearGradient id="Unbenannter_Verlauf_193-3" x1="110.93" y1="3.27" x2="110.93" y2="53.07" xlink:href="#Unbenannter_Verlauf_193"/><linearGradient id="Unbenannter_Verlauf_193-4" x1="77.98" y1="16.02" x2="77.98" y2="40.32" xlink:href="#Unbenannter_Verlauf_193"/><linearGradient id="Unbenannter_Verlauf_193-5" x1="102.67" y1="0" x2="102.67" y2="56.33" xlink:href="#Unbenannter_Verlauf_193"/></defs><title>Main_Menu_Icon_Quit_Game</title><g id="Ebene_2" data-name="Ebene 2"><g id="L_Quit_Game" data-name="L Quit Game"><path class="cls-1" d="M20.21,3.27H27a.65.65,0,0,1,.66.66V19.82H25.68v-14A.65.65,0,0,0,25,5.2H20.21Z"/><path class="cls-2" d="M20.21,53.15h6.32a1.09,1.09,0,0,0,1.08-1.08V36.52H25.68V49.89A1.09,1.09,0,0,1,24.6,51H20.21Z"/><path class="cls-3" d="M4.92,3.27H.73A.73.73,0,0,0,0,4V52.33a.73.73,0,0,0,.73.73h4l-2.15-.76a1,1,0,0,1-.64-.91V4.84a1,1,0,0,1,.7-.93Z"/><path class="cls-4" d="M21,22.77V33.56a.29.29,0,0,0,.3.3h11a.31.31,0,0,1,.3.3V40a.3.3,0,0,0,.47.24L49.69,28.41a.3.3,0,0,0,0-.49L33.09,16.08a.3.3,0,0,0-.47.24v5.85a.31.31,0,0,1-.3.3h-11A.29.29,0,0,0,21,22.77Z"/><path class="cls-5" d="M3.43,51a.23.23,0,0,0,.15.22l14.13,5.09a.22.22,0,0,0,.3-.21V.23a.23.23,0,0,0-.3-.22L3.63,5.11a.23.23,0,0,0-.15.21ZM14.09,25.55a.91.91,0,0,1,.85-1l.19,0a1,1,0,0,1,.8-.67c.54,0,1,.72,1,1.61s-.44,1.61-1,1.61a1,1,0,0,1-.8-.67.58.58,0,0,1-.19,0A.91.91,0,0,1,14.09,25.55Z"/></g></g></svg>