<svg xmlns="http://www.w3.org/2000/svg" xmlns:xlink="http://www.w3.org/1999/xlink" viewBox="0 0 53.11 42.72"><defs><style>.cls-1{fill:url(#Unbenannter_Verlauf_183);}.cls-2{fill:url(#Unbenannter_Verlauf_181);}.cls-3{fill:url(#Unbenannter_Verlauf_182);}</style><linearGradient id="Unbenannter_Verlauf_183" x1="10.46" x2="10.46" y2="41.65" gradientUnits="userSpaceOnUse"><stop offset="0.01" stop-color="#f8f2d6"/><stop offset="0.35" stop-color="#f8f1ca"/><stop offset="0.65" stop-color="#e9e0b6"/><stop offset="0.91" stop-color="#e6dcb1"/></linearGradient><linearGradient id="Unbenannter_Verlauf_181" x1="42.65" x2="42.65" y2="41.46" gradientUnits="userSpaceOnUse"><stop offset="0.01" stop-color="#f8f2d6"/><stop offset="0.32" stop-color="#f8f1ca"/><stop offset="0.62" stop-color="#e9e0b6"/><stop offset="0.91" stop-color="#e6dcb1"/></linearGradient><linearGradient id="Unbenannter_Verlauf_182" x1="26.61" y1="4.79" x2="26.61" y2="42.72" gradientUnits="userSpaceOnUse"><stop offset="0.01" stop-color="#f8f2d6"/><stop offset="0.28" stop-color="#f8f1ca"/><stop offset="0.56" stop-color="#e9e0b6"/><stop offset="0.91" stop-color="#e6dcb1"/></linearGradient></defs><title>Main_Menu_Icon_Credits</title><g id="Ebene_2" data-name="Ebene 2"><g id="L_Credits" data-name="L Credits"><path class="cls-1" d="M8.94,41.65a21.36,21.36,0,0,1-.73-6,19.2,19.2,0,0,1,7.41-15.36A12.23,12.23,0,0,1,20.93,3.89,8,8,0,1,0,10,14.86C3.94,16.66,0,22.48,0,29.38A15.76,15.76,0,0,0,3.92,40.05C5.34,40.58,7,41.14,8.94,41.65Z"/><path class="cls-2" d="M38.81,14.76a12.3,12.3,0,0,1-1.32,5.55A19.2,19.2,0,0,1,44.9,35.67a21.57,21.57,0,0,1-.68,5.79c1.6-.38,3.23-.83,4.9-1.33a15.77,15.77,0,0,0,4-10.75c0-6.9-3.94-12.72-10-14.52a8,8,0,1,0-10.9-11A12.22,12.22,0,0,1,38.81,14.76Z"/><path class="cls-3" d="M13.75,42.72a16.67,16.67,0,0,1-1.33-6.61c0-6.14,3-11.37,7.94-13.7a9.87,9.87,0,0,0,12.3,0c5,2.35,8.18,7.57,8.18,13.7a16.39,16.39,0,0,1-1.26,6.35c.7-.13,1.41-.28,2.13-.43a18.45,18.45,0,0,0,.94-5.86c0-6.64-3.29-12.34-8.58-15.14a9.88,9.88,0,1,0-15.14,0c-5.23,2.78-8.35,8.49-8.35,15.16a19.14,19.14,0,0,0,1,6.12C12.26,42.44,13,42.59,13.75,42.72ZM18.51,14.8a8,8,0,1,1,8,8A8,8,0,0,1,18.51,14.8Z"/></g></g></svg>