<svg xmlns="http://www.w3.org/2000/svg" xmlns:xlink="http://www.w3.org/1999/xlink" viewBox="0 0 420.76 81"><defs><style>.cls-1{stroke-miterlimit:10;stroke-width:1px;fill:url(#Unbenannter_Verlauf_132);stroke:url(#Unbenannter_Verlauf_94);}.cls-2{fill:url(#Unbenannter_Verlauf_160);}.cls-3{fill:url(#Unbenannter_Verlauf_160-2);}.cls-4{fill:url(#Unbenannter_Verlauf_162);}.cls-5{fill:url(#Unbenannter_Verlauf_162-2);}</style><linearGradient id="Unbenannter_Verlauf_132" x1="0.5" y1="40.5" x2="420.26" y2="40.5" gradientUnits="userSpaceOnUse"><stop offset="0" stop-color="#e5d17d"/><stop offset="0.02" stop-color="#eed85f"/><stop offset="0.05" stop-color="#efc83b"/><stop offset="0.16" stop-color="#ecbe3a"/><stop offset="0.27" stop-color="#dfa938"/><stop offset="0.5" stop-color="#d39436"/><stop offset="0.63" stop-color="#d29934"/><stop offset="0.86" stop-color="#d19f31"/><stop offset="0.95" stop-color="#edcb3e"/><stop offset="0.97" stop-color="#f5e454"/><stop offset="0.99" stop-color="#ffea89"/></linearGradient><linearGradient id="Unbenannter_Verlauf_94" y1="40.5" x2="420.76" y2="40.5" gradientUnits="userSpaceOnUse"><stop offset="0.04" stop-color="#e5dbae"/><stop offset="0.24" stop-color="#d3caa3"/><stop offset="0.5" stop-color="#cfc59f"/><stop offset="0.66" stop-color="#d9cfa6"/><stop offset="0.86" stop-color="#e5dbae"/><stop offset="1" stop-color="#e5dbae"/></linearGradient><linearGradient id="Unbenannter_Verlauf_160" x1="210.38" y1="22.91" x2="210.38" y2="0.5" gradientUnits="userSpaceOnUse"><stop offset="0.07" stop-color="#483320" stop-opacity="0"/><stop offset="0.21" stop-color="#483320" stop-opacity="0.05"/><stop offset="0.42" stop-color="#483320" stop-opacity="0.2"/><stop offset="0.86" stop-color="#483320" stop-opacity="0.6"/></linearGradient><linearGradient id="Unbenannter_Verlauf_160-2" x1="210.38" y1="-35.09" x2="210.38" y2="-57.5" gradientTransform="matrix(1, 0, 0, -1, 0, 23.41)" xlink:href="#Unbenannter_Verlauf_160"/><linearGradient id="Unbenannter_Verlauf_162" x1="208.87" y1="-206.08" x2="208.87" y2="-228.49" gradientTransform="matrix(0, 1, 1, 0, 228.99, -168.36)" gradientUnits="userSpaceOnUse"><stop offset="0" stop-color="#7c5327" stop-opacity="0"/><stop offset="0.17" stop-color="#7c5327" stop-opacity="0.05"/><stop offset="0.38" stop-color="#7c5226" stop-opacity="0.2"/><stop offset="0.9" stop-color="#7c5327" stop-opacity="0.6"/></linearGradient><linearGradient id="Unbenannter_Verlauf_162-2" x1="208.87" y1="-603.44" x2="208.87" y2="-625.85" gradientTransform="translate(-205.58 -168.36) rotate(90)" xlink:href="#Unbenannter_Verlauf_162"/></defs><title>Main_Menu_Separat_Button_Hover</title><g id="Ebene_2" data-name="Ebene 2"><g id="L_Start" data-name="L Start"><polygon class="cls-1" points="0.5 0.5 420.26 0.5 420.26 28.33 405.53 39.62 420.26 52.46 420.26 80.5 0.5 80.5 0.5 52.46 15.2 40.5 0.5 28.33 0.5 0.5"/><polygon class="cls-2" points="420.26 22.91 231.93 22.91 0.5 22.91 0.5 0.5 420.26 0.5 420.26 22.91"/><polygon class="cls-3" points="420.26 58.5 231.93 58.5 0.5 58.5 0.5 80.91 420.26 80.91 420.26 58.5"/><polygon class="cls-4" points="22.91 80.5 22.91 63.57 22.91 0.5 0.5 0.5 0.5 28.33 15.2 40.5 0.5 52.46 0.5 80.5 22.91 80.5"/><polygon class="cls-5" points="397.86 80.5 397.86 63.57 397.86 0.5 420.26 0.5 420.26 28.33 404.86 39.92 420.26 52.46 420.26 80.5 397.86 80.5"/></g></g></svg>