<svg xmlns="http://www.w3.org/2000/svg" xmlns:xlink="http://www.w3.org/1999/xlink" viewBox="0 0 426.44 85"><defs><style>.cls-1{fill:url(#Unbenannter_Verlauf_237);}.cls-2{fill:url(#Unbenannter_Verlauf_237-2);}.cls-3{fill:url(#Unbenannter_Verlauf_28);}</style><linearGradient id="Unbenannter_Verlauf_237" x1="1965.21" y1="665.85" x2="1949.56" y2="665.85" gradientTransform="translate(-244.42 1998.45) rotate(-90)" gradientUnits="userSpaceOnUse"><stop offset="0" stop-color="#f8f2d6"/><stop offset="0.44" stop-color="#f8f1ca"/><stop offset="1" stop-color="#e6dcb1"/><stop offset="1" stop-color="#e9e0b6"/></linearGradient><linearGradient id="Unbenannter_Verlauf_237-2" x1="1949.56" y1="671.6" x2="1965.21" y2="671.6" gradientTransform="translate(676.61 -1915.58) rotate(90)" xlink:href="#Unbenannter_Verlauf_237"/><linearGradient id="Unbenannter_Verlauf_28" x1="213.22" x2="213.22" y2="85" gradientUnits="userSpaceOnUse"><stop offset="0" stop-color="#f8f2d6"/><stop offset="0.29" stop-color="#f8f1ca"/><stop offset="0.65" stop-color="#e9e0b6"/><stop offset="0.91" stop-color="#e6dcb1"/></linearGradient></defs><title>Main_Menu_Button_Rahmen</title><g id="Ebene_2" data-name="Ebene 2"><g id="L_Start" data-name="L Start"><g id="Start_left" data-name="Start left"><polygon class="cls-1" points="416.42 41.07 426.44 48.89 426.44 33.25 416.42 41.07"/><polygon class="cls-2" points="10.02 41.81 0 33.98 0 49.63 10.02 41.81"/><path class="cls-3" d="M421.09,0H0V30.63H0L14.68,41.82,0,53.47H0V85H426.44V52.24h0L411.76,41.05l14.66-11.64h0V0ZM404.47,41.44l16.62,13V79.65H221.17l-22.83,0v0H5.36V54.41L22,41.44l-16.61-13V5.36h193v0l22.83,0H421.09V28.47Z"/></g></g></g></svg>