<svg xmlns="http://www.w3.org/2000/svg" xmlns:xlink="http://www.w3.org/1999/xlink" viewBox="0 0 172.79 129.17"><defs><style>.cls-1{stroke:#150f09;stroke-miterlimit:10;fill:url(#Unbenannter_Verlauf_106);}.cls-2{fill:url(#Unbenannter_Verlauf_34);}.cls-3{fill:url(#Unbenannter_Verlauf_35);}.cls-4{fill:url(#Unbenannter_Verlauf_36);}.cls-5{fill:url(#Unbenannter_Verlauf_38);}.cls-6{fill:url(#Unbenannter_Verlauf_8);}.cls-7{fill:url(#Unbenannter_Verlauf_8-2);}</style><radialGradient id="Unbenannter_Verlauf_106" cx="86.4" cy="64.59" r="75.78" gradientUnits="userSpaceOnUse"><stop offset="0.04" stop-color="#886a42"/><stop offset="0.24" stop-color="#7c613f"/><stop offset="0.5" stop-color="#705837"/><stop offset="0.86" stop-color="#514025"/><stop offset="1" stop-color="#483a21"/></radialGradient><linearGradient id="Unbenannter_Verlauf_34" x1="75.06" y1="8.3" x2="80.33" y2="132.12" gradientUnits="userSpaceOnUse"><stop offset="0.2" stop-color="#d6cd9b"/><stop offset="0.49" stop-color="#d8c88b"/><stop offset="0.71" stop-color="#b8a877"/><stop offset="0.91" stop-color="#7c705b"/></linearGradient><linearGradient id="Unbenannter_Verlauf_35" x1="103.46" y1="25.34" x2="103.47" y2="65.55" gradientUnits="userSpaceOnUse"><stop offset="0.07" stop-color="#d6cd9b"/><stop offset="0.47" stop-color="#d8c88b"/><stop offset="0.75" stop-color="#b8a877"/><stop offset="1" stop-color="#7c705b"/></linearGradient><linearGradient id="Unbenannter_Verlauf_36" x1="38.01" y1="89.28" x2="70.82" y2="89.28" gradientUnits="userSpaceOnUse"><stop offset="0.05" stop-color="#d6cd9b"/><stop offset="0.47" stop-color="#d8c88b"/><stop offset="0.93" stop-color="#b8a877"/></linearGradient><linearGradient id="Unbenannter_Verlauf_38" x1="45.6" y1="110.63" x2="79.71" y2="110.63" gradientUnits="userSpaceOnUse"><stop offset="0.05" stop-color="#d6cd9b"/><stop offset="0.32" stop-color="#d8c88b"/><stop offset="0.67" stop-color="#b8a877"/></linearGradient><linearGradient id="Unbenannter_Verlauf_8" x1="81.82" y1="89.28" x2="93.37" y2="89.28" gradientUnits="userSpaceOnUse"><stop offset="0.05" stop-color="#d6cd9b"/><stop offset="0.32" stop-color="#d8c88b"/><stop offset="0.67" stop-color="#b8a877"/><stop offset="0.91" stop-color="#7c705b"/></linearGradient><linearGradient id="Unbenannter_Verlauf_8-2" x1="83.57" y1="100.1" x2="127.61" y2="100.1" xlink:href="#Unbenannter_Verlauf_8"/></defs><title>Element 37</title><g id="Ebene_2" data-name="Ebene 2"><g id="Flagge"><g id="Rahmen_0_Kopie_3_Kopie_Kopie" data-name="Rahmen 0 Kopie 3 Kopie Kopie"><path class="cls-1" d="M128.54,128.67H89.2c-.16-.07-.31-.22-.46-.22-.86,0-1.65-.39-2.52-.34a1.5,1.5,0,0,0-1.28.56H.5V120.9c.22-1.06.44-2.13.65-3.2a1.29,1.29,0,0,0-.65-1.43V88.08c.88-.8,2-1.34,2.6-2.49L.5,84.7V62.52a2.51,2.51,0,0,0,.26-.67c.1-1,.15-2.07.25-3.11a1,1,0,0,0-.51-1.1V32.07C.74,32,1.85,31,2.26,30.8A18.51,18.51,0,0,0,.5,30.2v-4c.33-.31,1.54-.63,1.9-1C2,24.79.82,23.91.5,23.54V14.92A4.65,4.65,0,0,0,.76,13.8c0-2.06-.09-3.6-.12-5.66a7.08,7.08,0,0,1,.76-1.6,4.21,4.21,0,0,0,.23-2.73C1.57,3.55,1,3.16.75,2.94.75,2.06.5,1.39.5.51l.75,0H25.12a1.75,1.75,0,0,1,1.46.5,1.23,1.23,0,0,0,1.85.21A5.33,5.33,0,0,1,31.64.51c7,0,14,0,21,0,1.8,0,3.59,0,5.39,0,.2,0,.47,0,.59.09.47.43.92.25,1.4.06.2-.08.48-.21.64-.14,1,.46,2,0,3,0C74.48.5,85.3.52,96.12.53A3.53,3.53,0,0,1,97,.71c.8.23,1.59.48,2.39.7.37.1.76.16,1.08.22a8.43,8.43,0,0,1,1.16-.27,11.43,11.43,0,0,0,3.8-.63,2.43,2.43,0,0,1,1-.2h22.49c.43,0,.7.06.78.55,0,.29.17,3,.32,3.42.13-.33.83-3,.86-3.21.09-.72.05-.78.75-.77,13.32,0,26.53,0,39.85,0h.85c0,.41,0,.76-.05,1.11-.17,2.14-.43,4.28-.47,6.42a36.65,36.65,0,0,0,.41,4.66,3.18,3.18,0,0,1-.4,2.68,6,6,0,0,0-.7.8.58.58,0,0,0,.29.91,1.93,1.93,0,0,1,.94,1.52c0,7.54,0,14.73,0,22.27,0,1-.2,2-.11,3a9.31,9.31,0,0,1-1,4.15.78.78,0,0,0,0,.5,13.51,13.51,0,0,1,.85,1.82,34.29,34.29,0,0,1,.24,3.5c0,2.42-.05,4.83,0,7.24a45.65,45.65,0,0,0,0,5.1,11.37,11.37,0,0,1-.42,4.4,5.27,5.27,0,0,0,.07,1.89,15.5,15.5,0,0,1,.36,1.61c0,1.29-.16,2.58-.16,3.86s.17,2.45.17,3.68q0,22.2,0,44.41c0,.88,0,1.76,0,2.63H153.34l-.62-1-.76,1h-7.64c-.27-.15-.53-.42-.81-.44a22.78,22.78,0,0,0-2.74,0,5.09,5.09,0,0,0-1.21.41h-3.88c-.1-.09-.19-.23-.3-.25-.94-.17-1.87-.31-2.81-.45-.51-.08-1-.1-1.54-.18A2.68,2.68,0,0,0,128.54,128.67Z"/></g><path class="cls-2" d="M78.06,14.22l-.45-.07H76.55l-.36.06a2.38,2.38,0,0,0-1.9,1.14,2.35,2.35,0,0,0-.35,1.24V97.31a1.9,1.9,0,0,0,1.89,1.9h2.59a1.9,1.9,0,0,0,1.89-1.9V16.6A2.35,2.35,0,0,0,80,15.36,2.38,2.38,0,0,0,78.06,14.22Z"/><path class="cls-3" d="M97,55.81c9.83,4.35,22.55,10.65,26.57,8.7V31.8a43,43,0,0,1-11.71-2.22,43.09,43.09,0,0,1-5.39-2c-4.41-2-9-7.54-23.1-7.13l.28,32.7C86.82,53.38,91.22,53.26,97,55.81Z"/><polygon class="cls-4" points="47.71 88.85 54.42 89.85 55.83 90.57 57.12 91.99 58.12 92.7 67.67 93.99 69.52 96.55 70.82 96.55 70.82 93.99 70.5 92.7 58.12 91.14 56.42 89 48.85 87.43 44.14 85.15 44.14 84.01 42.01 82.01 38.01 82.01 39.44 83.15 42.15 83.58 42.86 84.15 42.58 85.15 47.71 88.85"/><polygon class="cls-5" points="77.61 101.51 75.72 102.09 74.53 101.51 65.43 110.06 62.71 110.01 56.67 114.85 51.92 117.02 51.04 116.3 48.14 116.67 45.6 119.75 47.38 119.38 49.44 117.56 50.33 117.38 50.92 118.23 57.05 116.64 62.09 112.1 63.55 111.47 65.46 111.38 66.64 111.06 73.71 104.52 79.71 104.74 78.07 103.02 77.61 101.51"/><polygon class="cls-6" points="84.39 92.11 88.22 87.99 86.2 86.7 86.73 85.98 91.96 85.98 93.04 84.99 93.37 84.59 90.81 85.29 86.2 84.99 84.7 86.13 86.62 87.99 81.82 92.11 82.5 93.97 85.34 93.19 84.39 92.11"/><polygon class="cls-7" points="122.71 101.34 117.26 99.43 110.66 99.64 105.51 98.2 100.81 100.32 96.91 98.58 93.43 99.16 84.24 97.99 83.58 99.59 93 101.03 96.69 99.7 100.65 101.7 106.47 99.91 111.13 101.7 115.78 100.55 118.98 101.25 122.64 102.08 127.61 102.22 122.71 101.34"/></g></g></svg>