<svg xmlns="http://www.w3.org/2000/svg" xmlns:xlink="http://www.w3.org/1999/xlink" viewBox="0 0 23.39 14.54"><defs><style>.cls-1{fill:url(#Unbenannter_Verlauf_237);}.cls-2{fill:url(#Unbenannter_Verlauf_28);}.cls-3{fill:url(#Unbenannter_Verlauf_237-2);}.cls-4{fill:url(#Unbenannter_Verlauf_28-2);}</style><linearGradient id="Unbenannter_Verlauf_237" x1="576.05" y1="-998.47" x2="582.75" y2="-998.47" gradientTransform="matrix(0, 1, 1, 0, 1006.36, -572.1)" gradientUnits="userSpaceOnUse"><stop offset="0" stop-color="#f8f2d6"/><stop offset="0.44" stop-color="#f8f1ca"/><stop offset="1" stop-color="#e6dcb1"/><stop offset="1" stop-color="#e9e0b6"/></linearGradient><linearGradient id="Unbenannter_Verlauf_28" x1="65.43" x2="65.43" y2="14.54" gradientTransform="matrix(-1, 0, 0, 1, 70.54, 0)" gradientUnits="userSpaceOnUse"><stop offset="0" stop-color="#f8f2d6"/><stop offset="0.29" stop-color="#f8f1ca"/><stop offset="0.65" stop-color="#e9e0b6"/><stop offset="0.91" stop-color="#e6dcb1"/></linearGradient><linearGradient id="Unbenannter_Verlauf_237-2" x1="576.05" y1="-951.33" x2="582.75" y2="-951.33" gradientTransform="translate(-935.82 -572.1) rotate(90)" xlink:href="#Unbenannter_Verlauf_237"/><linearGradient id="Unbenannter_Verlauf_28-2" x1="18.29" y1="0" x2="18.29" y2="14.54" gradientTransform="matrix(1, 0, 0, 1, 0, 0)" xlink:href="#Unbenannter_Verlauf_28"/></defs><title>Main_Menu_Separat_Regler_Knauf_Icon</title><g id="Ebene_2" data-name="Ebene 2"><g id="Options"><g id="DISPLAY"><g id="Res_Regler" data-name="Res Regler"><g id="Field"><polygon class="cls-1" points="5.56 7.3 10.21 3.96 10.21 10.65 5.56 7.3"/><polygon class="cls-2" points="7.72 12.69 7.72 12.69 0 7.14 10.21 0 10.21 2.52 10.21 2.52 3.39 7.31 10.2 12.29 10.21 12.29 10.21 14.54 7.72 12.69"/></g><polygon class="cls-3" points="17.84 7.3 13.18 3.96 13.18 10.65 17.84 7.3"/><polygon class="cls-4" points="15.67 12.69 15.67 12.69 23.39 7.14 13.18 0 13.18 2.52 13.18 2.52 20 7.31 13.19 12.29 13.18 12.29 13.18 14.54 15.67 12.69"/></g></g></g></g></svg>