<svg xmlns="http://www.w3.org/2000/svg" xmlns:xlink="http://www.w3.org/1999/xlink" viewBox="0 0 132.96 85"><defs><style>.cls-1{opacity:0.4;}.cls-2,.cls-4{fill:none;}.cls-3{opacity:0.73;}.cls-4{stroke:#e6dcb1;stroke-miterlimit:10;}.cls-5{fill:url(#Unbenannter_Verlauf_237);}.cls-6{fill:url(#Unbenannter_Verlauf_28);}.cls-7{fill:url(#Unbenannter_Verlauf_28-2);}</style><linearGradient id="Unbenannter_Verlauf_237" x1="1469.05" y1="-298.83" x2="1484.7" y2="-298.83" gradientTransform="translate(-293.82 -1435.07) rotate(90)" gradientUnits="userSpaceOnUse"><stop offset="0" stop-color="#f8f2d6"/><stop offset="0.44" stop-color="#f8f1ca"/><stop offset="1" stop-color="#e6dcb1"/><stop offset="1" stop-color="#e9e0b6"/></linearGradient><linearGradient id="Unbenannter_Verlauf_28" x1="130.28" x2="130.28" y2="85" gradientUnits="userSpaceOnUse"><stop offset="0" stop-color="#f8f2d6"/><stop offset="0.29" stop-color="#f8f1ca"/><stop offset="0.65" stop-color="#e9e0b6"/><stop offset="0.91" stop-color="#e6dcb1"/></linearGradient><linearGradient id="Unbenannter_Verlauf_28-2" x1="65.9" x2="65.9" y2="85" xlink:href="#Unbenannter_Verlauf_28"/></defs><title>Main_Menu_Eingabefeld_IP_Port_Rechts</title><g id="Ebene_2" data-name="Ebene 2"><g id="Start"><g id="IP_Field" data-name="IP Field"><polygon class="cls-1" points="3.15 82.59 130.72 82.59 130.72 2.14 3.54 2.14 3.41 28.85 18 41.81 3.29 52.08 3.15 82.59"/><line class="cls-2" x1="22.05" y1="11.25" x2="22.05" y2="74.36"/><line class="cls-2" x1="122.94" y1="74.36" x2="122.94" y2="11.25"/><polygon class="cls-3" points="120.7 74.36 11.37 74.36 11.37 47.38 18 41.42 11.37 36.53 11.37 11.25 120.7 11.25 120.7 74.36"/><polygon class="cls-4" points="121.02 74.36 11.37 74.36 11.37 47.66 18.53 41.81 11.37 35.19 11.37 11.25 121.02 11.25 121.02 74.36"/></g><polygon class="cls-5" points="10.02 41.81 0 33.98 0 49.63 10.02 41.81"/><polygon class="cls-6" points="132.96 0 127.6 0 127.6 85 132.96 85 132.96 52.24 132.96 52.24 132.94 29.41 132.96 29.41 132.96 0"/><polygon class="cls-7" points="5.36 79.65 5.36 54.41 21.97 41.44 5.36 28.47 5.36 5.36 131.69 5.36 131.78 0 0 0 0 30.63 0 30.63 14.68 41.82 0.03 53.47 0 53.47 0 85 131.78 85 131.81 79.65 5.36 79.65"/></g></g></svg>