<svg xmlns="http://www.w3.org/2000/svg" xmlns:xlink="http://www.w3.org/1999/xlink" viewBox="0 0 656.3 85"><defs><style>.cls-1{opacity:0.4;}.cls-2{fill:url(#Unbenannter_Verlauf_28);}.cls-3{opacity:0.73;}.cls-4{fill:none;stroke:#e6dcb1;stroke-miterlimit:10;}.cls-5{fill:url(#Unbenannter_Verlauf_237);}</style><linearGradient id="Unbenannter_Verlauf_28" x1="328.15" x2="328.15" y2="85" gradientUnits="userSpaceOnUse"><stop offset="0" stop-color="#f8f2d6"/><stop offset="0.29" stop-color="#f8f1ca"/><stop offset="0.65" stop-color="#e9e0b6"/><stop offset="0.91" stop-color="#e6dcb1"/></linearGradient><linearGradient id="Unbenannter_Verlauf_237" x1="1368.01" y1="-80.44" x2="1383.66" y2="-80.44" gradientTransform="translate(41.93 -1334.03) rotate(90)" gradientUnits="userSpaceOnUse"><stop offset="0" stop-color="#f8f2d6"/><stop offset="0.44" stop-color="#f8f1ca"/><stop offset="1" stop-color="#e6dcb1"/><stop offset="1" stop-color="#e9e0b6"/></linearGradient></defs><title>Main_Menu_Eingabefeld_IP_Port</title><g id="Ebene_2" data-name="Ebene 2"><g id="Start"><g id="IP_Field" data-name="IP Field"><polygon class="cls-1" points="120.84 2.14 652.96 2.14 652.96 82.59 120.16 82.59 120.41 53.8 135.36 41.42 120.61 29.03 120.84 2.14"/><path class="cls-2" d="M656.3,0H0V30.63H0L0,53.47H0V85H656.3V52.24h0l0-22.83h0ZM117.36,53.47V79.65H5.36V5.36h112V30.63h0L132,41.82,117.38,53.47ZM650.94,79.65H360.5l-22.83,0v0h-215V54.41l16.62-13-16.62-13V5.36h215v0l22.83,0H650.94Z"/><polygon class="cls-3" points="645.7 74.36 128.72 74.36 128.72 47.38 135.36 41.42 128.72 36.53 128.72 11.25 645.7 11.25 645.7 74.36"/><polygon class="cls-4" points="645.7 74.36 128.72 74.36 128.72 47.66 135.89 41.81 128.72 35.19 128.72 11.25 645.7 11.25 645.7 74.36"/><polygon class="cls-5" points="127.38 41.81 117.36 33.98 117.36 49.63 127.38 41.81"/></g></g></g></svg>