<svg xmlns="http://www.w3.org/2000/svg" xmlns:xlink="http://www.w3.org/1999/xlink" viewBox="0 0 262.4 45.31"><defs><style>.cls-1{fill:url(#Unbenannter_Verlauf_349);}.cls-2{fill:url(#Unbenannter_Verlauf_349-2);}.cls-3{fill:url(#Unbenannter_Verlauf_349-3);}.cls-4{fill:url(#Unbenannter_Verlauf_349-4);}.cls-5{fill:url(#Unbenannter_Verlauf_349-5);}.cls-6{fill:url(#Unbenannter_Verlauf_349-6);}.cls-7{fill:url(#Unbenannter_Verlauf_349-7);}.cls-8{fill:url(#Unbenannter_Verlauf_349-8);}.cls-9{fill:url(#Unbenannter_Verlauf_349-9);}</style><linearGradient id="Unbenannter_Verlauf_349" x1="12.92" x2="12.92" y2="45.31" gradientUnits="userSpaceOnUse"><stop offset="0.07" stop-color="#f8f2d6"/><stop offset="0.28" stop-color="#f8f1ca"/><stop offset="0.6" stop-color="#e9e0b6"/><stop offset="1" stop-color="#e6dcb1"/></linearGradient><linearGradient id="Unbenannter_Verlauf_349-2" x1="39.8" y1="0.91" x2="39.8" y2="44.39" xlink:href="#Unbenannter_Verlauf_349"/><linearGradient id="Unbenannter_Verlauf_349-3" x1="64.25" y1="0.91" x2="64.25" y2="44.39" xlink:href="#Unbenannter_Verlauf_349"/><linearGradient id="Unbenannter_Verlauf_349-4" x1="93.08" y1="0.91" x2="93.08" y2="44.39" xlink:href="#Unbenannter_Verlauf_349"/><linearGradient id="Unbenannter_Verlauf_349-5" x1="120.5" y1="0.91" x2="120.5" y2="44.39" xlink:href="#Unbenannter_Verlauf_349"/><linearGradient id="Unbenannter_Verlauf_349-6" x1="157.94" x2="157.94" y2="45.31" xlink:href="#Unbenannter_Verlauf_349"/><linearGradient id="Unbenannter_Verlauf_349-7" x1="187.17" y1="0.91" x2="187.17" y2="44.39" xlink:href="#Unbenannter_Verlauf_349"/><linearGradient id="Unbenannter_Verlauf_349-8" x1="220.82" y1="0.91" x2="220.82" y2="44.39" xlink:href="#Unbenannter_Verlauf_349"/><linearGradient id="Unbenannter_Verlauf_349-9" x1="252.6" y1="0.91" x2="252.6" y2="44.39" xlink:href="#Unbenannter_Verlauf_349"/></defs><title>Main_Menu_Text_Start_Game</title><g id="Ebene_2" data-name="Ebene 2"><g id="L_Start" data-name="L Start"><path class="cls-1" d="M24.89,14.07H14.39V10.85A6.3,6.3,0,0,0,14,8a1.46,1.46,0,0,0-1.34-.62,1.73,1.73,0,0,0-1.55.83,4.85,4.85,0,0,0-.52,2.53A7.22,7.22,0,0,0,11.17,14a8.49,8.49,0,0,0,3.19,2.65q7.56,4.49,9.51,7.36t2,9.26a16.36,16.36,0,0,1-1.08,6.85,8.52,8.52,0,0,1-4.21,3.69,16.5,16.5,0,0,1-7.25,1.5,16.31,16.31,0,0,1-7.75-1.72,8.48,8.48,0,0,1-4.2-4.38,22.53,22.53,0,0,1-1-7.55V28.82h10.5v5.29a7.06,7.06,0,0,0,.44,3.14,1.73,1.73,0,0,0,1.57.7,1.84,1.84,0,0,0,1.68-.89,5,5,0,0,0,.55-2.63c0-2.56-.35-4.24-1.05-5a32.2,32.2,0,0,0-5.29-3.95A49.94,49.94,0,0,1,3.17,21.4,9.48,9.48,0,0,1,.9,17.91,15.32,15.32,0,0,1,0,12.22C0,8.89.42,6.45,1.28,4.91A8.62,8.62,0,0,1,5.4,1.3,16.39,16.39,0,0,1,12.27,0a17.91,17.91,0,0,1,7.51,1.42A7.86,7.86,0,0,1,23.89,5q1,2.16,1,7.34Z"/><path class="cls-2" d="M52.15.91v8.7H45.44V44.39H34.13V9.61H27.45V.91Z"/><path class="cls-3" d="M72.07.91l6.47,43.48H67l-.6-7.81h-4l-.68,7.81H50L55.73.91Zm-6,28q-.85-7.39-1.72-18.26-1.72,12.48-2.17,18.26Z"/><path class="cls-4" d="M80.46.91h8a61.32,61.32,0,0,1,10.84.62,7.42,7.42,0,0,1,4.62,3.16q1.78,2.53,1.78,8.09,0,5.09-1.26,6.82t-5,2.1c2.24.55,3.74,1.3,4.51,2.23a6.67,6.67,0,0,1,1.44,2.56,40.41,40.41,0,0,1,.28,6.43V44.39H95.2V29.94c0-2.32-.18-3.76-.55-4.32s-1.33-.83-2.89-.83v19.6H80.46Zm11.3,7.44V18a5,5,0,0,0,2.68-.52c.51-.35.76-1.48.76-3.4V11.71c0-1.38-.24-2.28-.74-2.71A4.19,4.19,0,0,0,91.76,8.35Z"/><path class="cls-5" d="M132.85.91v8.7h-6.71V44.39H114.83V9.61h-6.68V.91Z"/><path class="cls-6" d="M171.07,16.92H159.76V13a19.32,19.32,0,0,0-.32-4.67,1.69,1.69,0,0,0-2.95-.14,13.14,13.14,0,0,0-.38,4.14V33.17a12.4,12.4,0,0,0,.38,3.85A1.46,1.46,0,0,0,158,38a1.67,1.67,0,0,0,1.68-1.05,12.43,12.43,0,0,0,.44-4.08V27.66h-2.28V21.05h13.24V44.39H164l-1-3.11a7.94,7.94,0,0,1-2.92,3,8.23,8.23,0,0,1-4.15,1,10.85,10.85,0,0,1-5.34-1.39,10.22,10.22,0,0,1-3.77-3.42,10.76,10.76,0,0,1-1.61-4.29,50.09,50.09,0,0,1-.33-6.72V16.57a43,43,0,0,1,.68-9,9.26,9.26,0,0,1,3.85-5.17A13.47,13.47,0,0,1,157.56,0a15.32,15.32,0,0,1,8.24,2,9.67,9.67,0,0,1,4.28,4.85,25.77,25.77,0,0,1,1,8.15Z"/><path class="cls-7" d="M195,.91l6.47,43.48H189.9l-.61-7.81h-4l-.68,7.81H172.88L178.65.91Zm-6,28q-.85-7.39-1.72-18.26-1.74,12.48-2.17,18.26Z"/><path class="cls-8" d="M238.26.91V44.39h-9.88V15l-3.94,29.35h-7l-4.15-28.68V44.39h-9.88V.91H218q.65,3.93,1.34,9.25L221,21.22,223.55.91Z"/><path class="cls-9" d="M242.8.91h18.85v8.7h-7.54v8.25h7.06v8.27h-7.06v9.56h8.29v8.7H242.8Z"/></g></g></svg>