<svg xmlns="http://www.w3.org/2000/svg" xmlns:xlink="http://www.w3.org/1999/xlink" viewBox="0 0 162.68 32.8"><defs><style>.cls-1{fill:url(#Unbenannter_Verlauf_349);}.cls-2{fill:url(#Unbenannter_Verlauf_349-2);}.cls-3{fill:url(#Unbenannter_Verlauf_349-3);}.cls-4{fill:url(#Unbenannter_Verlauf_349-4);}.cls-5{fill:url(#Unbenannter_Verlauf_349-5);}.cls-6{fill:url(#Unbenannter_Verlauf_349-6);}.cls-7{fill:url(#Unbenannter_Verlauf_349-7);}.cls-8{fill:url(#Unbenannter_Verlauf_349-8);}</style><linearGradient id="Unbenannter_Verlauf_349" x1="9.67" x2="9.67" y2="32.8" gradientUnits="userSpaceOnUse"><stop offset="0.07" stop-color="#f8f2d6"/><stop offset="0.28" stop-color="#f8f1ca"/><stop offset="0.6" stop-color="#e9e0b6"/><stop offset="1" stop-color="#e6dcb1"/></linearGradient><linearGradient id="Unbenannter_Verlauf_349-2" x1="31.51" x2="31.51" y2="32.8" xlink:href="#Unbenannter_Verlauf_349"/><linearGradient id="Unbenannter_Verlauf_349-3" x1="53.17" y1="0.66" x2="53.17" y2="32.14" xlink:href="#Unbenannter_Verlauf_349"/><linearGradient id="Unbenannter_Verlauf_349-4" x1="73.14" y1="0.66" x2="73.14" y2="32.14" xlink:href="#Unbenannter_Verlauf_349"/><linearGradient id="Unbenannter_Verlauf_349-5" x1="93.09" y1="0.66" x2="93.09" y2="32.14" xlink:href="#Unbenannter_Verlauf_349"/><linearGradient id="Unbenannter_Verlauf_349-6" x1="113.88" y1="0.66" x2="113.88" y2="32.14" xlink:href="#Unbenannter_Verlauf_349"/><linearGradient id="Unbenannter_Verlauf_349-7" x1="134.28" x2="134.28" y2="32.8" xlink:href="#Unbenannter_Verlauf_349"/><linearGradient id="Unbenannter_Verlauf_349-8" x1="153.74" y1="0.66" x2="153.74" y2="32.14" xlink:href="#Unbenannter_Verlauf_349"/></defs><title>Main_Menu_Text_Contrast</title><g id="Ebene_2" data-name="Ebene 2"><g id="Options"><g id="DISPLAY"><path class="cls-1" d="M19.34,14.37H11.16V8.9a10,10,0,0,0-.26-3,1.12,1.12,0,0,0-1.16-.59,1.21,1.21,0,0,0-1.28.72,10.87,10.87,0,0,0-.28,3.11V23.78a10.14,10.14,0,0,0,.28,3,1.16,1.16,0,0,0,1.22.7,1.15,1.15,0,0,0,1.2-.7,11.41,11.41,0,0,0,.28-3.29v-4h8.18v1.23a24.26,24.26,0,0,1-.69,6.93,7.08,7.08,0,0,1-3,3.58A10.47,10.47,0,0,1,9.78,32.8a12,12,0,0,1-5.93-1.31,6.28,6.28,0,0,1-3.09-3.6A23.54,23.54,0,0,1,0,21v-9.2a42,42,0,0,1,.23-5.1A7.19,7.19,0,0,1,1.62,3.38,7.79,7.79,0,0,1,4.83.9,11.65,11.65,0,0,1,9.55,0a11.5,11.5,0,0,1,6,1.4,6.74,6.74,0,0,1,3.1,3.48,21.11,21.11,0,0,1,.73,6.5Z"/><path class="cls-2" d="M41,19.09q0,4.74-.22,6.72a7.53,7.53,0,0,1-4.58,6.11,11.45,11.45,0,0,1-4.67.88A11.92,11.92,0,0,1,27,32a7.59,7.59,0,0,1-4.69-6.07,65.6,65.6,0,0,1-.23-6.81V13.71q0-4.76.22-6.72A7.53,7.53,0,0,1,26.85.87,11.6,11.6,0,0,1,31.51,0a11.85,11.85,0,0,1,4.54.83A7.43,7.43,0,0,1,39.29,3.3a7.53,7.53,0,0,1,1.46,3.6Q41,8.85,41,13.71ZM32.8,8.75a9.36,9.36,0,0,0-.25-2.81,1,1,0,0,0-1-.61,1.12,1.12,0,0,0-1,.49,7,7,0,0,0-.34,2.93v14.7a14.28,14.28,0,0,0,.23,3.38,1,1,0,0,0,1,.64,1,1,0,0,0,1.06-.74,15.1,15.1,0,0,0,.24-3.52Z"/><path class="cls-3" d="M62.31.66V32.14H55.14L50.88,17.83V32.14H44V.66h6.84l4.59,14.17V.66Z"/><path class="cls-4" d="M82.08.66V7H77.22V32.14H69V7H64.2V.66Z"/><path class="cls-5" d="M84,.66h5.79a44.13,44.13,0,0,1,7.85.45,5.43,5.43,0,0,1,3.34,2.28q1.29,1.85,1.29,5.86c0,2.45-.3,4.1-.91,4.94s-1.81,1.35-3.6,1.52A6.19,6.19,0,0,1,101,17.32a4.84,4.84,0,0,1,1,1.86,30.25,30.25,0,0,1,.2,4.65v8.31h-7.6V21.68a7.12,7.12,0,0,0-.4-3.13c-.26-.4-1-.61-2.09-.61v14.2H84Zm8.18,5.39v7a3.67,3.67,0,0,0,1.94-.37c.37-.26.55-1.08.55-2.46V8.48a2.67,2.67,0,0,0-.53-2A3.07,3.07,0,0,0,92.13,6.05Z"/><path class="cls-6" d="M119.54.66l4.68,31.48h-8.36l-.44-5.66h-2.93L112,32.14h-8.46L107.71.66ZM115.2,20.9q-.61-5.35-1.24-13.22-1.26,9-1.58,13.22Z"/><path class="cls-7" d="M143,10.19h-7.6V7.85a4.68,4.68,0,0,0-.29-2.08,1.09,1.09,0,0,0-1-.44,1.23,1.23,0,0,0-1.12.6,3.52,3.52,0,0,0-.38,1.83,5.08,5.08,0,0,0,.43,2.37,6.16,6.16,0,0,0,2.31,1.93q5.46,3.24,6.88,5.32c.95,1.39,1.42,3.62,1.42,6.71a11.64,11.64,0,0,1-.79,4.95,6.09,6.09,0,0,1-3,2.68,12,12,0,0,1-5.25,1.08,11.74,11.74,0,0,1-5.61-1.25,6.11,6.11,0,0,1-3-3.17,16.2,16.2,0,0,1-.72-5.46V20.86h7.6v3.83A5.06,5.06,0,0,0,133.1,27a1.25,1.25,0,0,0,1.14.51,1.33,1.33,0,0,0,1.22-.64,3.72,3.72,0,0,0,.4-1.91c0-1.85-.26-3.06-.76-3.63a24.82,24.82,0,0,0-3.83-2.86,37.32,37.32,0,0,1-4.05-2.94A6.89,6.89,0,0,1,125.58,13a11.23,11.23,0,0,1-.65-4.12,11.51,11.51,0,0,1,.92-5.29,6.21,6.21,0,0,1,3-2.62,11.85,11.85,0,0,1,5-.94,12.94,12.94,0,0,1,5.44,1,5.63,5.63,0,0,1,3,2.6A13.61,13.61,0,0,1,143,8.94Z"/><path class="cls-8" d="M162.68.66V7h-4.86V32.14h-8.18V7H144.8V.66Z"/></g></g></g></svg>