<svg xmlns="http://www.w3.org/2000/svg" xmlns:xlink="http://www.w3.org/1999/xlink" viewBox="0 0 228.62 49.66"><defs><style>.cls-1{fill:url(#Unbenannter_Verlauf_349);}.cls-2{fill:url(#Unbenannter_Verlauf_349-2);}.cls-3{fill:url(#Unbenannter_Verlauf_349-3);}.cls-4{fill:url(#Unbenannter_Verlauf_349-4);}.cls-5{fill:url(#Unbenannter_Verlauf_349-5);}.cls-6{fill:url(#Unbenannter_Verlauf_349-6);}.cls-7{fill:url(#Unbenannter_Verlauf_349-7);}.cls-8{fill:url(#Unbenannter_Verlauf_349-8);}</style><linearGradient id="Unbenannter_Verlauf_349" x1="13.09" x2="13.09" y2="49.66" gradientUnits="userSpaceOnUse"><stop offset="0.07" stop-color="#f8f2d6"/><stop offset="0.28" stop-color="#f8f1ca"/><stop offset="0.6" stop-color="#e9e0b6"/><stop offset="1" stop-color="#e6dcb1"/></linearGradient><linearGradient id="Unbenannter_Verlauf_349-2" x1="43.14" y1="0.91" x2="43.14" y2="45.3" xlink:href="#Unbenannter_Verlauf_349"/><linearGradient id="Unbenannter_Verlauf_349-3" x1="66.11" y1="0.91" x2="66.11" y2="44.39" xlink:href="#Unbenannter_Verlauf_349"/><linearGradient id="Unbenannter_Verlauf_349-4" x1="86.72" y1="0.91" x2="86.72" y2="44.39" xlink:href="#Unbenannter_Verlauf_349"/><linearGradient id="Unbenannter_Verlauf_349-5" x1="124.15" x2="124.15" y2="45.3" xlink:href="#Unbenannter_Verlauf_349"/><linearGradient id="Unbenannter_Verlauf_349-6" x1="153.39" y1="0.91" x2="153.39" y2="44.39" xlink:href="#Unbenannter_Verlauf_349"/><linearGradient id="Unbenannter_Verlauf_349-7" x1="187.04" y1="0.91" x2="187.04" y2="44.39" xlink:href="#Unbenannter_Verlauf_349"/><linearGradient id="Unbenannter_Verlauf_349-8" x1="218.82" y1="0.91" x2="218.82" y2="44.39" xlink:href="#Unbenannter_Verlauf_349"/></defs><title>Main_Menu_Text_Quit_Game</title><g id="Ebene_2" data-name="Ebene 2"><g id="L_Quit_Game" data-name="L Quit Game"><path class="cls-1" d="M26.18,44.39v5.27H17.64a13.64,13.64,0,0,1-4.35-.48,2.89,2.89,0,0,1-1.7-1.41,8.72,8.72,0,0,1-.45-3.38,11.93,11.93,0,0,1-6.6-2A8.9,8.9,0,0,1,.89,37.53,32.17,32.17,0,0,1,0,28.74V15.28A32.79,32.79,0,0,1,.52,8.53,10.73,10.73,0,0,1,2.69,4.15,10.15,10.15,0,0,1,6.9,1.05a15.05,15.05,0,0,1,5.72-1,16.81,16.81,0,0,1,6.76,1.29,10.68,10.68,0,0,1,4.43,3.27,10.58,10.58,0,0,1,1.9,4.12A33.25,33.25,0,0,1,26.16,15V29.16A35.18,35.18,0,0,1,25.59,37a5.92,5.92,0,0,1-2.16,3.29,11.21,11.21,0,0,1-4.26,1.87c.06,1,.26,1.58.61,1.83a4.94,4.94,0,0,0,2.48.38ZM14.85,12.08a13.73,13.73,0,0,0-.33-3.88,1.35,1.35,0,0,0-1.39-.84A1.54,1.54,0,0,0,11.78,8c-.32.46-.47,1.81-.47,4V32.39a19.69,19.69,0,0,0,.31,4.67,1.34,1.34,0,0,0,1.43.89,1.4,1.4,0,0,0,1.48-1,21.86,21.86,0,0,0,.32-4.86Z"/><path class="cls-2" d="M56.08.91V30a49.23,49.23,0,0,1-.33,6.94A9.37,9.37,0,0,1,53.85,41a9.93,9.93,0,0,1-4.18,3.2,15.81,15.81,0,0,1-6.11,1.08A17.2,17.2,0,0,1,36.68,44a10.33,10.33,0,0,1-4.45-3.36,9.25,9.25,0,0,1-1.75-4.37c-.18-1.53-.27-4.74-.27-9.65V.91H41.52V33.52a12.61,12.61,0,0,0,.31,3.63,1.21,1.21,0,0,0,1.25.8,1.31,1.31,0,0,0,1.38-.88A16,16,0,0,0,44.77,33V.91Z"/><path class="cls-3" d="M71.76.91V44.39H60.45V.91Z"/><path class="cls-4" d="M99.07.91v8.7H92.36V44.39H81.05V9.61H74.36V.91Z"/><path class="cls-5" d="M137.29,16.92H126V13a19.82,19.82,0,0,0-.32-4.67,1.7,1.7,0,0,0-3-.14,13.26,13.26,0,0,0-.37,4.14V33.17A12.5,12.5,0,0,0,122.7,37a1.46,1.46,0,0,0,1.51.93,1.65,1.65,0,0,0,1.67-1.05,12.08,12.08,0,0,0,.45-4.08V27.66h-2.28V21.05h13.24V44.39h-7.11l-1.05-3.11a7.92,7.92,0,0,1-2.91,3,8.25,8.25,0,0,1-4.15,1,10.84,10.84,0,0,1-5.34-1.38A10.15,10.15,0,0,1,113,40.5a10.78,10.78,0,0,1-1.62-4.29,52.25,52.25,0,0,1-.32-6.72V16.57a43.15,43.15,0,0,1,.67-9,9.28,9.28,0,0,1,3.86-5.17A13.47,13.47,0,0,1,123.78,0,15.32,15.32,0,0,1,132,2a9.6,9.6,0,0,1,4.27,4.85,25.72,25.72,0,0,1,1,8.15Z"/><path class="cls-6" d="M161.21.91l6.46,43.48H156.12l-.61-7.81h-4l-.68,7.81H139.1L144.87.91Zm-6,28q-.86-7.39-1.72-18.26-1.73,12.48-2.17,18.26Z"/><path class="cls-7" d="M204.48.91V44.39h-9.89V15l-3.93,29.35h-7l-4.15-28.68V44.39h-9.89V.91h14.63c.44,2.62.88,5.7,1.34,9.25l1.61,11.06L189.77.91Z"/><path class="cls-8" d="M209,.91h18.85v8.7h-7.55v8.25h7.07v8.27h-7.07v9.56h8.3v8.7H209Z"/></g></g></svg>