<svg xmlns="http://www.w3.org/2000/svg" xmlns:xlink="http://www.w3.org/1999/xlink" viewBox="0 0 29.1 31.48"><defs><style>.cls-1{fill:url(#Unbenannter_Verlauf_349);}.cls-2{fill:url(#Unbenannter_Verlauf_349-2);}</style><linearGradient id="Unbenannter_Verlauf_349" x1="4.09" x2="4.09" y2="31.48" gradientUnits="userSpaceOnUse"><stop offset="0.07" stop-color="#f8f2d6"/><stop offset="0.28" stop-color="#f8f1ca"/><stop offset="0.6" stop-color="#e9e0b6"/><stop offset="1" stop-color="#e6dcb1"/></linearGradient><linearGradient id="Unbenannter_Verlauf_349-2" x1="20.29" x2="20.29" y2="31.48" xlink:href="#Unbenannter_Verlauf_349"/></defs><title>Main_Menu_Text_IP</title><g id="Ebene_2" data-name="Ebene 2"><g id="Start"><g id="IP_Port" data-name="IP Port"><path class="cls-1" d="M8.18,0V31.48H0V0Z"/><path class="cls-2" d="M11.47,0h8.24a19.89,19.89,0,0,1,5.15.52A5.87,5.87,0,0,1,27.56,2a5.18,5.18,0,0,1,1.22,2.4,21.13,21.13,0,0,1,.32,4.37v2.74a11.3,11.3,0,0,1-.62,4.39,4.25,4.25,0,0,1-2.28,2.12,10.87,10.87,0,0,1-4.35.74h-2.2V31.48H11.47Zm8.18,5.39v8h.61a1.88,1.88,0,0,0,1.56-.55,4.08,4.08,0,0,0,.44-2.3V8a3,3,0,0,0-.51-2.1A3.18,3.18,0,0,0,19.65,5.39Z"/></g></g></g></svg>