<svg xmlns="http://www.w3.org/2000/svg" xmlns:xlink="http://www.w3.org/1999/xlink" viewBox="0 0 187.1 32.8"><defs><style>.cls-1{fill:url(#Unbenannter_Verlauf_349);}.cls-2{fill:url(#Unbenannter_Verlauf_349-2);}.cls-3{fill:url(#Unbenannter_Verlauf_349-3);}.cls-4{fill:url(#Unbenannter_Verlauf_349-4);}.cls-5{fill:url(#Unbenannter_Verlauf_349-5);}.cls-6{fill:url(#Unbenannter_Verlauf_349-6);}.cls-7{fill:url(#Unbenannter_Verlauf_349-7);}.cls-8{fill:url(#Unbenannter_Verlauf_349-8);}.cls-9{fill:url(#Unbenannter_Verlauf_349-9);}.cls-10{fill:url(#Unbenannter_Verlauf_349-10);}</style><linearGradient id="Unbenannter_Verlauf_349" x1="9.14" y1="0.66" x2="9.14" y2="32.14" gradientUnits="userSpaceOnUse"><stop offset="0.07" stop-color="#f8f2d6"/><stop offset="0.28" stop-color="#f8f1ca"/><stop offset="0.6" stop-color="#e9e0b6"/><stop offset="1" stop-color="#e6dcb1"/></linearGradient><linearGradient id="Unbenannter_Verlauf_349-2" x1="28.54" y1="0.66" x2="28.54" y2="32.14" xlink:href="#Unbenannter_Verlauf_349"/><linearGradient id="Unbenannter_Verlauf_349-3" x1="46.66" y1="0" x2="46.66" y2="32.8" xlink:href="#Unbenannter_Verlauf_349"/><linearGradient id="Unbenannter_Verlauf_349-4" x1="67.81" y1="0" x2="67.81" y2="32.8" xlink:href="#Unbenannter_Verlauf_349"/><linearGradient id="Unbenannter_Verlauf_349-5" x1="86.91" y1="0.66" x2="86.91" y2="32.14" xlink:href="#Unbenannter_Verlauf_349"/><linearGradient id="Unbenannter_Verlauf_349-6" x1="104.72" y1="0.66" x2="104.72" y2="32.8" xlink:href="#Unbenannter_Verlauf_349"/><linearGradient id="Unbenannter_Verlauf_349-7" x1="124.79" y1="0.66" x2="124.79" y2="32.14" xlink:href="#Unbenannter_Verlauf_349"/><linearGradient id="Unbenannter_Verlauf_349-8" x1="139.7" y1="0.66" x2="139.7" y2="32.14" xlink:href="#Unbenannter_Verlauf_349"/><linearGradient id="Unbenannter_Verlauf_349-9" x1="156.31" y1="0" x2="156.31" y2="32.8" xlink:href="#Unbenannter_Verlauf_349"/><linearGradient id="Unbenannter_Verlauf_349-10" x1="177.97" y1="0.66" x2="177.97" y2="32.14" xlink:href="#Unbenannter_Verlauf_349"/></defs><title>Main_Menu_Text_Resolution</title><g id="Ebene_2" data-name="Ebene 2"><g id="Options"><g id="DISPLAY"><path class="cls-1" d="M0,.66H5.79a44.05,44.05,0,0,1,7.85.45A5.43,5.43,0,0,1,17,3.39q1.29,1.85,1.29,5.86c0,2.45-.3,4.1-.91,4.94s-1.81,1.35-3.6,1.52A6.19,6.19,0,0,1,17,17.32a4.84,4.84,0,0,1,1,1.86,28.91,28.91,0,0,1,.2,4.65v8.31h-7.6V21.68a7.12,7.12,0,0,0-.4-3.13c-.26-.4-1-.61-2.09-.61v14.2H0ZM8.18,6.05v7a3.67,3.67,0,0,0,1.94-.37c.37-.26.55-1.08.55-2.46V8.48a2.62,2.62,0,0,0-.53-2A3.07,3.07,0,0,0,8.18,6.05Z"/><path class="cls-2" d="M21.44.66H35.09V7H29.63v6h5.11v6H29.63v6.92h6v6.3H21.44Z"/><path class="cls-3" d="M55.33,10.19h-7.6V7.85a4.68,4.68,0,0,0-.29-2.08,1.1,1.1,0,0,0-1-.44,1.23,1.23,0,0,0-1.11.6A3.42,3.42,0,0,0,45,7.76a5.23,5.23,0,0,0,.42,2.37,6.31,6.31,0,0,0,2.32,1.93q5.46,3.24,6.88,5.32C55.54,18.77,56,21,56,24.09A11.64,11.64,0,0,1,55.22,29a6.13,6.13,0,0,1-3,2.68,12,12,0,0,1-5.25,1.08,11.74,11.74,0,0,1-5.61-1.25,6.07,6.07,0,0,1-3-3.17,16.2,16.2,0,0,1-.72-5.46V20.86h7.6v3.83A5.06,5.06,0,0,0,45.48,27a1.25,1.25,0,0,0,1.14.51,1.31,1.31,0,0,0,1.21-.64,3.62,3.62,0,0,0,.4-1.91q0-2.78-.75-3.63a24.82,24.82,0,0,0-3.83-2.86,37.32,37.32,0,0,1-4-2.94A6.76,6.76,0,0,1,38,13a11,11,0,0,1-.65-4.12,11.51,11.51,0,0,1,.92-5.29,6.21,6.21,0,0,1,3-2.62,11.85,11.85,0,0,1,5-.94,12.94,12.94,0,0,1,5.44,1,5.67,5.67,0,0,1,3,2.6,13.61,13.61,0,0,1,.73,5.31Z"/><path class="cls-4" d="M77.28,19.09c0,3.16-.08,5.4-.22,6.72a7.53,7.53,0,0,1-4.58,6.11,11.48,11.48,0,0,1-4.67.88A11.89,11.89,0,0,1,63.27,32a7.59,7.59,0,0,1-4.69-6.07,64.79,64.79,0,0,1-.24-6.81V13.71q0-4.76.23-6.72A7.53,7.53,0,0,1,63.15.87,11.6,11.6,0,0,1,67.81,0a11.85,11.85,0,0,1,4.54.83A7.49,7.49,0,0,1,75.59,3.3a7.63,7.63,0,0,1,1.46,3.6q.23,1.95.23,6.81ZM69.09,8.75a9.86,9.86,0,0,0-.24-2.81,1,1,0,0,0-1-.61,1.1,1.1,0,0,0-1,.49,7,7,0,0,0-.34,2.93v14.7a14.51,14.51,0,0,0,.22,3.38,1,1,0,0,0,1,.64,1,1,0,0,0,1.07-.74,15.33,15.33,0,0,0,.23-3.52Z"/><path class="cls-5" d="M88.52.66V25.84h5v6.3H80.33V.66Z"/><path class="cls-6" d="M114.08.66v21a37.49,37.49,0,0,1-.23,5,6.94,6.94,0,0,1-1.38,3,7.25,7.25,0,0,1-3,2.31,11.44,11.44,0,0,1-4.42.79,12.32,12.32,0,0,1-5-.94,7.47,7.47,0,0,1-3.22-2.43,6.64,6.64,0,0,1-1.27-3.16q-.19-1.65-.19-7V.66h8.18v23.6a9.24,9.24,0,0,0,.23,2.64.88.88,0,0,0,.9.57.94.94,0,0,0,1-.63,11.64,11.64,0,0,0,.23-3V.66Z"/><path class="cls-7" d="M133.74.66V7h-4.86V32.14h-8.19V7h-4.84V.66Z"/><path class="cls-8" d="M143.79.66V32.14H135.6V.66Z"/><path class="cls-9" d="M165.78,19.09q0,4.74-.23,6.72A7.53,7.53,0,0,1,161,31.92a11.43,11.43,0,0,1-4.66.88,11.85,11.85,0,0,1-4.54-.83,7.58,7.58,0,0,1-4.7-6.07q-.23-1.95-.23-6.81V13.71q0-4.76.22-6.72a7.58,7.58,0,0,1,1.4-3.61A7.66,7.66,0,0,1,151.64.87,11.65,11.65,0,0,1,156.31,0a11.89,11.89,0,0,1,4.54.83,7.55,7.55,0,0,1,4.69,6.07,64.79,64.79,0,0,1,.24,6.81ZM157.59,8.75a9.86,9.86,0,0,0-.24-2.81,1,1,0,0,0-1-.61,1.1,1.1,0,0,0-1,.49A6.93,6.93,0,0,0,155,8.75v14.7a14.28,14.28,0,0,0,.23,3.38,1,1,0,0,0,1,.64,1,1,0,0,0,1.07-.74,16,16,0,0,0,.23-3.52Z"/><path class="cls-10" d="M187.1.66V32.14h-7.17l-4.26-14.31V32.14h-6.84V.66h6.84l4.59,14.17V.66Z"/></g></g></g></svg>