<svg xmlns="http://www.w3.org/2000/svg" xmlns:xlink="http://www.w3.org/1999/xlink" viewBox="0 0 86.49 32.8"><defs><style>.cls-1{fill:url(#Unbenannter_Verlauf_349);}.cls-2{fill:url(#Unbenannter_Verlauf_349-2);}.cls-3{fill:url(#Unbenannter_Verlauf_349-3);}.cls-4{fill:url(#Unbenannter_Verlauf_349-4);}</style><linearGradient id="Unbenannter_Verlauf_349" x1="12.63" y1="0.66" x2="12.63" y2="32.14" gradientUnits="userSpaceOnUse"><stop offset="0.07" stop-color="#f8f2d6"/><stop offset="0.28" stop-color="#f8f1ca"/><stop offset="0.6" stop-color="#e9e0b6"/><stop offset="1" stop-color="#e6dcb1"/></linearGradient><linearGradient id="Unbenannter_Verlauf_349-2" x1="37.77" y1="0" x2="37.77" y2="32.8" xlink:href="#Unbenannter_Verlauf_349"/><linearGradient id="Unbenannter_Verlauf_349-3" x1="59.77" y1="0.66" x2="59.77" y2="32.14" xlink:href="#Unbenannter_Verlauf_349"/><linearGradient id="Unbenannter_Verlauf_349-4" x1="79.4" y1="0.66" x2="79.4" y2="32.14" xlink:href="#Unbenannter_Verlauf_349"/></defs><title>Main_Menu_Text_Mode</title><g id="Ebene_2" data-name="Ebene 2"><g id="Options"><g id="DISPLAY"><path class="cls-1" d="M25.25.66V32.14H18.1V10.89L15.24,32.14H10.17l-3-20.77V32.14H0V.66H10.59c.31,1.89.64,4.12,1,6.69l1.16,8L14.61.66Z"/><path class="cls-2" d="M47.24,19.09q0,4.74-.22,6.72a7.53,7.53,0,0,1-4.58,6.11,11.45,11.45,0,0,1-4.67.88A11.92,11.92,0,0,1,33.23,32a7.59,7.59,0,0,1-4.69-6.07,65.6,65.6,0,0,1-.23-6.81V13.71q0-4.76.22-6.72A7.53,7.53,0,0,1,33.11.87,11.6,11.6,0,0,1,37.77,0a11.85,11.85,0,0,1,4.54.83A7.43,7.43,0,0,1,45.55,3.3,7.53,7.53,0,0,1,47,6.9q.23,1.95.23,6.81ZM39.06,8.75a9.36,9.36,0,0,0-.25-2.81,1,1,0,0,0-1-.61,1.12,1.12,0,0,0-1,.49,7,7,0,0,0-.34,2.93v14.7a15.13,15.13,0,0,0,.22,3.38,1,1,0,0,0,1,.64,1,1,0,0,0,1.07-.74,15.1,15.1,0,0,0,.24-3.52Z"/><path class="cls-3" d="M50.29.66h6.13a37.55,37.55,0,0,1,8,.55A6.15,6.15,0,0,1,67.62,3,5.73,5.73,0,0,1,69,5.76a42.27,42.27,0,0,1,.27,6v11a25.29,25.29,0,0,1-.4,5.67,4.33,4.33,0,0,1-1.39,2.24A5.71,5.71,0,0,1,65,31.81a21.53,21.53,0,0,1-4.39.33H50.29Zm8.19,5.39v20.7c1.18,0,1.9-.24,2.18-.71a10.51,10.51,0,0,0,.4-3.86V10a16.78,16.78,0,0,0-.13-2.74,1.31,1.31,0,0,0-.62-.88A4.06,4.06,0,0,0,58.48,6.05Z"/><path class="cls-4" d="M72.3.66H86V7H80.49v6H85.6v6H80.49v6.92h6v6.3H72.3Z"/></g></g></g></svg>