<svg xmlns="http://www.w3.org/2000/svg" xmlns:xlink="http://www.w3.org/1999/xlink" viewBox="0 0 221.07 45.31"><defs><style>.cls-1{fill:url(#Unbenannter_Verlauf_349);}.cls-2{fill:url(#Unbenannter_Verlauf_349-2);}.cls-3{fill:url(#Unbenannter_Verlauf_349-3);}.cls-4{fill:url(#Unbenannter_Verlauf_349-4);}.cls-5{fill:url(#Unbenannter_Verlauf_349-5);}.cls-6{fill:url(#Unbenannter_Verlauf_349-6);}.cls-7{fill:url(#Unbenannter_Verlauf_349-7);}.cls-8{fill:url(#Unbenannter_Verlauf_349-8);}</style><linearGradient id="Unbenannter_Verlauf_349" x1="13.36" x2="13.36" y2="45.31" gradientUnits="userSpaceOnUse"><stop offset="0.07" stop-color="#f8f2d6"/><stop offset="0.28" stop-color="#f8f1ca"/><stop offset="0.6" stop-color="#e9e0b6"/><stop offset="1" stop-color="#e6dcb1"/></linearGradient><linearGradient id="Unbenannter_Verlauf_349-2" x1="43.53" x2="43.53" y2="45.31" xlink:href="#Unbenannter_Verlauf_349"/><linearGradient id="Unbenannter_Verlauf_349-3" x1="73.45" y1="0.91" x2="73.45" y2="44.39" xlink:href="#Unbenannter_Verlauf_349"/><linearGradient id="Unbenannter_Verlauf_349-4" x1="101.03" y1="0.91" x2="101.03" y2="44.39" xlink:href="#Unbenannter_Verlauf_349"/><linearGradient id="Unbenannter_Verlauf_349-5" x1="128.58" y1="0.91" x2="128.58" y2="44.39" xlink:href="#Unbenannter_Verlauf_349"/><linearGradient id="Unbenannter_Verlauf_349-6" x1="158.34" x2="158.34" y2="45.31" xlink:href="#Unbenannter_Verlauf_349"/><linearGradient id="Unbenannter_Verlauf_349-7" x1="184.72" y1="0.91" x2="184.72" y2="44.39" xlink:href="#Unbenannter_Verlauf_349"/><linearGradient id="Unbenannter_Verlauf_349-8" x1="208.16" x2="208.16" y2="45.31" xlink:href="#Unbenannter_Verlauf_349"/></defs><title>Main_Menu_Text_Controls</title><g id="Ebene_2" data-name="Ebene 2"><g id="L_Controls" data-name="L Controls"><path class="cls-1" d="M26.72,19.85H15.42V12.29a13.43,13.43,0,0,0-.37-4.11,1.54,1.54,0,0,0-1.59-.82,1.67,1.67,0,0,0-1.78,1,15.25,15.25,0,0,0-.37,4.3V32.84A14.17,14.17,0,0,0,11.68,37a1.62,1.62,0,0,0,1.69,1A1.6,1.6,0,0,0,15,37a15.84,15.84,0,0,0,.39-4.55V27h11.3v1.7q0,6.75-.95,9.57a9.82,9.82,0,0,1-4.22,5,14.38,14.38,0,0,1-8,2.13,16.66,16.66,0,0,1-8.19-1.8,8.74,8.74,0,0,1-4.27-5A32.58,32.58,0,0,1,0,29V16.25a57.41,57.41,0,0,1,.32-7A10,10,0,0,1,2.24,4.67,10.7,10.7,0,0,1,6.67,1.25,16.07,16.07,0,0,1,13.19,0a15.9,15.9,0,0,1,8.24,1.93A9.24,9.24,0,0,1,25.7,6.75a28.94,28.94,0,0,1,1,9Z"/><path class="cls-2" d="M56.61,26.37q0,6.55-.31,9.28A10.4,10.4,0,0,1,50,44.1a16.1,16.1,0,0,1-6.45,1.21,16.44,16.44,0,0,1-6.27-1.15,10.34,10.34,0,0,1-4.47-3.42,10.22,10.22,0,0,1-2-5,89.62,89.62,0,0,1-.33-9.4V18.93c0-4.37.11-7.46.31-9.28a10.4,10.4,0,0,1,6.33-8.44A15.88,15.88,0,0,1,43.53,0,16.37,16.37,0,0,1,49.8,1.14a10.17,10.17,0,0,1,4.47,3.43,10.3,10.3,0,0,1,2,5,93.56,93.56,0,0,1,.32,9.4ZM45.31,12.08A13.6,13.6,0,0,0,45,8.2a1.34,1.34,0,0,0-1.38-.84A1.56,1.56,0,0,0,42.23,8c-.31.46-.47,1.81-.47,4V32.39a19.69,19.69,0,0,0,.31,4.67,1.34,1.34,0,0,0,1.44.89,1.38,1.38,0,0,0,1.47-1,21,21,0,0,0,.33-4.86Z"/><path class="cls-3" d="M86.07.91V44.39H76.16L70.28,24.63V44.39H60.83V.91h9.45l6.34,19.58V.91Z"/><path class="cls-4" d="M113.38.91v8.7h-6.71V44.39H95.36V9.61H88.68V.91Z"/><path class="cls-5" d="M116,.91h8a61.32,61.32,0,0,1,10.84.62,7.42,7.42,0,0,1,4.62,3.16q1.79,2.53,1.79,8.09,0,5.09-1.27,6.82t-5,2.1c2.23.55,3.74,1.3,4.51,2.23a6.5,6.5,0,0,1,1.43,2.56,39.88,39.88,0,0,1,.29,6.43V44.39h-10.5V29.94c0-2.32-.19-3.76-.55-4.32s-1.33-.83-2.89-.83v19.6H116Zm11.31,7.44V18a5,5,0,0,0,2.67-.52c.51-.35.77-1.48.77-3.4V11.71A3.63,3.63,0,0,0,130,9,4.21,4.21,0,0,0,127.27,8.35Z"/><path class="cls-6" d="M171.42,26.37c0,4.37-.11,7.46-.31,9.28a10.38,10.38,0,0,1-6.33,8.45,16,16,0,0,1-6.44,1.21,16.37,16.37,0,0,1-6.27-1.15,10.46,10.46,0,0,1-6.49-8.39,93.42,93.42,0,0,1-.32-9.4V18.93q0-6.55.31-9.28a10.37,10.37,0,0,1,6.32-8.44A16,16,0,0,1,158.34,0a16.37,16.37,0,0,1,6.27,1.14,10.5,10.5,0,0,1,6.49,8.39,93.56,93.56,0,0,1,.32,9.4ZM160.11,12.08a13.73,13.73,0,0,0-.33-3.88,1.35,1.35,0,0,0-1.39-.84A1.54,1.54,0,0,0,157,8c-.32.46-.47,1.81-.47,4V32.39a19.69,19.69,0,0,0,.31,4.67,1.34,1.34,0,0,0,1.43.89,1.39,1.39,0,0,0,1.48-1,21.86,21.86,0,0,0,.32-4.86Z"/><path class="cls-7" d="M186.94.91V35.69h6.88v8.7H175.63V.91Z"/><path class="cls-8" d="M220.13,14.07h-10.5V10.85a6.3,6.3,0,0,0-.4-2.87,1.47,1.47,0,0,0-1.34-.62,1.73,1.73,0,0,0-1.55.83,4.85,4.85,0,0,0-.52,2.53,7.09,7.09,0,0,0,.59,3.28,8.49,8.49,0,0,0,3.19,2.65q7.56,4.49,9.51,7.36t2,9.26A16.36,16.36,0,0,1,220,40.12a8.52,8.52,0,0,1-4.21,3.69,16.5,16.5,0,0,1-7.25,1.5,16.31,16.31,0,0,1-7.75-1.72,8.44,8.44,0,0,1-4.2-4.38,22.53,22.53,0,0,1-1-7.55V28.82h10.5v5.29a7.06,7.06,0,0,0,.44,3.14,1.73,1.73,0,0,0,1.57.7,1.85,1.85,0,0,0,1.68-.89,5,5,0,0,0,.55-2.63c0-2.56-.35-4.24-1.05-5A32.68,32.68,0,0,0,204,25.46a49.94,49.94,0,0,1-5.58-4.06,9.36,9.36,0,0,1-2.27-3.49,15.32,15.32,0,0,1-.9-5.69q0-5,1.27-7.31a8.65,8.65,0,0,1,4.13-3.61A16.39,16.39,0,0,1,207.51,0,17.91,17.91,0,0,1,215,1.42,7.94,7.94,0,0,1,219.13,5q1,2.16,1,7.34Z"/></g></g></svg>