<svg xmlns="http://www.w3.org/2000/svg" xmlns:xlink="http://www.w3.org/1999/xlink" viewBox="0 0 101.48 32.8"><defs><style>.cls-1{fill:url(#Unbenannter_Verlauf_349);}.cls-2{fill:url(#Unbenannter_Verlauf_349-2);}.cls-3{fill:url(#Unbenannter_Verlauf_349-3);}.cls-4{fill:url(#Unbenannter_Verlauf_349-4);}.cls-5{fill:url(#Unbenannter_Verlauf_349-5);}</style><linearGradient id="Unbenannter_Verlauf_349" x1="12.63" y1="0.66" x2="12.63" y2="32.14" gradientUnits="userSpaceOnUse"><stop offset="0.07" stop-color="#f8f2d6"/><stop offset="0.28" stop-color="#f8f1ca"/><stop offset="0.6" stop-color="#e9e0b6"/><stop offset="1" stop-color="#e6dcb1"/></linearGradient><linearGradient id="Unbenannter_Verlauf_349-2" x1="37.78" y1="0.66" x2="37.78" y2="32.8" xlink:href="#Unbenannter_Verlauf_349"/><linearGradient id="Unbenannter_Verlauf_349-3" x1="58.98" y1="0" x2="58.98" y2="32.8" xlink:href="#Unbenannter_Verlauf_349"/><linearGradient id="Unbenannter_Verlauf_349-4" x1="74.99" y1="0.66" x2="74.99" y2="32.14" xlink:href="#Unbenannter_Verlauf_349"/><linearGradient id="Unbenannter_Verlauf_349-5" x1="91.81" y1="0" x2="91.81" y2="32.8" xlink:href="#Unbenannter_Verlauf_349"/></defs><title>Main_Menu_Text_Sound_Music</title><g id="Ebene_2" data-name="Ebene 2"><g id="Options"><g id="SOUND"><path class="cls-1" d="M25.25.66V32.14H18.1V10.89L15.24,32.14H10.17l-3-20.77V32.14H0V.66H10.59c.31,1.89.64,4.12,1,6.69l1.16,8L14.61.66Z"/><path class="cls-2" d="M47.14.66v21a35.83,35.83,0,0,1-.23,5,6.71,6.71,0,0,1-1.38,3,7.22,7.22,0,0,1-3,2.31,11.49,11.49,0,0,1-4.43.79,12.31,12.31,0,0,1-5-.94,7.44,7.44,0,0,1-3.23-2.43,6.72,6.72,0,0,1-1.26-3.16q-.2-1.65-.2-7V.66h8.19v23.6a9.38,9.38,0,0,0,.22,2.64.88.88,0,0,0,.91.57,1,1,0,0,0,1-.63,11.82,11.82,0,0,0,.22-3V.66Z"/><path class="cls-3" d="M67.66,10.19H60.05V7.85a4.53,4.53,0,0,0-.29-2.08,1.08,1.08,0,0,0-1-.44,1.24,1.24,0,0,0-1.12.6,3.52,3.52,0,0,0-.38,1.83,5.21,5.21,0,0,0,.43,2.37A6.16,6.16,0,0,0,60,12.06q5.47,3.24,6.89,5.32c.94,1.39,1.42,3.62,1.42,6.71A11.8,11.8,0,0,1,67.55,29a6.18,6.18,0,0,1-3,2.68,12.07,12.07,0,0,1-5.25,1.08,11.74,11.74,0,0,1-5.61-1.25,6,6,0,0,1-3-3.17,16.2,16.2,0,0,1-.72-5.46V20.86h7.6v3.83A4.91,4.91,0,0,0,57.81,27a1.23,1.23,0,0,0,1.14.51,1.32,1.32,0,0,0,1.21-.64,3.62,3.62,0,0,0,.4-1.91c0-1.85-.25-3.06-.76-3.63A24.3,24.3,0,0,0,56,18.43a37.94,37.94,0,0,1-4-2.94A6.76,6.76,0,0,1,50.29,13a11,11,0,0,1-.66-4.12,11.36,11.36,0,0,1,.93-5.29,6.18,6.18,0,0,1,3-2.62,11.9,11.9,0,0,1,5-.94A12.9,12.9,0,0,1,64,1a5.7,5.7,0,0,1,3,2.6,13.81,13.81,0,0,1,.73,5.31Z"/><path class="cls-4" d="M79.09.66V32.14H70.9V.66Z"/><path class="cls-5" d="M101.48,14.37H93.3V8.9a10,10,0,0,0-.26-3,1.12,1.12,0,0,0-1.16-.59,1.21,1.21,0,0,0-1.28.72,10.87,10.87,0,0,0-.28,3.11V23.78a10.14,10.14,0,0,0,.28,3,1.4,1.4,0,0,0,2.42,0,11.8,11.8,0,0,0,.28-3.29v-4h8.18v1.23a24.26,24.26,0,0,1-.69,6.93,7.08,7.08,0,0,1-3.05,3.58,10.49,10.49,0,0,1-5.82,1.54A12,12,0,0,1,86,31.49a6.28,6.28,0,0,1-3.09-3.6A23.54,23.54,0,0,1,82.14,21v-9.2a42,42,0,0,1,.23-5.1,7.19,7.19,0,0,1,1.39-3.28A7.79,7.79,0,0,1,87,.9a13.14,13.14,0,0,1,10.68.5,6.67,6.67,0,0,1,3.09,3.48,20.74,20.74,0,0,1,.74,6.5Z"/></g></g></g></svg>