<svg xmlns="http://www.w3.org/2000/svg" xmlns:xlink="http://www.w3.org/1999/xlink" viewBox="0 0 179.74 45.31"><defs><style>.cls-1{fill:url(#Unbenannter_Verlauf_349);}.cls-2{fill:url(#Unbenannter_Verlauf_349-2);}.cls-3{fill:url(#Unbenannter_Verlauf_349-3);}.cls-4{fill:url(#Unbenannter_Verlauf_349-4);}.cls-5{fill:url(#Unbenannter_Verlauf_349-5);}.cls-6{fill:url(#Unbenannter_Verlauf_349-6);}.cls-7{fill:url(#Unbenannter_Verlauf_349-7);}</style><linearGradient id="Unbenannter_Verlauf_349" x1="13.36" x2="13.36" y2="45.31" gradientUnits="userSpaceOnUse"><stop offset="0.07" stop-color="#f8f2d6"/><stop offset="0.28" stop-color="#f8f1ca"/><stop offset="0.6" stop-color="#e9e0b6"/><stop offset="1" stop-color="#e6dcb1"/></linearGradient><linearGradient id="Unbenannter_Verlauf_349-2" x1="43.4" y1="0.91" x2="43.4" y2="44.39" xlink:href="#Unbenannter_Verlauf_349"/><linearGradient id="Unbenannter_Verlauf_349-3" x1="70.2" y1="0.91" x2="70.2" y2="44.39" xlink:href="#Unbenannter_Verlauf_349"/><linearGradient id="Unbenannter_Verlauf_349-4" x1="96.34" y1="0.91" x2="96.34" y2="44.39" xlink:href="#Unbenannter_Verlauf_349"/><linearGradient id="Unbenannter_Verlauf_349-5" x1="119.3" y1="0.91" x2="119.3" y2="44.39" xlink:href="#Unbenannter_Verlauf_349"/><linearGradient id="Unbenannter_Verlauf_349-6" x1="139.92" y1="0.91" x2="139.92" y2="44.39" xlink:href="#Unbenannter_Verlauf_349"/><linearGradient id="Unbenannter_Verlauf_349-7" x1="166.83" x2="166.83" y2="45.31" xlink:href="#Unbenannter_Verlauf_349"/></defs><title>Main_Menu_Text_Credits</title><g id="Ebene_2" data-name="Ebene 2"><g id="L_Credits" data-name="L Credits"><path class="cls-1" d="M26.72,19.85H15.42V12.29a13.43,13.43,0,0,0-.37-4.11,1.54,1.54,0,0,0-1.59-.82,1.67,1.67,0,0,0-1.78,1,15.25,15.25,0,0,0-.37,4.3V32.84A14.17,14.17,0,0,0,11.68,37a1.62,1.62,0,0,0,1.69,1A1.6,1.6,0,0,0,15,37a15.84,15.84,0,0,0,.39-4.55V27h11.3v1.7q0,6.75-.95,9.57a9.82,9.82,0,0,1-4.22,5,14.38,14.38,0,0,1-8,2.13,16.66,16.66,0,0,1-8.19-1.8,8.74,8.74,0,0,1-4.27-5A32.58,32.58,0,0,1,0,29V16.25a57.41,57.41,0,0,1,.32-7A10,10,0,0,1,2.24,4.67,10.7,10.7,0,0,1,6.67,1.25,16.07,16.07,0,0,1,13.19,0a15.9,15.9,0,0,1,8.24,1.93A9.24,9.24,0,0,1,25.7,6.75a28.94,28.94,0,0,1,1,9Z"/><path class="cls-2" d="M30.78.91h8a61.4,61.4,0,0,1,10.84.62,7.43,7.43,0,0,1,4.61,3.16Q56,7.23,56,12.78q0,5.09-1.26,6.82t-5,2.1c2.24.55,3.74,1.3,4.51,2.23a6.67,6.67,0,0,1,1.44,2.56A40.41,40.41,0,0,1,56,32.92V44.39H45.52V29.94c0-2.32-.18-3.76-.55-4.32s-1.33-.83-2.89-.83v19.6H30.78Zm11.3,7.44V18a5,5,0,0,0,2.67-.52c.51-.35.77-1.48.77-3.4V11.71A3.63,3.63,0,0,0,44.78,9,4.19,4.19,0,0,0,42.08,8.35Z"/><path class="cls-3" d="M60.4.91H79.25v8.7H71.7v8.25h7.07v8.27H71.7v9.56H80v8.7H60.4Z"/><path class="cls-4" d="M83.25.91h8.46q8.19,0,11.08.76a8.46,8.46,0,0,1,4.39,2.47A7.82,7.82,0,0,1,109.06,8a58.34,58.34,0,0,1,.37,8.29V31.47a35.13,35.13,0,0,1-.55,7.83A5.78,5.78,0,0,1,107,42.39,8.06,8.06,0,0,1,103.58,44a31.07,31.07,0,0,1-6.07.44H83.25ZM94.56,8.35V37c1.63,0,2.63-.32,3-1s.56-2.43.56-5.33V13.75A22.15,22.15,0,0,0,97.94,10a1.78,1.78,0,0,0-.86-1.22A5.57,5.57,0,0,0,94.56,8.35Z"/><path class="cls-5" d="M125,.91V44.39H113.65V.91Z"/><path class="cls-6" d="M152.27.91v8.7h-6.71V44.39H134.25V9.61h-6.69V.91Z"/><path class="cls-7" d="M178.8,14.07H168.3V10.85A6.3,6.3,0,0,0,167.9,8a1.47,1.47,0,0,0-1.34-.62,1.73,1.73,0,0,0-1.55.83,4.85,4.85,0,0,0-.52,2.53,7.09,7.09,0,0,0,.59,3.28,8.49,8.49,0,0,0,3.19,2.65q7.56,4.49,9.51,7.36t2,9.26a16.36,16.36,0,0,1-1.08,6.85,8.52,8.52,0,0,1-4.21,3.69,16.5,16.5,0,0,1-7.25,1.5,16.31,16.31,0,0,1-7.75-1.72,8.44,8.44,0,0,1-4.2-4.38,22.53,22.53,0,0,1-1-7.55V28.82h10.5v5.29a7.06,7.06,0,0,0,.44,3.14,1.73,1.73,0,0,0,1.57.7,1.85,1.85,0,0,0,1.68-.89,5,5,0,0,0,.55-2.63c0-2.56-.35-4.24-1.05-5a32.68,32.68,0,0,0-5.29-3.95,49.94,49.94,0,0,1-5.58-4.06,9.36,9.36,0,0,1-2.27-3.49,15.32,15.32,0,0,1-.9-5.69q0-5,1.27-7.31a8.65,8.65,0,0,1,4.13-3.61A16.39,16.39,0,0,1,166.18,0a17.91,17.91,0,0,1,7.51,1.42A7.94,7.94,0,0,1,177.8,5q1,2.16,1,7.34Z"/></g></g></svg>