<svg xmlns="http://www.w3.org/2000/svg" xmlns:xlink="http://www.w3.org/1999/xlink" viewBox="0 0 79.67 32.8"><defs><style>.cls-1{fill:url(#Unbenannter_Verlauf_349);}.cls-2{fill:url(#Unbenannter_Verlauf_349-2);}.cls-3{fill:url(#Unbenannter_Verlauf_349-3);}.cls-4{fill:url(#Unbenannter_Verlauf_349-4);}</style><linearGradient id="Unbenannter_Verlauf_349" x1="8.82" y1="0.66" x2="8.82" y2="32.14" gradientUnits="userSpaceOnUse"><stop offset="0.07" stop-color="#f8f2d6"/><stop offset="0.28" stop-color="#f8f1ca"/><stop offset="0.6" stop-color="#e9e0b6"/><stop offset="1" stop-color="#e6dcb1"/></linearGradient><linearGradient id="Unbenannter_Verlauf_349-2" x1="29.22" y1="0" x2="29.22" y2="32.8" xlink:href="#Unbenannter_Verlauf_349"/><linearGradient id="Unbenannter_Verlauf_349-3" x1="50.88" y1="0.66" x2="50.88" y2="32.14" xlink:href="#Unbenannter_Verlauf_349"/><linearGradient id="Unbenannter_Verlauf_349-4" x1="70.73" y1="0.66" x2="70.73" y2="32.14" xlink:href="#Unbenannter_Verlauf_349"/></defs><title>Mein_Menu_Text_Port</title><g id="Ebene_2" data-name="Ebene 2"><g id="Start"><g id="IP_Port" data-name="IP Port"><path class="cls-1" d="M0,.66H8.24a19.38,19.38,0,0,1,5.15.53,5.82,5.82,0,0,1,2.7,1.51,5.18,5.18,0,0,1,1.22,2.4,21.13,21.13,0,0,1,.32,4.37v2.74A11.3,11.3,0,0,1,17,16.6a4.25,4.25,0,0,1-2.28,2.12,10.87,10.87,0,0,1-4.35.74H8.18V32.14H0ZM8.18,6.05v8l.61,0a1.88,1.88,0,0,0,1.56-.56,4.08,4.08,0,0,0,.44-2.3V8.63a3,3,0,0,0-.51-2.1A3.18,3.18,0,0,0,8.18,6.05Z"/><path class="cls-2" d="M38.69,19.09q0,4.74-.23,6.72a7.54,7.54,0,0,1-4.57,6.11,11.48,11.48,0,0,1-4.67.88A11.85,11.85,0,0,1,24.68,32,7.54,7.54,0,0,1,20,25.9a64.79,64.79,0,0,1-.24-6.81V13.71Q19.75,9,20,7a7.38,7.38,0,0,1,1.4-3.61A7.56,7.56,0,0,1,24.55.87,11.65,11.65,0,0,1,29.22,0a11.89,11.89,0,0,1,4.54.83A7.5,7.5,0,0,1,38.45,6.9a64.79,64.79,0,0,1,.24,6.81ZM30.5,8.75a9.86,9.86,0,0,0-.24-2.81,1,1,0,0,0-1-.61,1.1,1.1,0,0,0-1,.49,7,7,0,0,0-.34,2.93v14.7a14.51,14.51,0,0,0,.22,3.38,1,1,0,0,0,1,.64,1,1,0,0,0,1.07-.74,15.33,15.33,0,0,0,.23-3.52Z"/><path class="cls-3" d="M41.74.66h5.79a44.05,44.05,0,0,1,7.85.45,5.4,5.4,0,0,1,3.34,2.28Q60,5.24,60,9.25c0,2.45-.3,4.1-.91,4.94s-1.81,1.35-3.6,1.52a6.19,6.19,0,0,1,3.27,1.61,4.84,4.84,0,0,1,1,1.86,28.91,28.91,0,0,1,.2,4.65v8.31h-7.6V21.68a7.12,7.12,0,0,0-.4-3.13c-.26-.4-1-.61-2.09-.61v14.2H41.74Zm8.18,5.39v7a3.67,3.67,0,0,0,1.94-.37c.37-.26.55-1.08.55-2.46V8.48a2.67,2.67,0,0,0-.53-2A3.07,3.07,0,0,0,49.92,6.05Z"/><path class="cls-4" d="M79.67.66V7H74.81V32.14H66.63V7H61.78V.66Z"/></g></g></g></svg>