<svg xmlns="http://www.w3.org/2000/svg" xmlns:xlink="http://www.w3.org/1999/xlink" viewBox="0 0 123.2 32.8"><defs><style>.cls-1{fill:url(#Unbenannter_Verlauf_349);}.cls-2{fill:url(#Unbenannter_Verlauf_349-2);}.cls-3{fill:url(#Unbenannter_Verlauf_349-3);}.cls-4{fill:url(#Unbenannter_Verlauf_349-4);}.cls-5{fill:url(#Unbenannter_Verlauf_349-5);}.cls-6{fill:url(#Unbenannter_Verlauf_349-6);}.cls-7{fill:url(#Unbenannter_Verlauf_349-7);}</style><linearGradient id="Unbenannter_Verlauf_349" x1="7.1" y1="0.66" x2="7.1" y2="32.14" gradientUnits="userSpaceOnUse"><stop offset="0.07" stop-color="#f8f2d6"/><stop offset="0.28" stop-color="#f8f1ca"/><stop offset="0.6" stop-color="#e9e0b6"/><stop offset="1" stop-color="#e6dcb1"/></linearGradient><linearGradient id="Unbenannter_Verlauf_349-2" x1="23.48" y1="0.66" x2="23.48" y2="32.14" xlink:href="#Unbenannter_Verlauf_349"/><linearGradient id="Unbenannter_Verlauf_349-3" x1="39.32" y1="0.66" x2="39.32" y2="32.14" xlink:href="#Unbenannter_Verlauf_349"/><linearGradient id="Unbenannter_Verlauf_349-4" x1="55.33" y1="0.66" x2="55.33" y2="32.14" xlink:href="#Unbenannter_Verlauf_349"/><linearGradient id="Unbenannter_Verlauf_349-5" x1="74.22" y1="0" x2="74.22" y2="32.8" xlink:href="#Unbenannter_Verlauf_349"/><linearGradient id="Unbenannter_Verlauf_349-6" x1="94.37" y1="0.66" x2="94.37" y2="32.14" xlink:href="#Unbenannter_Verlauf_349"/><linearGradient id="Unbenannter_Verlauf_349-7" x1="113.85" y1="0" x2="113.85" y2="32.8" xlink:href="#Unbenannter_Verlauf_349"/></defs><title>Main_Menu_Text_Sound_Effects</title><g id="Ebene_2" data-name="Ebene 2"><g id="Options"><g id="SOUND"><path class="cls-1" d="M0,.66H13.65V7H8.18v6H13.3v6H8.18v6.92h6v6.3H0Z"/><path class="cls-2" d="M16.54.66H30.41V7H24.73v6h5.05v6H24.73V32.14H16.54Z"/><path class="cls-3" d="M32.39.66H46.25V7H40.57v6h5.06v6H40.57V32.14H32.39Z"/><path class="cls-4" d="M48.23.66H61.88V7H56.42v6h5.11v6H56.42v6.92h6v6.3H48.23Z"/><path class="cls-5" d="M83.89,14.37H75.7V8.9a9.66,9.66,0,0,0-.26-3,1.11,1.11,0,0,0-1.15-.59A1.21,1.21,0,0,0,73,6.05a11,11,0,0,0-.27,3.11V23.78a10.26,10.26,0,0,0,.27,3,1.16,1.16,0,0,0,1.23.7,1.14,1.14,0,0,0,1.19-.7,11.41,11.41,0,0,0,.28-3.29v-4h8.19v1.23a24.26,24.26,0,0,1-.69,6.93,7.12,7.12,0,0,1-3,3.58,10.53,10.53,0,0,1-5.83,1.54,12.08,12.08,0,0,1-5.93-1.31,6.35,6.35,0,0,1-3.09-3.6A23.88,23.88,0,0,1,64.54,21v-9.2a39.63,39.63,0,0,1,.24-5.1,7.09,7.09,0,0,1,1.39-3.28A7.79,7.79,0,0,1,69.38.9a13.14,13.14,0,0,1,10.68.5,6.67,6.67,0,0,1,3.09,3.48,21.05,21.05,0,0,1,.74,6.5Z"/><path class="cls-6" d="M103.31.66V7H98.45V32.14H90.27V7H85.42V.66Z"/><path class="cls-7" d="M122.52,10.19h-7.6V7.85a4.68,4.68,0,0,0-.29-2.08,1.1,1.1,0,0,0-1-.44,1.23,1.23,0,0,0-1.11.6,3.42,3.42,0,0,0-.38,1.83,5.23,5.23,0,0,0,.42,2.37,6.22,6.22,0,0,0,2.32,1.93q5.46,3.24,6.88,5.32c1,1.39,1.42,3.62,1.42,6.71a11.64,11.64,0,0,1-.79,4.95,6.13,6.13,0,0,1-3,2.68,12,12,0,0,1-5.25,1.08,11.74,11.74,0,0,1-5.61-1.25,6.07,6.07,0,0,1-3-3.17,16.2,16.2,0,0,1-.72-5.46V20.86h7.6v3.83a5.06,5.06,0,0,0,.32,2.27,1.24,1.24,0,0,0,1.14.51,1.32,1.32,0,0,0,1.21-.64,3.62,3.62,0,0,0,.4-1.91q0-2.78-.75-3.63a24.56,24.56,0,0,0-3.84-2.86,37.94,37.94,0,0,1-4-2.94A6.76,6.76,0,0,1,105.15,13a11,11,0,0,1-.65-4.12,11.38,11.38,0,0,1,.92-5.29,6.23,6.23,0,0,1,3-2.62,11.93,11.93,0,0,1,5-.94,12.94,12.94,0,0,1,5.44,1,5.71,5.71,0,0,1,3,2.6,13.61,13.61,0,0,1,.73,5.31Z"/></g></g></g></svg>