<svg xmlns="http://www.w3.org/2000/svg" xmlns:xlink="http://www.w3.org/1999/xlink" viewBox="0 0 145.47 45.31"><defs><style>.cls-1{fill:url(#Unbenannter_Verlauf_349);}.cls-2{fill:url(#Unbenannter_Verlauf_349-2);}.cls-3{fill:url(#Unbenannter_Verlauf_349-3);}.cls-4{fill:url(#Unbenannter_Verlauf_349-4);}.cls-5{fill:url(#Unbenannter_Verlauf_349-5);}</style><linearGradient id="Unbenannter_Verlauf_349" x1="12.92" x2="12.92" y2="45.31" gradientUnits="userSpaceOnUse"><stop offset="0.07" stop-color="#f8f2d6"/><stop offset="0.28" stop-color="#f8f1ca"/><stop offset="0.6" stop-color="#e9e0b6"/><stop offset="1" stop-color="#e6dcb1"/></linearGradient><linearGradient id="Unbenannter_Verlauf_349-2" x1="42.14" x2="42.14" y2="45.31" xlink:href="#Unbenannter_Verlauf_349"/><linearGradient id="Unbenannter_Verlauf_349-3" x1="72.2" y1="0.91" x2="72.2" y2="45.31" xlink:href="#Unbenannter_Verlauf_349"/><linearGradient id="Unbenannter_Verlauf_349-4" x1="102.13" y1="0.91" x2="102.13" y2="44.39" xlink:href="#Unbenannter_Verlauf_349"/><linearGradient id="Unbenannter_Verlauf_349-5" x1="132.38" y1="0.91" x2="132.38" y2="44.39" xlink:href="#Unbenannter_Verlauf_349"/></defs><title>Main_Menu_Text_Sound</title><g id="Ebene_2" data-name="Ebene 2"><g id="Options"><g id="Button_Kopie" data-name="Button Kopie"><path class="cls-1" d="M24.89,14.07H14.39V10.85A6.3,6.3,0,0,0,14,8a1.46,1.46,0,0,0-1.34-.62,1.73,1.73,0,0,0-1.55.83,4.85,4.85,0,0,0-.52,2.53A7.22,7.22,0,0,0,11.17,14a8.49,8.49,0,0,0,3.19,2.65q7.56,4.49,9.51,7.36t2,9.26a16.36,16.36,0,0,1-1.08,6.85,8.52,8.52,0,0,1-4.21,3.69,16.5,16.5,0,0,1-7.25,1.5,16.31,16.31,0,0,1-7.75-1.72,8.48,8.48,0,0,1-4.2-4.38,22.53,22.53,0,0,1-1-7.55V28.82h10.5v5.29a7.06,7.06,0,0,0,.44,3.14,1.73,1.73,0,0,0,1.57.7,1.84,1.84,0,0,0,1.68-.89,5,5,0,0,0,.55-2.63c0-2.56-.35-4.24-1.05-5a32.2,32.2,0,0,0-5.29-3.95A49.94,49.94,0,0,1,3.17,21.4,9.48,9.48,0,0,1,.9,17.91,15.32,15.32,0,0,1,0,12.22C0,8.89.42,6.45,1.28,4.91A8.62,8.62,0,0,1,5.4,1.3,16.39,16.39,0,0,1,12.27,0a17.91,17.91,0,0,1,7.51,1.42A7.86,7.86,0,0,1,23.89,5q1,2.16,1,7.34Z"/><path class="cls-2" d="M55.21,26.37q0,6.55-.3,9.28a10.43,10.43,0,0,1-6.33,8.45,16.07,16.07,0,0,1-6.45,1.21,16.44,16.44,0,0,1-6.27-1.15,10.42,10.42,0,0,1-6.48-8.39,90.43,90.43,0,0,1-.32-9.4V18.93q0-6.55.31-9.28a10.37,10.37,0,0,1,6.32-8.44A15.88,15.88,0,0,1,42.13,0a16.46,16.46,0,0,1,6.28,1.14,10.46,10.46,0,0,1,6.48,8.39,90.56,90.56,0,0,1,.32,9.4ZM43.91,12.08a13.22,13.22,0,0,0-.34-3.88,1.33,1.33,0,0,0-1.38-.84A1.57,1.57,0,0,0,40.83,8c-.31.46-.47,1.81-.47,4V32.39a20.28,20.28,0,0,0,.31,4.67,1.36,1.36,0,0,0,1.44.89,1.4,1.4,0,0,0,1.48-1,21.86,21.86,0,0,0,.32-4.86Z"/><path class="cls-3" d="M85.13.91V30a51.21,51.21,0,0,1-.32,6.94A9.39,9.39,0,0,1,82.9,41a10,10,0,0,1-4.17,3.2,15.84,15.84,0,0,1-6.11,1.09A17.2,17.2,0,0,1,65.74,44a10.37,10.37,0,0,1-4.46-3.36,9.34,9.34,0,0,1-1.74-4.36c-.18-1.54-.27-4.75-.27-9.66V.91h11.3V33.52a13,13,0,0,0,.31,3.63,1.22,1.22,0,0,0,1.25.8,1.31,1.31,0,0,0,1.39-.88,16.66,16.66,0,0,0,.3-4.12V.91Z"/><path class="cls-4" d="M114.75.91V44.39h-9.91L99,24.63V44.39H89.51V.91H99l6.34,19.58V.91Z"/><path class="cls-5" d="M119.29.91h8.46q8.19,0,11.08.76a8.46,8.46,0,0,1,4.39,2.47A7.82,7.82,0,0,1,145.1,8a58.34,58.34,0,0,1,.37,8.29V31.47a35.13,35.13,0,0,1-.55,7.83A5.78,5.78,0,0,1,143,42.39,8.06,8.06,0,0,1,139.62,44a31.07,31.07,0,0,1-6.07.44H119.29ZM130.6,8.35V37c1.63,0,2.63-.32,3-1s.56-2.43.56-5.33V13.75A22.15,22.15,0,0,0,134,10a1.78,1.78,0,0,0-.86-1.22A5.57,5.57,0,0,0,130.6,8.35Z"/></g></g></g></svg>