<svg xmlns="http://www.w3.org/2000/svg" xmlns:xlink="http://www.w3.org/1999/xlink" viewBox="0 0 122.52 32.8"><defs><style>.cls-1{fill:url(#Unbenannter_Verlauf_349);}.cls-2{fill:url(#Unbenannter_Verlauf_349-2);}.cls-3{fill:url(#Unbenannter_Verlauf_349-3);}.cls-4{fill:url(#Unbenannter_Verlauf_349-4);}.cls-5{fill:url(#Unbenannter_Verlauf_349-5);}.cls-6{fill:url(#Unbenannter_Verlauf_349-6);}</style><linearGradient id="Unbenannter_Verlauf_349" x1="12.63" y1="0.66" x2="12.63" y2="32.14" gradientUnits="userSpaceOnUse"><stop offset="0.07" stop-color="#f8f2d6"/><stop offset="0.28" stop-color="#f8f1ca"/><stop offset="0.6" stop-color="#e9e0b6"/><stop offset="1" stop-color="#e6dcb1"/></linearGradient><linearGradient id="Unbenannter_Verlauf_349-2" x1="37.03" y1="0.66" x2="37.03" y2="32.14" xlink:href="#Unbenannter_Verlauf_349"/><linearGradient id="Unbenannter_Verlauf_349-3" x1="57.43" y1="0" x2="57.43" y2="32.8" xlink:href="#Unbenannter_Verlauf_349"/><linearGradient id="Unbenannter_Verlauf_349-4" x1="76.89" y1="0.66" x2="76.89" y2="32.14" xlink:href="#Unbenannter_Verlauf_349"/><linearGradient id="Unbenannter_Verlauf_349-5" x1="94.8" y1="0.66" x2="94.8" y2="32.14" xlink:href="#Unbenannter_Verlauf_349"/><linearGradient id="Unbenannter_Verlauf_349-6" x1="113.38" y1="0.66" x2="113.38" y2="32.14" xlink:href="#Unbenannter_Verlauf_349"/></defs><title>Main_Menu_Text_Sound_Master</title><g id="Ebene_2" data-name="Ebene 2"><g id="Options"><g id="SOUND"><path class="cls-1" d="M25.25.66V32.14H18.1V10.89L15.24,32.14H10.17l-3-20.77V32.14H0V.66H10.59c.31,1.89.64,4.12,1,6.69l1.16,8L14.61.66Z"/><path class="cls-2" d="M42.69.66l4.68,31.48H39l-.44-5.66H35.64l-.5,5.66H26.68L30.86.66ZM38.35,20.9q-.62-5.35-1.25-13.22-1.24,9-1.57,13.22Z"/><path class="cls-3" d="M66.1,10.19H58.5V7.85a4.68,4.68,0,0,0-.29-2.08,1.1,1.1,0,0,0-1-.44,1.23,1.23,0,0,0-1.11.6,3.42,3.42,0,0,0-.38,1.83,5.23,5.23,0,0,0,.42,2.37,6.31,6.31,0,0,0,2.32,1.93q5.46,3.24,6.88,5.32c1,1.39,1.42,3.62,1.42,6.71A11.64,11.64,0,0,1,66,29a6.13,6.13,0,0,1-3,2.68A12,12,0,0,1,57.7,32.8a11.74,11.74,0,0,1-5.61-1.25,6.07,6.07,0,0,1-3-3.17,16.2,16.2,0,0,1-.72-5.46V20.86h7.6v3.83A5.06,5.06,0,0,0,56.25,27a1.25,1.25,0,0,0,1.14.51,1.34,1.34,0,0,0,1.22-.64A3.73,3.73,0,0,0,59,24.92q0-2.78-.75-3.63a24.82,24.82,0,0,0-3.83-2.86,37.32,37.32,0,0,1-4.05-2.94A6.76,6.76,0,0,1,48.73,13a11,11,0,0,1-.65-4.12A11.51,11.51,0,0,1,49,3.56,6.21,6.21,0,0,1,52,.94,11.85,11.85,0,0,1,57,0,12.94,12.94,0,0,1,62.4,1a5.71,5.71,0,0,1,3,2.6,13.61,13.61,0,0,1,.73,5.31Z"/><path class="cls-4" d="M85.83.66V7H81V32.14H72.79V7H68V.66Z"/><path class="cls-5" d="M87.7.66h13.65V7H95.88v6H101v6H95.88v6.92h6v6.3H87.7Z"/><path class="cls-6" d="M104.24.66H110a44,44,0,0,1,7.84.45,5.45,5.45,0,0,1,3.35,2.28q1.29,1.85,1.29,5.86c0,2.45-.31,4.1-.92,4.94s-1.8,1.35-3.59,1.52a6.11,6.11,0,0,1,3.26,1.61,4.71,4.71,0,0,1,1,1.86,28.38,28.38,0,0,1,.21,4.65v8.31h-7.6V21.68a7.28,7.28,0,0,0-.4-3.13c-.27-.4-1-.61-2.09-.61v14.2h-8.19Zm8.19,5.39v7a3.63,3.63,0,0,0,1.93-.37c.37-.26.56-1.08.56-2.46V8.48a2.62,2.62,0,0,0-.54-2A3,3,0,0,0,112.43,6.05Z"/></g></g></g></svg>