<svg xmlns="http://www.w3.org/2000/svg" xmlns:xlink="http://www.w3.org/1999/xlink" viewBox="0 0 194.02 32.8"><defs><style>.cls-1{fill:url(#Unbenannter_Verlauf_349);}.cls-2{fill:url(#Unbenannter_Verlauf_349-2);}.cls-3{fill:url(#Unbenannter_Verlauf_349-3);}.cls-4{fill:url(#Unbenannter_Verlauf_349-4);}.cls-5{fill:url(#Unbenannter_Verlauf_349-5);}.cls-6{fill:url(#Unbenannter_Verlauf_349-6);}.cls-7{fill:url(#Unbenannter_Verlauf_349-7);}.cls-8{fill:url(#Unbenannter_Verlauf_349-8);}.cls-9{fill:url(#Unbenannter_Verlauf_349-9);}.cls-10{fill:url(#Unbenannter_Verlauf_349-10);}</style><linearGradient id="Unbenannter_Verlauf_349" x1="9.53" y1="0.66" x2="9.53" y2="32.14" gradientUnits="userSpaceOnUse"><stop offset="0.07" stop-color="#f8f2d6"/><stop offset="0.28" stop-color="#f8f1ca"/><stop offset="0.6" stop-color="#e9e0b6"/><stop offset="1" stop-color="#e6dcb1"/></linearGradient><linearGradient id="Unbenannter_Verlauf_349-2" x1="31.13" y1="0.66" x2="31.13" y2="32.14" xlink:href="#Unbenannter_Verlauf_349"/><linearGradient id="Unbenannter_Verlauf_349-3" x1="47.52" y1="0.66" x2="47.52" y2="32.14" xlink:href="#Unbenannter_Verlauf_349"/><linearGradient id="Unbenannter_Verlauf_349-4" x1="64.18" y1="0" x2="64.18" y2="32.8" xlink:href="#Unbenannter_Verlauf_349"/><linearGradient id="Unbenannter_Verlauf_349-5" x1="86.26" y1="0.66" x2="86.26" y2="32.14" xlink:href="#Unbenannter_Verlauf_349"/><linearGradient id="Unbenannter_Verlauf_349-6" x1="106.5" y1="0.66" x2="106.5" y2="32.14" xlink:href="#Unbenannter_Verlauf_349"/><linearGradient id="Unbenannter_Verlauf_349-7" x1="126.45" y1="0.66" x2="126.45" y2="32.14" xlink:href="#Unbenannter_Verlauf_349"/><linearGradient id="Unbenannter_Verlauf_349-8" x1="145.97" y1="0.66" x2="145.97" y2="32.14" xlink:href="#Unbenannter_Verlauf_349"/><linearGradient id="Unbenannter_Verlauf_349-9" x1="164.08" y1="0" x2="164.08" y2="32.8" xlink:href="#Unbenannter_Verlauf_349"/><linearGradient id="Unbenannter_Verlauf_349-10" x1="184.67" y1="0" x2="184.67" y2="32.8" xlink:href="#Unbenannter_Verlauf_349"/></defs><title>Main_Menu_Text_Brightness</title><g id="Ebene_2" data-name="Ebene 2"><g id="Options"><g id="DISPLAY"><path class="cls-1" d="M0,.66H8.17a21.66,21.66,0,0,1,5.86.6A5.83,5.83,0,0,1,17.24,3.7q1.23,1.84,1.23,5.92a6.3,6.3,0,0,1-.87,3.84,5.91,5.91,0,0,1-3.41,1.67A6.07,6.07,0,0,1,18,17.26a8.3,8.3,0,0,1,1,4.57v2.91a11.51,11.51,0,0,1-.73,4.73A3.88,3.88,0,0,1,16,31.57a23.57,23.57,0,0,1-6.53.57H0ZM8.18,6.05v7H9c.8,0,1.32-.2,1.54-.6A9.66,9.66,0,0,0,10.87,9,5.56,5.56,0,0,0,10.6,7a1.31,1.31,0,0,0-.71-.75A6.49,6.49,0,0,0,8.18,6.05Zm0,11.89v8.81a3.54,3.54,0,0,0,2.21-.54,3.8,3.8,0,0,0,.48-2.39V20.88a4.19,4.19,0,0,0-.43-2.45A3.9,3.9,0,0,0,8.18,17.94Z"/><path class="cls-2" d="M22,.66h5.79a44.13,44.13,0,0,1,7.85.45A5.43,5.43,0,0,1,39,3.39q1.29,1.85,1.29,5.86c0,2.45-.3,4.1-.91,4.94s-1.81,1.35-3.6,1.52A6.19,6.19,0,0,1,39,17.32a4.84,4.84,0,0,1,1,1.86,28.91,28.91,0,0,1,.2,4.65v8.31h-7.6V21.68a7.12,7.12,0,0,0-.4-3.13c-.26-.4-1-.61-2.09-.61v14.2H22Zm8.18,5.39v7a3.67,3.67,0,0,0,1.94-.37c.37-.26.55-1.08.55-2.46V8.48a2.67,2.67,0,0,0-.53-2A3.07,3.07,0,0,0,30.17,6.05Z"/><path class="cls-3" d="M51.62.66V32.14H43.43V.66Z"/><path class="cls-4" d="M73.68,12.25H65.5V9.39A13.74,13.74,0,0,0,65.26,6a1.22,1.22,0,0,0-2.13-.1,9.15,9.15,0,0,0-.28,3V24a8.68,8.68,0,0,0,.28,2.79,1,1,0,0,0,1.08.67,1.2,1.2,0,0,0,1.22-.76,8.94,8.94,0,0,0,.32-2.95V20H64.1V15.24h9.58v16.9H68.54l-.76-2.26a5.78,5.78,0,0,1-2.11,2.19,6,6,0,0,1-3,.73,7.91,7.91,0,0,1-3.87-1,7.42,7.42,0,0,1-2.73-2.48,8,8,0,0,1-1.17-3.1,38.54,38.54,0,0,1-.23-4.87V12a30.91,30.91,0,0,1,.49-6.56A6.7,6.7,0,0,1,58,1.7,9.78,9.78,0,0,1,63.9,0a11.06,11.06,0,0,1,6,1.48A6.94,6.94,0,0,1,73,5a18.54,18.54,0,0,1,.72,5.9Z"/><path class="cls-5" d="M95.67.66V32.14H87.49V18.92H85V32.14H76.85V.66H85V11.92h2.45V.66Z"/><path class="cls-6" d="M115.44.66V7h-4.86V32.14H102.4V7H97.56V.66Z"/><path class="cls-7" d="M135.58.66V32.14h-7.17l-4.26-14.31V32.14h-6.84V.66h6.84l4.59,14.17V.66Z"/><path class="cls-8" d="M138.87.66h13.65V7h-5.47v6h5.12v6h-5.12v6.92h6v6.3H138.87Z"/><path class="cls-9" d="M172.75,10.19h-7.6V7.85a4.53,4.53,0,0,0-.29-2.08,1.08,1.08,0,0,0-1-.44,1.24,1.24,0,0,0-1.12.6,3.52,3.52,0,0,0-.38,1.83,5.21,5.21,0,0,0,.43,2.37,6.16,6.16,0,0,0,2.31,1.93q5.48,3.24,6.89,5.32c.94,1.39,1.42,3.62,1.42,6.71a11.8,11.8,0,0,1-.79,4.95,6.18,6.18,0,0,1-3,2.68,12.07,12.07,0,0,1-5.25,1.08,11.74,11.74,0,0,1-5.61-1.25,6,6,0,0,1-3-3.17,16.2,16.2,0,0,1-.72-5.46V20.86h7.6v3.83a4.91,4.91,0,0,0,.32,2.27,1.23,1.23,0,0,0,1.14.51,1.32,1.32,0,0,0,1.21-.64,3.62,3.62,0,0,0,.4-1.91c0-1.85-.25-3.06-.76-3.63a24.3,24.3,0,0,0-3.83-2.86,37.94,37.94,0,0,1-4-2.94A6.9,6.9,0,0,1,155.38,13a11.23,11.23,0,0,1-.65-4.12,11.36,11.36,0,0,1,.93-5.29,6.18,6.18,0,0,1,3-2.62,11.87,11.87,0,0,1,5-.94,12.93,12.93,0,0,1,5.43,1,5.7,5.7,0,0,1,3,2.6,13.85,13.85,0,0,1,.72,5.31Z"/><path class="cls-10" d="M193.34,10.19h-7.6V7.85a4.68,4.68,0,0,0-.29-2.08,1.08,1.08,0,0,0-1-.44,1.24,1.24,0,0,0-1.12.6A3.52,3.52,0,0,0,183,7.76a5.08,5.08,0,0,0,.43,2.37,6.16,6.16,0,0,0,2.31,1.93q5.46,3.24,6.88,5.32c1,1.39,1.42,3.62,1.42,6.71a11.82,11.82,0,0,1-.78,4.95,6.16,6.16,0,0,1-3.05,2.68A12,12,0,0,1,185,32.8a11.68,11.68,0,0,1-5.61-1.25,6.1,6.1,0,0,1-3.05-3.17,16.2,16.2,0,0,1-.72-5.46V20.86h7.61v3.83A4.91,4.91,0,0,0,183.5,27a1.22,1.22,0,0,0,1.13.51,1.33,1.33,0,0,0,1.22-.64,3.72,3.72,0,0,0,.4-1.91c0-1.85-.25-3.06-.76-3.63a24.82,24.82,0,0,0-3.83-2.86,36.88,36.88,0,0,1-4-2.94A6.78,6.78,0,0,1,176,13a11.23,11.23,0,0,1-.65-4.12,11.36,11.36,0,0,1,.93-5.29,6.18,6.18,0,0,1,3-2.62,11.87,11.87,0,0,1,5-.94,12.93,12.93,0,0,1,5.43,1,5.63,5.63,0,0,1,3,2.6,13.61,13.61,0,0,1,.73,5.31Z"/></g></g></g></svg>