<svg xmlns="http://www.w3.org/2000/svg" xmlns:xlink="http://www.w3.org/1999/xlink" viewBox="0 0 183.91 45.31"><defs><style>.cls-1{fill:url(#Unbenannter_Verlauf_349);}.cls-2{fill:url(#Unbenannter_Verlauf_349-2);}.cls-3{fill:url(#Unbenannter_Verlauf_349-3);}.cls-4{fill:url(#Unbenannter_Verlauf_349-4);}.cls-5{fill:url(#Unbenannter_Verlauf_349-5);}.cls-6{fill:url(#Unbenannter_Verlauf_349-6);}.cls-7{fill:url(#Unbenannter_Verlauf_349-7);}</style><linearGradient id="Unbenannter_Verlauf_349" x1="13.08" x2="13.08" y2="45.31" gradientUnits="userSpaceOnUse"><stop offset="0.07" stop-color="#f8f2d6"/><stop offset="0.28" stop-color="#f8f1ca"/><stop offset="0.6" stop-color="#e9e0b6"/><stop offset="1" stop-color="#e6dcb1"/></linearGradient><linearGradient id="Unbenannter_Verlauf_349-2" x1="42.55" y1="0.91" x2="42.55" y2="44.39" xlink:href="#Unbenannter_Verlauf_349"/><linearGradient id="Unbenannter_Verlauf_349-3" x1="68.4" y1="0.91" x2="68.4" y2="44.39" xlink:href="#Unbenannter_Verlauf_349"/><linearGradient id="Unbenannter_Verlauf_349-4" x1="88.99" y1="0.91" x2="88.99" y2="44.39" xlink:href="#Unbenannter_Verlauf_349"/><linearGradient id="Unbenannter_Verlauf_349-5" x1="111.93" x2="111.93" y2="45.31" xlink:href="#Unbenannter_Verlauf_349"/><linearGradient id="Unbenannter_Verlauf_349-6" x1="141.85" y1="0.91" x2="141.85" y2="44.39" xlink:href="#Unbenannter_Verlauf_349"/><linearGradient id="Unbenannter_Verlauf_349-7" x1="170.99" x2="170.99" y2="45.31" xlink:href="#Unbenannter_Verlauf_349"/></defs><title>Main_Menu_Text_Options</title><g id="Ebene_2" data-name="Ebene 2"><g id="L_Options" data-name="L Options"><path class="cls-1" d="M26.16,26.37c0,4.37-.11,7.46-.31,9.28a10.38,10.38,0,0,1-6.33,8.45,16,16,0,0,1-6.44,1.21,16.37,16.37,0,0,1-6.27-1.15A10.46,10.46,0,0,1,.32,35.77,93.42,93.42,0,0,1,0,26.37V18.93q0-6.55.31-9.28A10.37,10.37,0,0,1,6.63,1.21,16,16,0,0,1,13.08,0a16.37,16.37,0,0,1,6.27,1.14,10.46,10.46,0,0,1,6.48,8.39,89.75,89.75,0,0,1,.33,9.4ZM14.85,12.08a13.73,13.73,0,0,0-.33-3.88,1.35,1.35,0,0,0-1.39-.84A1.54,1.54,0,0,0,11.78,8c-.32.46-.47,1.81-.47,4V32.39a19.69,19.69,0,0,0,.31,4.67,1.34,1.34,0,0,0,1.43.89,1.4,1.4,0,0,0,1.48-1,21.86,21.86,0,0,0,.32-4.86Z"/><path class="cls-2" d="M30.37.91H41.76a26.36,26.36,0,0,1,7.1.73A8,8,0,0,1,52.6,3.73a7.29,7.29,0,0,1,1.69,3.32,30.19,30.19,0,0,1,.44,6v3.79a15.59,15.59,0,0,1-.86,6.06,5.83,5.83,0,0,1-3.15,2.93,14.94,14.94,0,0,1-6,1h-3V44.39H30.37ZM41.68,8.35V19.42l.83,0a2.6,2.6,0,0,0,2.16-.76,5.55,5.55,0,0,0,.61-3.18V11.92c0-1.48-.23-2.45-.7-2.9A4.41,4.41,0,0,0,41.68,8.35Z"/><path class="cls-3" d="M80.75.91v8.7H74V44.39H62.74V9.61H56.05V.91Z"/><path class="cls-4" d="M94.64.91V44.39H83.33V.91Z"/><path class="cls-5" d="M125,26.37q0,6.55-.31,9.28a10.4,10.4,0,0,1-6.32,8.45,16.07,16.07,0,0,1-6.45,1.21,16.44,16.44,0,0,1-6.27-1.15,10.34,10.34,0,0,1-4.47-3.42,10.22,10.22,0,0,1-2-5,90.43,90.43,0,0,1-.32-9.4V18.93q0-6.55.3-9.28a10.4,10.4,0,0,1,6.33-8.44A15.88,15.88,0,0,1,111.93,0a16.46,16.46,0,0,1,6.28,1.14,10.46,10.46,0,0,1,6.48,8.39,90.56,90.56,0,0,1,.32,9.4Zm-11.3-14.29a13.6,13.6,0,0,0-.34-3.88A1.33,1.33,0,0,0,112,7.36a1.56,1.56,0,0,0-1.36.68c-.31.46-.47,1.81-.47,4V32.39a19.69,19.69,0,0,0,.31,4.67,1.36,1.36,0,0,0,1.44.89,1.38,1.38,0,0,0,1.47-1,21,21,0,0,0,.33-4.86Z"/><path class="cls-6" d="M154.47.91V44.39h-9.91l-5.88-19.76V44.39h-9.45V.91h9.45L145,20.49V.91Z"/><path class="cls-7" d="M183,14.07h-10.5V10.85A6.26,6.26,0,0,0,172.06,8a1.45,1.45,0,0,0-1.34-.62,1.71,1.71,0,0,0-1.54.83,4.84,4.84,0,0,0-.53,2.53,7.22,7.22,0,0,0,.59,3.28,8.54,8.54,0,0,0,3.2,2.65Q180,21.14,182,24c1.3,1.91,2,5,2,9.26a16.34,16.34,0,0,1-1.09,6.85,8.53,8.53,0,0,1-4.2,3.69,16.56,16.56,0,0,1-7.25,1.5,16.28,16.28,0,0,1-7.75-1.72,8.44,8.44,0,0,1-4.2-4.38,22.23,22.23,0,0,1-1-7.55V28.82h10.5v5.29a6.87,6.87,0,0,0,.45,3.14,1.71,1.71,0,0,0,1.57.7,1.85,1.85,0,0,0,1.68-.89,5.13,5.13,0,0,0,.55-2.63c0-2.56-.35-4.24-1-5a33.17,33.17,0,0,0-5.29-3.95,51.4,51.4,0,0,1-5.59-4.06A9.48,9.48,0,0,1,159,17.91a15.32,15.32,0,0,1-.9-5.69q0-5,1.28-7.31a8.62,8.62,0,0,1,4.12-3.61A16.43,16.43,0,0,1,170.35,0a17.89,17.89,0,0,1,7.5,1.42A7.86,7.86,0,0,1,182,5q1,2.16,1,7.34Z"/></g></g></svg>