<svg xmlns="http://www.w3.org/2000/svg" xmlns:xlink="http://www.w3.org/1999/xlink" viewBox="0 0 173.3 45.31"><defs><style>.cls-1{fill:url(#Unbenannter_Verlauf_349);}.cls-2{fill:url(#Unbenannter_Verlauf_349-2);}.cls-3{fill:url(#Unbenannter_Verlauf_349-3);}.cls-4{fill:url(#Unbenannter_Verlauf_349-4);}.cls-5{fill:url(#Unbenannter_Verlauf_349-5);}.cls-6{fill:url(#Unbenannter_Verlauf_349-6);}.cls-7{fill:url(#Unbenannter_Verlauf_349-7);}</style><linearGradient id="Unbenannter_Verlauf_349" x1="13.09" y1="0.91" x2="13.09" y2="44.39" gradientUnits="userSpaceOnUse"><stop offset="0.07" stop-color="#f8f2d6"/><stop offset="0.28" stop-color="#f8f1ca"/><stop offset="0.6" stop-color="#e9e0b6"/><stop offset="1" stop-color="#e6dcb1"/></linearGradient><linearGradient id="Unbenannter_Verlauf_349-2" x1="36.05" y1="0.91" x2="36.05" y2="44.39" xlink:href="#Unbenannter_Verlauf_349"/><linearGradient id="Unbenannter_Verlauf_349-3" x1="58.22" y1="0" x2="58.22" y2="45.31" xlink:href="#Unbenannter_Verlauf_349"/><linearGradient id="Unbenannter_Verlauf_349-4" x1="86.86" y1="0.91" x2="86.86" y2="44.39" xlink:href="#Unbenannter_Verlauf_349"/><linearGradient id="Unbenannter_Verlauf_349-5" x1="111.38" y1="0.91" x2="111.38" y2="44.39" xlink:href="#Unbenannter_Verlauf_349"/><linearGradient id="Unbenannter_Verlauf_349-6" x1="136.3" y1="0.91" x2="136.3" y2="44.39" xlink:href="#Unbenannter_Verlauf_349"/><linearGradient id="Unbenannter_Verlauf_349-7" x1="159.96" y1="0.91" x2="159.96" y2="44.39" xlink:href="#Unbenannter_Verlauf_349"/></defs><title>Main_Menu_Text_Display</title><g id="Ebene_2" data-name="Ebene 2"><g id="Options"><g id="Button"><path class="cls-1" d="M0,.91H8.46q8.19,0,11.08.76a8.46,8.46,0,0,1,4.39,2.47A7.82,7.82,0,0,1,25.81,8a58.34,58.34,0,0,1,.37,8.29V31.47a35.13,35.13,0,0,1-.55,7.83,5.78,5.78,0,0,1-1.92,3.09A8.06,8.06,0,0,1,20.33,44a31.07,31.07,0,0,1-6.07.44H0ZM11.31,8.35V37c1.63,0,2.63-.32,3-1s.57-2.43.57-5.33V13.75A22.15,22.15,0,0,0,14.69,10a1.81,1.81,0,0,0-.86-1.22A5.57,5.57,0,0,0,11.31,8.35Z"/><path class="cls-2" d="M41.71.91V44.39H30.4V.91Z"/><path class="cls-3" d="M70.2,14.07H59.7V10.85A6.3,6.3,0,0,0,59.3,8,1.48,1.48,0,0,0,58,7.36a1.71,1.71,0,0,0-1.54.83,4.85,4.85,0,0,0-.52,2.53A7.24,7.24,0,0,0,56.47,14a8.63,8.63,0,0,0,3.2,2.65q7.55,4.49,9.51,7.36t2,9.26a16.18,16.18,0,0,1-1.09,6.85,8.45,8.45,0,0,1-4.2,3.69,16.53,16.53,0,0,1-7.25,1.5,16.28,16.28,0,0,1-7.75-1.72,8.44,8.44,0,0,1-4.2-4.38,22.49,22.49,0,0,1-1-7.55V28.82H56.16v5.29a6.91,6.91,0,0,0,.44,3.14,1.72,1.72,0,0,0,1.57.7,1.85,1.85,0,0,0,1.68-.89,5.13,5.13,0,0,0,.55-2.63c0-2.56-.35-4.24-1-5a33.17,33.17,0,0,0-5.29-3.95,51.4,51.4,0,0,1-5.59-4.06,9.34,9.34,0,0,1-2.26-3.49,15.11,15.11,0,0,1-.9-5.69q0-5,1.27-7.31A8.67,8.67,0,0,1,50.7,1.3,16.43,16.43,0,0,1,57.58,0a17.86,17.86,0,0,1,7.5,1.42A7.86,7.86,0,0,1,69.19,5q1,2.16,1,7.34Z"/><path class="cls-4" d="M74.69.91H86.07a26.5,26.5,0,0,1,7.11.73,7.94,7.94,0,0,1,3.73,2.09A7.29,7.29,0,0,1,98.6,7.05a29.44,29.44,0,0,1,.44,6v3.79a15.59,15.59,0,0,1-.86,6.06A5.83,5.83,0,0,1,95,25.86a14.92,14.92,0,0,1-6,1H86V44.39H74.69ZM86,8.35V19.42l.83,0A2.64,2.64,0,0,0,89,18.68a5.65,5.65,0,0,0,.6-3.18V11.92c0-1.48-.23-2.45-.7-2.9A4.41,4.41,0,0,0,86,8.35Z"/><path class="cls-5" d="M113.6.91V35.69h6.87v8.7H102.29V.91Z"/><path class="cls-6" d="M144.13.91l6.46,43.48H139l-.61-7.81h-4l-.68,7.81H122L127.78.91Zm-6,28q-.85-7.39-1.72-18.26-1.72,12.48-2.17,18.26Z"/><path class="cls-7" d="M173.3.91l-8.25,27.74V44.39H154.58V28.65l-8-27.74H157q2.43,12.74,2.74,17.14.94-7,3.15-17.14Z"/></g></g></g></svg>