<svg xmlns="http://www.w3.org/2000/svg" xmlns:xlink="http://www.w3.org/1999/xlink" viewBox="0 0 431.65 45.3"><defs><style>.cls-1{fill:url(#Unbenannter_Verlauf_349);}.cls-2{fill:url(#Unbenannter_Verlauf_349-2);}.cls-3{fill:url(#Unbenannter_Verlauf_349-3);}.cls-4{fill:url(#Unbenannter_Verlauf_349-4);}.cls-5{fill:url(#Unbenannter_Verlauf_349-5);}.cls-6{fill:url(#Unbenannter_Verlauf_349-6);}.cls-7{fill:url(#Unbenannter_Verlauf_349-7);}.cls-8{fill:url(#Unbenannter_Verlauf_349-8);}.cls-9{fill:url(#Unbenannter_Verlauf_349-9);}.cls-10{fill:url(#Unbenannter_Verlauf_349-10);}.cls-11{fill:url(#Unbenannter_Verlauf_349-11);}.cls-12{fill:url(#Unbenannter_Verlauf_349-12);}.cls-13{fill:url(#Unbenannter_Verlauf_349-13);}.cls-14{fill:url(#Unbenannter_Verlauf_349-14);}.cls-15{fill:url(#Unbenannter_Verlauf_349-15);}</style><linearGradient id="Unbenannter_Verlauf_349" x1="13.36" x2="13.36" y2="45.3" gradientUnits="userSpaceOnUse"><stop offset="0.07" stop-color="#f8f2d6"/><stop offset="0.28" stop-color="#f8f1ca"/><stop offset="0.6" stop-color="#e9e0b6"/><stop offset="1" stop-color="#e6dcb1"/></linearGradient><linearGradient id="Unbenannter_Verlauf_349-2" x1="43.53" x2="43.53" y2="45.3" xlink:href="#Unbenannter_Verlauf_349"/><linearGradient id="Unbenannter_Verlauf_349-3" x1="73.45" y1="0.91" x2="73.45" y2="44.39" xlink:href="#Unbenannter_Verlauf_349"/><linearGradient id="Unbenannter_Verlauf_349-4" x1="103.23" y1="0.91" x2="103.23" y2="44.39" xlink:href="#Unbenannter_Verlauf_349"/><linearGradient id="Unbenannter_Verlauf_349-5" x1="130.19" y1="0.91" x2="130.19" y2="44.39" xlink:href="#Unbenannter_Verlauf_349"/><linearGradient id="Unbenannter_Verlauf_349-6" x1="156.29" x2="156.29" y2="45.3" xlink:href="#Unbenannter_Verlauf_349"/><linearGradient id="Unbenannter_Verlauf_349-7" x1="184.12" y1="0.91" x2="184.12" y2="44.39" xlink:href="#Unbenannter_Verlauf_349"/><linearGradient id="Unbenannter_Verlauf_349-8" x1="219.17" y1="0.91" x2="219.17" y2="44.39" xlink:href="#Unbenannter_Verlauf_349"/><linearGradient id="Unbenannter_Verlauf_349-9" x1="246.85" x2="246.85" y2="45.3" xlink:href="#Unbenannter_Verlauf_349"/><linearGradient id="Unbenannter_Verlauf_349-10" x1="285.82" x2="285.82" y2="45.3" xlink:href="#Unbenannter_Verlauf_349"/><linearGradient id="Unbenannter_Verlauf_349-11" x1="312.09" y1="0.91" x2="312.09" y2="44.39" xlink:href="#Unbenannter_Verlauf_349"/><linearGradient id="Unbenannter_Verlauf_349-12" x1="337.76" y1="0.91" x2="337.76" y2="44.39" xlink:href="#Unbenannter_Verlauf_349"/><linearGradient id="Unbenannter_Verlauf_349-13" x1="366.91" y1="0.91" x2="366.91" y2="44.39" xlink:href="#Unbenannter_Verlauf_349"/><linearGradient id="Unbenannter_Verlauf_349-14" x1="393.35" y1="0.91" x2="393.35" y2="44.39" xlink:href="#Unbenannter_Verlauf_349"/><linearGradient id="Unbenannter_Verlauf_349-15" x1="419.03" y1="0.91" x2="419.03" y2="44.39" xlink:href="#Unbenannter_Verlauf_349"/></defs><title>Main_Menu_Text_Connect_To_Server</title><g id="Ebene_2" data-name="Ebene 2"><g id="Start"><path class="cls-1" d="M26.72,19.85H15.42V12.29a13.43,13.43,0,0,0-.37-4.11,1.55,1.55,0,0,0-1.6-.82,1.67,1.67,0,0,0-1.77,1,15.25,15.25,0,0,0-.37,4.3V32.84A14.22,14.22,0,0,0,11.68,37a1.62,1.62,0,0,0,1.69,1A1.61,1.61,0,0,0,15,37a15.84,15.84,0,0,0,.39-4.55V27h11.3v1.7q0,6.75-.95,9.57a9.82,9.82,0,0,1-4.22,5,14.4,14.4,0,0,1-8,2.12,16.67,16.67,0,0,1-8.19-1.79,8.74,8.74,0,0,1-4.27-5A32.58,32.58,0,0,1,0,29V16.25a57.41,57.41,0,0,1,.32-7A10,10,0,0,1,2.24,4.67,10.7,10.7,0,0,1,6.67,1.25,16.07,16.07,0,0,1,13.19,0a15.9,15.9,0,0,1,8.24,1.93A9.24,9.24,0,0,1,25.7,6.75a28.94,28.94,0,0,1,1,9Z"/><path class="cls-2" d="M56.61,26.37q0,6.55-.31,9.28A10.4,10.4,0,0,1,50,44.1a16.1,16.1,0,0,1-6.45,1.2,16.44,16.44,0,0,1-6.27-1.14,10.34,10.34,0,0,1-4.47-3.42,10.22,10.22,0,0,1-2-5,89.62,89.62,0,0,1-.33-9.4V18.93c0-4.37.11-7.46.31-9.28a10.4,10.4,0,0,1,6.33-8.44A15.88,15.88,0,0,1,43.53,0,16.37,16.37,0,0,1,49.8,1.14a10.17,10.17,0,0,1,4.47,3.43,10.3,10.3,0,0,1,2,5,93.56,93.56,0,0,1,.32,9.4ZM45.3,12.08A13.73,13.73,0,0,0,45,8.2a1.34,1.34,0,0,0-1.38-.84A1.56,1.56,0,0,0,42.23,8c-.31.46-.47,1.81-.47,4V32.39a19.69,19.69,0,0,0,.31,4.67,1.34,1.34,0,0,0,1.44.89,1.38,1.38,0,0,0,1.47-1,21.23,21.23,0,0,0,.32-4.86Z"/><path class="cls-3" d="M86.07.91V44.39H76.16L70.28,24.63V44.39H60.83V.91h9.45l6.34,19.58V.91Z"/><path class="cls-4" d="M115.85.91V44.39h-9.91l-5.88-19.76V44.39H90.61V.91h9.45l6.34,19.58V.91Z"/><path class="cls-5" d="M120.39.91h18.86v8.7H131.7v8.25h7.06v8.27H131.7v9.56H140v8.7H120.39Z"/><path class="cls-6" d="M169.65,19.85H158.34V12.29A13.56,13.56,0,0,0,158,8.18a1.56,1.56,0,0,0-1.6-.82,1.67,1.67,0,0,0-1.77,1,15.12,15.12,0,0,0-.38,4.3V32.84a14.1,14.1,0,0,0,.38,4.14A1.92,1.92,0,0,0,158,37a15.84,15.84,0,0,0,.39-4.55V27h11.31v1.7q0,6.75-1,9.57a9.79,9.79,0,0,1-4.21,5,14.43,14.43,0,0,1-8,2.12,16.67,16.67,0,0,1-8.19-1.79,8.74,8.74,0,0,1-4.27-5A32.58,32.58,0,0,1,142.92,29V16.25a55,55,0,0,1,.33-7,9.77,9.77,0,0,1,1.92-4.53,10.63,10.63,0,0,1,4.43-3.42,18.14,18.14,0,0,1,14.76.68,9.32,9.32,0,0,1,4.27,4.82,28.94,28.94,0,0,1,1,9Z"/><path class="cls-7" d="M196.47.91v8.7h-6.71V44.39H178.45V9.61h-6.68V.91Z"/><path class="cls-8" d="M231.52.91v8.7h-6.71V44.39H213.5V9.61h-6.69V.91Z"/><path class="cls-9" d="M259.93,26.37q0,6.55-.3,9.28a10.43,10.43,0,0,1-6.33,8.45,16.05,16.05,0,0,1-6.44,1.2,16.46,16.46,0,0,1-6.28-1.14,10.42,10.42,0,0,1-6.48-8.39,90.43,90.43,0,0,1-.32-9.4V18.93q0-6.55.3-9.28a10.53,10.53,0,0,1,1.94-5,10.39,10.39,0,0,1,4.39-3.46A15.9,15.9,0,0,1,246.86,0a16.44,16.44,0,0,1,6.27,1.14,10.46,10.46,0,0,1,6.48,8.39,90.56,90.56,0,0,1,.32,9.4Zm-11.3-14.29a13.22,13.22,0,0,0-.34-3.88,1.33,1.33,0,0,0-1.38-.84,1.57,1.57,0,0,0-1.36.68c-.31.46-.47,1.81-.47,4V32.39a20.28,20.28,0,0,0,.31,4.67,1.36,1.36,0,0,0,1.44.89,1.4,1.4,0,0,0,1.48-1,21.86,21.86,0,0,0,.32-4.86Z"/><path class="cls-10" d="M297.8,14.07H287.3V10.85A6.3,6.3,0,0,0,286.9,8a1.48,1.48,0,0,0-1.35-.62,1.71,1.71,0,0,0-1.54.83,4.85,4.85,0,0,0-.52,2.53,7.09,7.09,0,0,0,.59,3.28,8.4,8.4,0,0,0,3.19,2.65q7.55,4.49,9.51,7.36t2,9.26a16.18,16.18,0,0,1-1.09,6.85,8.45,8.45,0,0,1-4.2,3.69,16.53,16.53,0,0,1-7.25,1.49,16.28,16.28,0,0,1-7.75-1.71,8.44,8.44,0,0,1-4.2-4.38,22.23,22.23,0,0,1-1-7.55V28.82h10.5v5.29a6.87,6.87,0,0,0,.45,3.14,1.72,1.72,0,0,0,1.57.7,1.85,1.85,0,0,0,1.68-.89,5.13,5.13,0,0,0,.55-2.63c0-2.56-.35-4.24-1.05-5a33.17,33.17,0,0,0-5.29-3.95,51.4,51.4,0,0,1-5.59-4.06,9.48,9.48,0,0,1-2.27-3.49,15.54,15.54,0,0,1-.89-5.69q0-5,1.27-7.31A8.67,8.67,0,0,1,278.3,1.3,16.43,16.43,0,0,1,285.18,0a17.86,17.86,0,0,1,7.5,1.42A7.86,7.86,0,0,1,296.79,5q1,2.16,1,7.34Z"/><path class="cls-11" d="M302.29.91h18.85v8.7h-7.55v8.25h7.06v8.27h-7.06v9.56h8.3v8.7h-19.6Z"/><path class="cls-12" d="M325.14.91h8A61.32,61.32,0,0,1,344,1.53a7.42,7.42,0,0,1,4.62,3.16q1.78,2.53,1.78,8.09,0,5.09-1.26,6.82t-5,2.1c2.24.55,3.74,1.3,4.51,2.23a6.67,6.67,0,0,1,1.44,2.56,40.41,40.41,0,0,1,.28,6.43V44.39h-10.5V29.94c0-2.32-.18-3.77-.55-4.32s-1.33-.83-2.88-.83v19.6H325.14Zm11.31,7.44V18a5.06,5.06,0,0,0,2.67-.52c.51-.35.76-1.49.76-3.4V11.71c0-1.38-.24-2.28-.74-2.71A4.17,4.17,0,0,0,336.45,8.35Z"/><path class="cls-13" d="M381.64.91l-5.75,43.48H358.71L352.18.91h11.93q2.07,18,3,30.4Q368,18.74,368.93,9l.79-8.09Z"/><path class="cls-14" d="M383.55.91H402.4v8.7h-7.54v8.25h7.06v8.27h-7.06v9.56h8.29v8.7h-19.6Z"/><path class="cls-15" d="M406.4.91h8a61.26,61.26,0,0,1,10.83.62,7.42,7.42,0,0,1,4.62,3.16q1.78,2.53,1.79,8.09,0,5.09-1.26,6.82c-.85,1.17-2.5,1.87-5,2.1,2.24.55,3.74,1.3,4.51,2.23a6.67,6.67,0,0,1,1.44,2.56,41.76,41.76,0,0,1,.28,6.43V44.39h-10.5V29.94c0-2.32-.19-3.77-.55-4.32s-1.33-.83-2.89-.83v19.6H406.4Zm11.31,7.44V18a5.06,5.06,0,0,0,2.67-.52c.51-.35.77-1.49.77-3.4V11.71A3.63,3.63,0,0,0,420.41,9,4.19,4.19,0,0,0,417.71,8.35Z"/></g></g></svg>